<?xml version="1.0" encoding="UTF-8"?>
<!DOCTYPE svg  PUBLIC '-//W3C//DTD SVG 1.1//EN'  'http://www.w3.org/Graphics/SVG/1.1/DTD/svg11.dtd'>
<svg clip-rule="evenodd" fill-rule="evenodd" stroke-linejoin="round" stroke-miterlimit="2" version="1.1" viewBox="0 0 555 444" xml:space="preserve" xmlns="http://www.w3.org/2000/svg">
    <g transform="matrix(.1 0 0 -.1 0 444)" fill="#ea1d1d" fill-rule="nonzero">
        <path d="m2570 4025c-58-6-123-17-145-23s-62-16-90-23c-59-14-217-65-243-78-9-5-28-13-42-19-65-26-120-54-120-60 0-12 15-29 30-35 12-4 12-6-1-6-14-1-29-20-29-37 0-3 37 14 83 37 45 23 91 45 102 49s34 13 50 20c68 27 200 65 275 79 226 41 357 49 495 31 81-10 99-9 106 2 7 10 9 9 9-4 0-14 9-18 38-20 42-1 51-3 72-11 35-13 69-14 74-1 3 8 10 14 16 14s8-5 5-10c-9-14 13-40 32-40 13 0 13 3 3 15s-10 15 2 15c7 0 21-9 31-20 10-12 22-18 28-14s14 3 18-2c9-14 59-44 72-44 6 0 62-26 125-57 63-32 123-62 134-68 11-5 20-13 20-17 0-5 5-8 10-8 10 0 131-84 179-125 37-30 222-216 254-254 32-39 34-51 9-51-10 0-32 16-48 35s-33 35-37 35c-5 0 5-16 23-36 21-24 28-40 22-46-9-9-38-20-202-78-30-10-80-28-110-40-219-84-230-87-244-70-6 8-20 22-31 30-17 12-16 10 3-11 12-14 22-31 22-37 0-15-36-16-46-1-4 7-11 2-18-12-22-45-45-28-70 54-6 19-46 24-46 5 1-7 7-24 15-38 23-40 19-70-9-70-14 0-26 7-29 18-8 24-52 142-64 172-10 24-10 23-17-12-5-29 0-55 25-118 17-45 29-83 27-85-2-3-14-6-27-7-19-3-26 6-47 62-14 36-32 78-40 93-7 16-14 35-14 43s-5 14-11 14-9-6-6-14 2-16-3-18 2-34 16-73c44-124 43-123 28-135-7-7-18-10-24-8-12 4-70 140-70 164 0 8-9 31-20 51-11 21-20 46-20 56s-7 20-15 23c-8 4-15 10-15 16 0 5 4 6 10 3 17-10-2 29-23 48-11 9-21 17-22 17-7 0 22-110 43-160 43-105 83-223 78-235-12-31-44-16-59 28-9 23-30 80-47 127-18 47-34 95-37 108-5 21-6 21-18 5-14-18-10-70 6-88 5-5 9-15 9-23s6-28 14-45c20-44 46-125 46-142 0-9-10-15-25-15-20 0-26 7-36 40-7 23-18 40-27 40-12 0-12 3-2 15 10 13 10 19-4 33-9 10-16 28-16 39 0 12-6 34-14 50-8 15-22 53-32 83-9 30-20 60-24 65-3 6-12 29-20 53-9 29-19 42-32 42-23 0-23-10 1-68 20-48 50-131 78-214 9-27 22-48 30-48 7 0 13-4 13-10 0-5-4-10-9-10-8 0 6-46 33-111 5-11-1-19-19-27-23-11-26-9-36 16-24 62-42 110-59 162-19 54-60 167-96 263-13 32-24 47-36 47-15 0-17-5-12-27 4-16 12-39 19-53 6-14 20-51 29-82 10-31 23-62 31-68 7-6 11-19 8-29s0-22 6-25c6-4 11-14 11-23 0-8 6-29 14-46 8-18 24-59 35-92 20-56 20-61 4-72-30-23-28-26-73 100-15 38-27 57-38 57-14 0-14 2-3 9s10 19-8 67c-12 33-31 84-41 114s-28 80-39 110c-12 30-21 56-21 57 0 2-9 3-21 3-23 0-22-6 17-104 13-33 24-65 24-72s6-19 13-26c18-18 29-46 34-88 2-18 10-48 18-65 13-30 51-133 62-169 6-18-11-36-33-36-7 0-14 8-17 18-3 9-20 55-37 102s-35 96-39 110c-5 14-29 79-54 145s-48 130-52 143c-6 22-29 30-39 13-3-4 4-32 15-62s29-79 39-109 28-80 40-110 25-66 30-80c4-14 21-60 38-102 21-55 27-79 19-87-26-26-42-10-71 67-51 137-86 236-106 292-35 100-46 130-53 136-4 4-7 16-7 26 0 20-8 22-28 9-11-6-10-16 3-52 9-24 25-71 36-104s24-64 29-69c6-6 10-20 10-32 0-13 5-26 10-29 6-3 10-13 10-22 0-8 6-29 14-46 31-69 59-154 60-182 1-23-4-31-20-33-15-2-23 3-27 20-9 35-51 150-65 175-7 12-12 29-12 37 0 9-4 24-9 34-5 9-21 51-36 92-14 41-33 91-40 110s-16 43-19 53c-4 14-46 26-46 13 0-2 16-46 36-97 19-52 38-103 41-114 5-20 10-34 33-90 7-16 20-55 30-85 18-55 33-96 53-138 9-18 7-25-9-37-28-21-31-19-47 28-16 42-53 144-100 272-14 39-33 93-43 120-23 67-47 115-57 115-17 0-19-33-3-71 9-21 23-58 32-81 9-24 20-51 25-60 5-10 9-24 9-33 0-8 6-29 14-47 26-59 85-222 88-243 3-25-9-45-27-45-13 0-27 34-75 180-12 36-28 79-35 95-31 73-38 93-55 145-10 30-25 70-32 88-12 28-17 31-27 18-10-11-8-29 9-85 12-39 26-74 31-77s9-14 9-25c0-10 4-27 9-37 5-9 17-39 26-67 10-27 23-63 30-80 13-29 54-142 58-158 1-5-8-13-21-18-24-9-27-6-67 101-9 25-21 53-26 62-5 10-9 26-9 36s-7 27-15 38c-8 10-14 26-15 34 0 8-15 56-34 105-19 50-37 99-40 109-6 18-8 18-23 4-13-14-14-21-3-50 34-90 73-199 89-248 11-30 28-75 39-100 30-70 36-116 16-124-10-4-22-2-27 3-9 9-42 97-73 196-9 28-20 58-25 67-11 22-58 154-66 186-6 25-16 28-32 8-9-10-9-21 0-42 24-60 27-70 32-89s35-101 92-250c39-103 39-100 12-112-23-11-25-8-50 58-15 38-27 74-27 81s-7 22-15 32c-8 11-15 28-15 38s-4 26-9 36c-4 9-14 33-21 52-49 142-62 161-68 95-2-20 3-44 12-57 9-12 16-32 16-44 0-11 3-24 7-28 7-6 18-36 53-136 10-30 26-74 35-98 8-24 13-48 10-53-9-13-45-11-49 3-7 22-57 161-73 203-8 22-21 56-28 75-38 103-37 101-51 89-18-15-18-30 0-71 34-76 116-305 116-321 0-11-8-17-25-17-16 0-25 6-25 15s-9 15-21 15c-17 0-19 3-10 13 11 14-5 82-33 137-7 14-21 51-30 82-21 68-32 79-41 39-4-20 3-53 24-107 16-44 32-89 36-101 3-13 10-23 15-23 4 0 10-15 12-32 3-18 7-39 9-46 2-8-6-18-19-23-19-7-24-5-33 19-6 15-19 45-29 67s-21 54-24 70c-4 17-12 42-18 58-8 22-13 25-24 16-16-13-18-45-4-54 6-3 10-17 10-29 0-13 7-29 15-36s15-21 15-31c0-36 25-98 40-102 10-3 7-7-11-16-22-11-30-10-61 11-27 19-32 27-23 34 11 7 11 18-2 57-18 54-28 59-38 20-5-21-2-32 14-44 21-17 29-35 11-24-15 9-12-19 5-41 20-26 20-68 0-60-10 3-15-1-15-13 0-10-7-21-15-25-11-4-15 2-15 24 0 17-5 30-11 30-7 0-10-12-7-30 3-17-1-31-8-34-14-5-34 13-34 31 0 11-4 11-20 1-11-7-20-20-20-28 0-13-2-13-9-1-8 12-14 12-41 1-19-8-29-18-26-26 7-17-20-18-28-1-3 6-4 0-1-15 7-36-31-50-55-20-12 14-21 17-33 11-9-5-42-18-74-29-32-10-96-33-143-50-133-50-120-54-122 36l-2 79-5-85c-5-70-9-85-23-88-16-3-18 7-18 106 0 60 7 147 15 193s19 111 25 144c18 101 20 129 8 142-8 10-6 13 9 13 13 0 23 12 32 38 61 177 193 426 271 510 11 12 20 23 20 26 0 20 276 296 296 296 3 0 17 11 31 24s37 30 52 38c14 7 28 15 31 18s25 18 48 33c24 16 41 31 39 34-3 3-2 15 3 27 17 46-4 50-64 12-31-20-61-36-66-36-6 0-10-4-10-8 0-5-18-18-39-30-22-12-41-26-43-30s-28-26-59-48c-52-39-133-117-205-195-56-63-144-176-144-187 0-6-3-12-8-14-31-13-211-375-212-426 0-10-7-26-15-36-17-22-21-71-5-61 15 9 30-4 23-21-3-10-13-14-25-11-11 3-21 0-22-6-40-148-60-301-61-450v-127l-30-14c-16-7-48-19-70-26s-53-19-70-26c-52-22-232-84-243-84-12 0-27-103-17-119 3-6 2-11-4-11-5 0-10-8-10-17 0-20-5-51-26-168-8-44-19-107-25-139-5-33-10-75-10-93 0-36 7-44 126-148 32-27 76-67 98-88 21-20 41-37 42-37 2 0 22-19 46-41 24-23 62-57 86-77 42-35 43-35 80-19 20 9 64 25 97 37 33 11 87 30 120 42 33 11 62 25 63 29 2 5 12 9 22 9s27 10 37 23 31 27 47 31c26 6 28 5 17-8-10-12-11-16-1-16 7 0 10-7 6-16-5-13-1-15 24-12 26 4 30 1 30-19 0-13-5-23-11-23-8 0-8-5 1-15 14-17 35-21 25-5-3 6-1 10 6 10s9-8 6-21c-6-24 17-54 33-44 5 3 10 2 10-4 0-5-5-11-11-13-15-5 190-198 211-198 5 0 10-4 10-8 0-13 55-41 66-34 15 10 27 62 14 62-5 0-10-4-10-10 0-5-7-10-15-10-9 0-12-6-9-15 4-8 1-15-6-15-8 0-10 9-6 25 4 14 2 25-4 25-5 0-10-5-10-11 0-5-5-7-10-4-12 7 12 35 30 35 7 0-3 12-20 27-18 16-56 49-84 75-28 27-61 51-73 54-14 4-23 14-23 25s-9 23-21 27c-11 5-19 10-17 14 5 8-35 58-47 58s-33 50-28 67c2 6 12 9 22 6s22 0 25 6c4 6 16 11 26 11 11 0 27 11 36 25 15 23 63 38 49 15-8-13-8-13 54 10 30 11 58 25 62 31s11 9 16 6c10-6 97 21 160 49 17 8 37 14 45 14s18 4 23 9c6 5 26 11 45 15 30 5 40 2 66-22 70-63 219-160 231-148 3 3-5 10-18 16-73 32-229 147-229 169 0 15 43 14 57 0 9-9 10-7 6 10-3 11-1 21 5 21s16 2 24 5c13 5 35-33 47-84 3-13 15-29 26-35s23-15 27-21c13-16-4 58-18 80-6 11-15 34-19 51-11 55 45 56 58 1 11-47 58-162 74-179 40-44 41-14 4 82-58 148-59 155-31 170 17 9 21 8 26-7 3-10 10-26 15-35 8-16 33-84 76-211 15-43 46-77 60-63 3 2-5 31-17 63-11 32-30 83-40 114s-23 65-29 75c-5 11-14 34-20 51-9 29-7 34 11 44 23 12 37-2 50-51 3-14 18-56 33-95 15-38 39-103 53-144 25-68 52-104 67-89 3 3-4 32-15 64-12 33-33 91-46 129-14 39-29 79-34 90-18 39-38 110-33 118 2 4 14 7 26 7 18 0 26-10 39-52 9-29 28-84 42-123 14-38 38-106 53-149 27-75 53-110 70-93 4 5-3 36-15 70-96 255-135 368-130 372 2 2 11 5 21 7 20 3 37-23 57-87 7-22 18-53 25-70 7-16 25-64 40-105 24-67 36-100 66-177 5-13 17-23 28-23 17 0 18 4 11 28-14 43-50 144-65 177-7 17-18 48-25 70s-18 53-26 68c-8 16-14 36-14 46 0 9-7 27-16 39-21 30-15 66 12 70 19 3 25-6 42-60 27-82 60-175 77-213 7-16 18-48 25-70s18-53 26-68c8-16 14-36 14-46 0-20 19-41 37-41 17 0 17 35-1 68-7 15-21 50-31 77-16 47-26 76-97 270-36 99-37 108-15 113 24 5 42-20 66-93 11-33 34-98 51-145s40-110 50-140c45-130 48-135 70-138 25-4 25-3-1 68-19 54-25 72-42 115-9 22-24 64-33 93s-20 55-25 58-9 16-9 29-4 27-10 30c-5 3-10 14-10 24s-9 40-21 66c-14 31-18 50-11 57 18 18 44 3 56-32 34-94 99-268 126-340 12-30 29-79 38-107 11-35 22-53 33-53 26 0 28 9 7 63-10 29-26 71-34 94s-28 75-44 115c-17 40-30 80-30 89s-3 19-7 23c-6 6-14 24-49 124-14 41-14 45 3 58 27 20 28 18 46-33 9-27 25-73 37-103s30-80 40-110c33-97 46-129 53-136 4-4 7-18 7-30 0-13 5-26 10-29 6-3 15-26 21-51 8-32 16-44 30-44 23 0 25 27 5 67-8 15-21 51-31 78-9 28-30 86-46 130-17 44-38 105-49 135-10 30-25 72-34 92-20 47-20 64 0 72 22 8 44-11 44-38 0-11 7-30 15-40 8-11 15-29 15-41s3-25 7-29c7-6 18-36 53-136 10-30 33-93 50-140s34-93 37-102c6-19 28-24 37-10 3 5-9 46-25 93-17 46-37 104-46 129-8 25-21 59-29 77-8 17-14 38-14 46 0 9-4 19-10 22-5 3-10 17-10 30s-4 26-9 30c-14 8-43 115-37 131 3 8 14 14 24 14 13 0 21-13 31-47 8-27 19-59 26-73 12-24 22-53 67-185 11-33 27-72 34-87 8-14 14-33 14-42s4-24 9-34c5-9 14-29 20-44 11-30 18-33 40-19 12 8 12 13-2 35-9 14-17 33-17 41 0 9-5 26-12 38-10 18-51 130-88 237-5 14-23 63-39 109-17 46-29 87-26 90s24 5 45 6c23 0 40 5 40 11 0 11 22 24 41 24 5 0 9-7 9-15 0-9 6-18 13-21 7-2 14-17 15-32s8-40 16-57c7-16 21-52 31-80 9-27 30-86 46-130 17-44 37-101 46-127 13-40 18-46 30-36 18 15 14 41-22 133-42 110-84 225-105 287-10 32-23 66-29 76-7 14-5 21 11 31 13 8 24 9 30 3 9-9 65-157 75-200 4-17 11-21 27-17 11 2 15 2 9-1-17-8-16-45 2-80 8-16 15-37 15-46s5-20 10-23c6-3 10-15 10-25 0-20 31-80 41-80 17 0 15 32-6 91-51 147-58 164-66 175-5 6-6 13-3 17 3 3-4 8-17 12-16 6-18 9-8 16 11 6 9 19-10 71-33 88-36 109-20 119 17 11 61 2 72-14 4-7 5 0 2 14-5 22-2 27 16 32 13 4 25 5 26 3 4-4 34-83 65-171 12-33 25-61 29-63 5-2 9-11 9-19 0-9 10-43 22-75 18-51 23-57 35-45 13 12 11 24-11 88-48 138-57 164-67 173-5 6-9 20-9 32 0 13-4 26-10 29-5 3-10 15-10 25s-5 20-11 22c-15 5 17 38 37 38 8 0 17-8 20-17 18-56 28-75 32-62 3 8 9 17 15 20 5 4 5 14-2 27-16 31-13 50 9 62 17 9 22 7 30-15 11-30 56-37 47-7-12 44-11 47 12 50 13 2 27-1 31-8 5-8 11-6 20 5 7 9 9 15 4 13s-9 2-9 7c0 6 19 10 43 9 26 0 42 4 42 12 0 12 35 26 44 17 2-2 0-19-5-36-5-18-9-41-8-52 0-11 8 9 18 44 16 61 17 64 61 78 25 9 48 20 51 25s20 11 37 14 59 16 93 30c35 13 68 24 75 24 6 0 27 11 47 24 21 14 37 20 39 14 3-8 10-8 23 0 11 6 41 19 67 29 27 10 48 23 48 28 0 7 15 9 34 7 28-3 37-10 47-36 7-17 15-35 17-40 3-5 0-6-7-2-6 4-11 3-11-3 0-5 5-11 11-13 8-3 6-10-5-20-10-10-16-33-16-59 0-65-33-275-57-359-34-121-82-250-112-303-11-21-21-46-21-56s-7-21-15-25c-18-6-20-27-3-24 8 2 12-11 13-34 1-36-4-42-32-39-7 1-13-5-13-14s-9-15-25-15c-18 0-29-9-41-33-9-17-23-36-30-40-8-4-14-14-14-22 0-7-3-15-7-17-5-1-26-25-47-52-114-141-336-328-471-396-28-14-52-28-55-31-12-15-236-108-310-129-25-7-58-16-75-22-132-40-232-52-445-52-219 0-266 6-435 51-130 34-292 95-375 142-77 42-95 51-107 51-6 0-13 3-15 8-5 12-76 62-88 62-7 0-9-8-5-19 4-13 0-23-11-29-9-5-14-14-10-21 11-18 26-13 26 8 0 11 5 23 12 27 8 5 9 0 6-14-4-12-2-22 3-22s9-7 9-15c0-27 211-148 218-125 5 14 21 12 38-4 9-10 10-16 2-18-15-5 159-73 257-99 108-29 145-36 320-54 125-13 171-14 275-5 153 15 246 30 370 63 84 22 122 35 195 66 11 5 36 15 55 22s42 18 50 24 31 18 50 25 42 18 50 25c8 6 32 20 53 30 20 11 37 23 37 27 0 5 5 8 11 8 41 0 419 333 419 369 0 6 3 11 8 11 15 0 124 161 118 176-3 8-2 13 3 9 5-3 19 8 31 25 12 16 18 30 13 30-4 0-1 5 7 10 12 7 12 12 2 22-16 16-15 28 3 28 8 0 15 8 15 18 0 13 2 14 9 4 7-11 10-10 15 3 3 9 6 25 6 36 0 10 6 19 14 19 24 0 26 37 2 46-20 6-20 7 5 11 16 2 31 14 38 30 17 37 67 190 79 243 34 146 41 183 47 261 6 77 5 88-10 97-19 10-12 32 10 32 12 0 14 17 13 85-1 47-6 85-10 85s-5-7-2-15c4-8 2-15-4-15-5 0-12 14-14 31-4 23 1 34 16 45 19 13 21 13 24-6 4-23 30-22 80 4 23 12 29 21 25 36-6 23 0 25 28 10 14-8 19-7 19 2 0 8 5 6 11-5 9-16 13-16 37-3 15 8 47 20 72 27 25 6 54 18 66 25 11 7 31 14 45 16 27 3 36 36 58 223 7 55 19 135 27 179 18 99 18 124-1 143-17 17-10 37 11 29 25-9 15 24-13 49-20 16-30 20-35 12s-8-7-8 3c0 15-42 70-53 70-3 0-17 10-30 23-49 47-81 67-91 57-16-16-30-11-16 5 11 14 7 22-29 55-24 22-49 40-57 40s-18 8-21 18c-11 27-36 42-51 30-7-6-16-8-19-4-4 4-1 11 7 16s11 12 7 16c-8 8-71-11-217-65-111-42-200-71-214-71-7 0-27 19-46 42-69 84-162 188-169 188-3 0-27 20-52 43-83 76-162 137-177 137-6 0-12 4-14 8-5 13-133 90-220 132-79 39-126 51-113 29 4-6-2-5-14 3-12 7-21 18-21 24 0 16-38 25-44 10-3-7-9-6-18 5-18 21-56 41-98 50-19 4-64 15-100 23-176 42-421 55-620 31zm974-190c6-17 4-18-18-9-20 8-21 24-2 24 8 0 16-7 20-15zm1386-620c0-8-30-39-33-34-1 2-8 14-14 26-17 29-16 31 5 35 16 3 42-13 42-27zm-130 4c0-6-4-7-10-4-5 3-10 11-10 16 0 6 5 7 10 4 6-3 10-11 10-16zm-199-39c19-5 45-21 57-35 41-47 93-163 143-320 7-22 13-75 13-117 1-68-2-80-24-103-33-35-72-55-108-55-17 0-32-6-36-15-3-8-16-15-29-15s-27-4-32-9c-10-9-38-14-62-12-7 0-13 10-13 22 0 11-6 33-14 47-8 15-21 47-30 72-8 25-29 83-46 130s-39 110-49 140c-19 55-35 96-53 136-20 43-6 67 47 87 162 60 178 63 236 47zm469-120c0-5-4-10-10-10-5 0-10 5-10 10 0 6 5 10 10 10 6 0 10-4 10-10zm-932-71c8-24 19-52 24-62 11-22-3-42-35-50-12-3-40-12-62-20-35-14-40-19-37-43 2-15 8-36 13-45 8-16 12-16 61 3 95 36 91 37 117-37 13-36 21-69 17-72-8-8-72-32-104-40-31-7-38-28-18-58 9-13 16-31 16-39 0-16 13-14 109 23 30 11 57 18 60 16 4-4 51-134 51-141 0-5-137-54-152-54-9 0-19-4-22-9-7-11-98-41-125-41-15 0-21 6-21 21 0 11-6 33-14 47-8 15-21 47-30 72-8 25-24 70-36 100s-30 80-40 110-28 79-38 108c-11 28-16 52-11 52s9 5 9 10c0 6-6 10-13 10-13 0-46 76-36 83 15 10 117 47 131 47 9 0 20 5 23 10 3 6 16 10 28 10 13 0 31 6 42 14 21 14 54 25 69 22 5-1 16-22 24-47zm952 11c0-5-4-10-10-10-5 0-10 5-10 10 0 6 5 10 10 10 6 0 10-4 10-10zm-1423-210c24-64 36-100 106-293 19-54 37-101 41-104 3-4 6-16 6-27 0-12 6-30 14-41 7-11 16-34 20-51 7-29 5-31-36-44-24-7-55-20-70-27-16-7-28-12-28-11 0 2-9 28-21 58-11 30-29 78-39 105-10 28-28 75-40 105s-30 80-40 110c-35 102-62 175-77 208-8 19-13 35-11 38 9 8 124 43 137 41 8-1 25-31 38-67zm-324-57c3-10 14-42 26-71 18-49 18-54 3-58-9-3-33-12-52-19-19-8-45-17-57-20-27-7-31-50-9-80 13-17 15-17 81 8 38 15 71 25 73 22 3-3 16-34 28-70l23-65-42-18c-23-10-54-22-69-25-33-9-34-16-7-87 48-128 57-165 46-176-21-19-120-45-130-35s-21 38-53 131c-8 25-22 59-30 77-8 17-14 38-14 46 0 9-4 19-10 22-5 3-10 15-10 27 0 11-7 32-14 46-8 15-27 63-41 107-15 44-31 88-36 97-23 44-13 55 89 93 53 20 111 42 127 50 42 19 72 18 78-2zm-473-201c7-20 18-50 25-67 7-16 18-48 25-70s18-53 26-68c8-16 14-33 14-39 0-5 6-24 14-41 8-18 22-52 30-77s28-82 44-127l29-82-31-12c-17-6-45-18-63-25-41-18-49-18-56 4-4 9-13 35-22 57s-24 65-35 95c-27 77-72 202-104 285-50 130-58 157-49 166 11 11 126 48 135 43 3-2 12-21 18-42zm1886-89c-3-3-13 0-21 7-13 10-13 15-3 21 13 8 35-17 24-28zm-2175-25c32-90 32-91-12-111-44-21-47-35-23-93 16-37 65-169 84-224 5-14 20-56 34-94 15-39 23-73 19-77-5-3-35-16-68-28-56-21-60-21-72-5-7 10-13 24-13 32s-7 26-15 40c-8 15-21 47-29 72-9 25-29 83-46 130s-38 105-46 130c-20 55-20 55-36 43-7-6-28-13-45-16-30-6-34-4-48 29-8 19-16 45-17 57-2 12-7 28-12 36-11 17-2 22 83 46 39 10 71 23 71 27s6 8 13 8c8 0 40 11 73 25 32 13 66 23 74 22s22-23 31-49zm-671-23c11-13 8-15-15-15s-26 2-15 15c7 8 14 15 15 15s8-7 15-15zm126-145c58-20 103-101 111-197 4-40 1-57-12-70-16-15-15-17 19-31 38-15 63-57 105-176 11-32 28-64 38-71s15-16 12-20c-8-7-107-45-134-51-21-5-20-6-79 138-16 37-34 72-41 78-12 10-45 4-45-9 0-11 18-64 49-146 17-44 31-83 31-86 0-4-15-12-32-19-18-7-43-17-56-23-39-19-59 1-96 98-21 57-95 258-122 335-13 36-32 88-42 116-19 49-19 51-1 62 10 7 24 12 30 12s25 7 42 14c48 22 149 54 173 55 12 1 34-4 50-9zm2104-40c0-5-7-10-15-10s-15 5-15 10c0 6 7 10 15 10s15-4 15-10zm-2420-10c0-5-4-10-10-10-5 0-10 5-10 10 0 6 5 10 10 10 6 0 10-4 10-10zm-260-80c0-5-4-10-10-10-5 0-10 5-10 10 0 6 5 10 10 10 6 0 10-4 10-10zm113-18-22-17 20-59c11-32 17-62 12-67-9-8-85-37-120-46-13-3-23-8-23-12 1-18 30-86 37-84 4 1 37 13 71 25 63 22 64 22 78 3 8-10 14-27 14-37s8-30 17-45c16-24 16-26-2-39-10-8-24-14-31-14-6 0-32-9-57-20l-45-20 17-45c12-35 21-45 38-45 12 0 24 4 28 9 3 5 20 13 37 17 18 3 40 11 49 17 22 14 49-7 49-37 0-12 7-31 15-42 8-10 15-28 15-39 0-22-13-29-120-65-30-10-80-28-110-39-30-12-60-21-66-21s-18 21-27 48c-26 75-91 254-137 372-68 178-73 210-32 210 12 0 11 4-2 25-18 28-21 45-6 45 6 0 10-9 10-19 0-14 5-18 20-14 16 4 19 2 14-11-6-15-3-15 22-5 16 6 38 15 49 19 11 5 32 11 48 14 15 4 27 13 27 21 0 11 7 14 25 9 15-4 32-1 40 6s15 9 15 6c0-4 8-2 18 3 28 17 39 12 15-7zm37-32c0-5-4-10-10-10-5 0-10 5-10 10 0 6 5 10 10 10 6 0 10-4 10-10zm-820-70c0-5-4-10-10-10-5 0-10 5-10 10 0 6 5 10 10 10 6 0 10-4 10-10zm2750-50c0-5-4-10-10-10-5 0-10 5-10 10 0 6 5 10 10 10 6 0 10-4 10-10zm-2856-51c-7-11-64-12-64-1 0 4 16 8 35 9s32-3 29-8zm342-9c44-17 104-98 104-140 0-9 5-21 12-28 17-17 2-28-67-50l-60-19-22 51c-14 35-28 52-42 54-34 5-29-50 16-173 39-104 46-121 54-137 5-10 9-23 9-30 1-20 36-58 54-58 22 0 21 42-3 108-18 49-18 54-3 59 9 2 38 13 64 24 26 10 49 19 52 19 18 0 39-84 40-161 1-92-13-131-40-108-8 6-14 8-15 3s-2-18-3-29c-1-14-9-21-31-23-16-2-34-8-40-13-5-5-35-9-66-9-52 0-60 3-90 35-19 19-41 49-50 67-32 63-49 106-49 121 0 9-4 19-10 22-5 3-10 15-10 25s-6 31-14 47c-25 49-38 108-40 177 0 36-5 66-11 66-5 0 4 11 20 25 17 13 37 31 46 40 9 8 22 15 30 15s19 4 25 9c19 19 101 25 140 11zm-258-25c16-35 15-45-4-45-10 0-14 6-11 15 4 8 2 17-3 20-12 8-13 35-2 35 5 0 14-11 20-25zm-91-37c-3-7-5-2-5 12s2 19 5 13c2-7 2-19 0-25zm2513-6c0-13-12-22-22-16s-1 24 13 24c5 0 9-4 9-8zm-2599-26c5 3 9 0 9-6 0-15-23-7-26 8-1 7 0 8 3 2 2-5 9-8 14-4zm19-180c0-6-5-5-12 2-18 18-28 14-28-10-1-21-1-22-11-5-8 14-7 23 7 38 17 19 19 19 31 3 7-10 13-22 13-28zm120 4c0-5-8-10-17-10-15 0-16 2-3 10 19 12 20 12 20 0zm-180-20c0-5-7-7-15-4-8 4-12 10-9 15 6 11 24 2 24-11zm845-160c3-5-3-10-14-10-12 0-21 5-21 10 0 6 6 10 14 10s18-4 21-10zm-565-14c0-3-4-8-10-11-5-3-10-1-10 4 0 6 5 11 10 11 6 0 10-2 10-4zm3550-56c0-5-5-10-11-10-5 0-7 5-4 10 3 6 8 10 11 10 2 0 4-4 4-10zm-3136-179c7-11-22-23-35-15-5 3-7 10-4 15 8 12 32 12 39 0zm-147-56c-20-19-33-20-17 0 7 8 9 15 4 15s-2 5 6 10c21 13 26-6 7-25zm-210-87c-3-8-6-5-6 6-1 11 2 17 5 13 3-3 4-12 1-19zm78-18c3-5-1-10-9-10-9 0-16 5-16 10 0 6 4 10 9 10 6 0 13-4 16-10zm-35-18c0-5-11-14-25-20-22-10-25-9-25 8 0 15 7 20 25 20 14 0 25-4 25-8zm986-369c-10-10-19 5-10 18 6 11 8 11 12 0 2-7 1-15-2-18z"/>
        <path d="m4885 3220c3-5 8-10 11-10 2 0 4 5 4 10 0 6-5 10-11 10-5 0-7-4-4-10z"/>
        <path d="m4504 3034c-8-3-2-32 18-87 16-45 38-107 48-137 41-117 48-135 59-134 6 1 16 2 21 3 28 4 3 109-67 281-7 19-16 43-20 53-3 9-9 17-13 17-5 0-14 2-22 4-7 3-18 2-24 0z"/>
        <path d="m1920 2088c0-16 22-77 36-102 7-12 18-17 28-13 21 8 22 75 0 105-16 23-64 31-64 10z"/>
        <path d="m1661 1523c0-5 4-17 9-28 8-19 9-19 9 2 1 12 9 24 19 26 10 3 6 5-10 6-16 0-28-2-27-6z"/>
        <path d="m960 1290c0-5 5-10 10-10 6 0 10 5 10 10 0 6-4 10-10 10-5 0-10-4-10-10z"/>
        <path d="m2540 3907c-87-16-44-18 55-3 62 10 76 14 45 14-25 0-70-5-100-11z"/>
        <path d="m2955 3911c123-21 131-22 107-11-12 5-53 12-90 14-61 5-62 4-17-3z"/>
        <path d="m2400 3880-25-8h25c14 0 34 3 45 8l20 9-20-1c-11 0-31-4-45-8z"/>
        <path d="m3138 3883c7-3 16-2 19 1 4 3-2 6-13 5-11 0-14-3-6-6z"/>
        <path d="m2305 3855c-41-18-7-19 36 0 23 10 28 14 14 14-11 0-33-6-50-14z"/>
        <path d="m3225 3860c28-12 37-12 30 0-3 6-16 10-28 9-21 0-21-1-2-9z"/>
        <path d="m2230 3830c-13-9-13-10 0-10 8 0 22 5 30 10 13 9 13 10 0 10-8 0-22-5-30-10z"/>
        <path d="m3330 3830c8-5 20-10 25-10 6 0 3 5-5 10s-19 10-25 10c-5 0-3-5 5-10z"/>
        <path d="m2156 3805c-14-11-16-15-5-15 8 0 23 7 33 15 14 11 16 15 5 15-8 0-23-7-33-15z"/>
        <path d="m3404 3806c11-9 24-16 30-16 12 0 7 5-24 19-24 11-24 11-6-3z"/>
        <path d="m2088 3774c-16-8-28-17-28-19 0-7 60 17 66 26 8 13-7 10-38-7z"/>
        <path d="m3470 3775c14-8 30-14 35-14 6 0-1 6-15 14s-29 14-35 14c-5 0 1-6 15-14z"/>
        <path d="m3525 3750c3-5 11-10 16-10 6 0 7 5 4 10-3 6-11 10-16 10-6 0-7-4-4-10z"/>
        <path d="m3574 3725c11-8 24-15 30-15 5 0 1 7-10 15-10 8-23 14-29 14-5 0-1-6 9-14z"/>
        <path d="m1968 3717c-16-6-28-14-28-19 0-8 48 10 65 24 12 11-3 9-37-5z"/>
        <path d="m2923 3724c-7-3-9-13-6-21 5-12 2-15-9-10-9 3-19 3-22-1-4-3-29-5-57-3-39 2-50-1-46-11 2-7 14-12 26-11 15 2 21-2 19-11-2-8 5-21 14-28 15-12 15-17-8-62-13-27-22-51-20-53 2-3 22 7 45 21 50 32 58 32 87 1 13-14 27-25 33-25 5 0 12-6 14-12 3-7 3 3 0 22s-11 49-18 66c-12 29-12 31 7 26 14-3 21 1 25 17 3 12 11 20 18 17 6-2 18 0 26 5 10 6 11 9 2 10-7 1-17 3-23 4-5 1-23 3-39 4-23 1-31 7-40 31-5 17-11 30-13 29-2 0-8-3-15-5zm1-60c9-24 7-27-9-10-17 17-19 26-6 26 5 0 12-7 15-16z"/>
        <path d="m3635 3696c11-8 25-19 30-23 6-4 27-17 48-28 20-11 37-22 37-25s16-14 35-24c19-11 35-23 35-28 0-4 6-8 12-8 7 0 1 11-14 25s-30 25-33 25c-4 0-21 11-38 24-37 27-142 86-112 62z"/>
        <path d="m1900 3680c-8-5-11-12-7-16s15 0 24 9c18 18 8 23-17 7z"/>
        <path d="m2250 3642c0-56-3-58-85-88-15-5-3-10 44-20 48-10 67-11 77-3 26 21 15-16-11-41-18-17-25-34-25-59v-36l20 25c11 14 28 36 39 50l19 25 48-18c26-9 49-15 52-13 2 3-10 22-27 44-20 24-29 45-25 55 4 11 0 19-11 23-9 4-14 13-11 20 4 11-1 13-19 8-14-3-25-2-25 2-1 5-14 25-30 44l-30 34v-52z"/>
        <path d="m1827 3629c-26-17-47-33-47-35 0-7 52 23 80 45 38 31 20 25-33-10z"/>
        <path d="m2387 3633c-4-3-7-15-7-25 0-22 15-16 30 13 8 14 7 19-3 19-8 0-17-3-20-7z"/>
        <path d="m1738 3565c-15-14-30-25-34-25-9 0-244-236-244-245 0-4 48 42 108 102 59 60 128 124 155 143 26 18 47 37 47 42 0 12-2 11-32-17z"/>
        <path d="m3547 3545c-45-42-55-43-107-10-22 14-40 23-40 20s9-25 20-47c27-56 26-61-17-97l-38-30 56-1c56 0 56 0 72-40 8-22 20-40 25-40 11 0 22 33 22 66 0 25 18 34 64 34 48 0 51 11 9 34-32 18-39 28-41 58-2 21 2 47 8 58 18 34 7 32-33-5z"/>
        <path d="m3850 3556c0-8 64-65 68-61s-23 33-50 54c-10 7-18 11-18 7z"/>
        <path d="m4e3 3415c41-41 75-73 77-71 4 4-137 146-145 146-4 0 27-34 68-75z"/>
        <path d="m4818 3438c9-9 15-9 24 0s7 12-12 12-21-3-12-12z"/>
        <path d="m4860 3416c0-7 28-37 63-67 34-29 64-57 67-60 3-4 12-9 20-11s19-12 25-23 21-21 33-23 22-9 22-15c0-18 68-69 75-57 6 10-4 20-102 105-32 28-68 60-81 73-13 12-25 22-28 22s-21 16-41 35c-38 37-53 43-53 21z"/>
        <path d="m2757 3363c18-2 50-2 70 0 21 2 7 4-32 4-38 0-55-2-38-4z"/>
        <path d="m1806 3321-39-40-45 25c-24 14-46 23-49 21-5-6 19-60 31-68 5-4 6-16 3-28-6-25 9-27 33-6 17 16 50 11 50-7 0-5 4-7 9-3 5 3 12 1 16-5 3-5-1-10-9-10-9 0-16-4-16-10 0-5-4-10-10-10-5 0-10 6-10 14 0 19-27 28-34 10-6-16 2-44 14-44 4 0 15-20 26-45 10-25 21-45 25-45s11 25 14 55c6 45 11 55 26 55 11 0 19 5 19 11 0 5 4 7 10 4 15-9-2 28-18 41-11 8-14 25-10 67 3 32 4 57 3 57l-39-39z"/>
        <path d="m2572 3350c-45-10-56-25-12-15 111 24 108 23 75 23-16 0-45-4-63-8z"/>
        <path d="m2955 3349c22-5 56-11 75-14l35-5-40 14c-22 8-56 14-75 14h-35l40-9z"/>
        <path d="m2460 3320c-13-9-13-10 0-10 8 0 22 5 30 10 13 9 13 10 0 10-8 0-22-5-30-10z"/>
        <path d="m3095 3320c11-5 27-9 35-9 9 0 8 4-5 9-11 5-27 9-35 9-9 0-8-4 5-9z"/>
        <path d="m2380 3295c-14-8-19-14-10-14 8 0 26 6 40 14s19 14 10 14c-8 0-26-6-40-14z"/>
        <path d="m2924 3274c6-19 23-50 38-67l27-32 1 25c0 45-33 110-56 110-19 0-20-3-10-36z"/>
        <path d="m3174 3295c11-8 25-15 30-15 6 0 2 7-8 15-11 8-25 15-30 15-6 0-2-7 8-15z"/>
        <path d="m1427 3255c-10-14-14-25-9-25 6 0 17 11 26 25 21 32 7 32-17 0z"/>
        <path d="m2320 3270c-13-8-13-10 2-10 9 0 20 5 23 10 8 13-5 13-25 0z"/>
        <path d="m2228 3227c-32-17-58-35-58-39 0-8 104 46 125 64 18 16-10 6-67-25z"/>
        <path d="m3140 3243c0-10 5-25 10-33 8-12 10-11 10 8 0 12 0 25 1 29 0 4-4 9-10 11s-11-5-11-15z"/>
        <path d="m1382 3190c-13-16-19-30-14-30 4 0 16 14 25 30 10 17 16 30 14 30s-13-13-25-30z"/>
        <path d="m3384 3201c7-11 46-35 46-28 0 3-12 12-26 22-15 9-23 12-20 6z"/>
        <path d="m1671 3187c-19-19-12-27 24-27 25 0 33 4 29 14-7 19-40 26-53 13z"/>
        <path d="m2128 3164c-16-8-28-17-28-19 0-10 16-4 40 15 30 23 25 25-12 4z"/>
        <path d="m3447 3159c7-7 15-10 18-7s-2 9-12 12c-14 6-15 5-6-5z"/>
        <path d="m1347 3143c-78-134-117-207-115-215 2-6 15 12 28 38 14 27 42 78 63 113s36 65 34 68c-3 2-7 1-10-4z"/>
        <path d="m5180 3142c0-4 7-17 15-29 15-21 7-101-40-403-28-180-29-201-11-194 17 6 19 15 41 184 8 63 19 140 24 170s15 97 22 149l12 93-24 19c-26 20-39 24-39 11z"/>
        <path d="m3375 3130c3-5 8-10 11-10 2 0 4 5 4 10 0 6-5 10-11 10-5 0-7-4-4-10z"/>
        <path d="m3491 3121c13-11 26-17 29-14 6 6-30 33-43 33-5 0 1-9 14-19z"/>
        <path d="m2030 3085c-59-58-48-58 16 0 27 25 44 45 39 45-6-1-30-21-55-45z"/>
        <path d="m1905 2960c-3-5-1-10 4-10 6 0 11 5 11 10 0 6-2 10-4 10-3 0-8-4-11-10z"/>
        <path d="m1834 2868c-46-70-94-153-94-163 0-13 27 21 34 42 4 12 31 57 61 102s51 81 47 81-26-28-48-62z"/>
        <path d="m1217 2903c-4-3-7-11-7-17s5-5 12 2c6 6 9 14 7 17-3 3-9 2-12-2z"/>
        <path d="m1192 2845c-6-14-7-25-2-25 9 0 25 39 18 46-3 2-10-7-16-21z"/>
        <path d="m1424 2800c-14-43-23-59-34-55-8 2-32 7-53 11-32 5-36 4-31-10 3-9 9-16 13-16 3-1 18-11 33-23l28-23-20-54c-11-30-20-56-20-57 0-2 22 13 48 32l49 35 33-25c19-14 37-30 41-37 14-22 23 1 11 27-7 14-12 39-12 55 0 24 8 34 40 52 22 13 40 26 40 31 0 4-24 7-54 7-52 0-55 1-65 31-6 18-11 40-11 50 0 40-18 25-36-31z"/>
        <path d="m1165 2770c-4-12-5-24-2-27 3-2 8 5 12 17s5 24 2 27c-3 2-8-5-12-17z"/>
        <path d="m1140 2690c-7-17-10-33-8-36 3-3 11 9 17 27 14 42 7 49-9 9z"/>
        <path d="m1726 2675c-9-26-7-32 5-12 6 10 9 21 6 23-2 3-7-2-11-11z"/>
        <path d="m1702 2615c-7-14-12-31-12-38 1-7 7 3 16 22 17 39 13 54-4 16z"/>
        <path d="m1114 2596c-3-21-4-39-1-42 2-3 8 11 11 32 4 20 5 38 2 41-2 3-8-11-12-31z"/>
        <path d="m1677 2546c-4-10-7-25-6-34 0-11 4-9 10 7 5 13 8 29 6 35-2 5-6 2-10-8z"/>
        <path d="m1092 2476c-6-33-12-73-11-90 1-19 6-4 15 39 8 39 13 79 11 90-1 11-8-7-15-39z"/>
        <path d="m1645 2420c-4-12-5-24-2-27 3-2 8 5 12 17s5 24 2 27c-3 2-8-5-12-17z"/>
        <path d="m4610 2346c0-9 5-16 10-16 6 0 10 4 10 9 0 6-4 13-10 16-5 3-10-1-10-9z"/>
        <path d="m1471 2271c-8-6-9-11-3-15 6-3 14-1 17 5 9 14 2 20-14 10z"/>
        <path d="m4502 2240c0-19 2-27 5-17 2 9 2 25 0 35-3 9-5 1-5-18z"/>
        <path d="m4503 2130c0-36 2-50 4-32 2 17 2 47 0 65-2 17-4 3-4-33z"/>
        <path d="m4485 1990c-4-28-5-54-2-56 3-3 8 18 12 46s5 54 2 56c-3 3-8-18-12-46z"/>
        <path d="m3823 1938c-1-22 3-50 9-62 11-20 11-20 20 3 9 24-7 101-20 101-4 0-8-19-9-42z"/>
        <path d="m3907 1921c-4-17-3-21 5-13 5 5 8 16 6 23-3 8-7 3-11-10z"/>
        <path d="m3740 1916c0-8-6-17-12-19-8-3-5-6 6-6 12-1 16-6 13-16-7-17 11-31 22-19 10 11-6 74-19 74-6 0-10-6-10-14z"/>
        <path d="m422 1888c-12-15-34-176-26-189 3-5-2-19-10-31-20-29-21-88-2-88 10 0 17 25 26 88 7 48 18 114 26 147 16 71 17 85 5 85-5 0-13-6-19-12z"/>
        <path d="m4466 1864c-4-20-5-38-2-41 2-3 8 11 12 31 3 21 4 39 1 42-2 3-8-11-11-32z"/>
        <path d="m3880 1830c-7-17-10-33-8-36 3-3 11 9 17 27 14 42 7 49-9 9z"/>
        <path d="m3774 1825c-7-30 3-95 15-95 15 0 21 45 10 83-12 44-16 46-25 12z"/>
        <path d="m3473 1833c-13-5-7-61 8-77 5-6 9-16 9-24s6-28 14-45c8-18 21-52 30-77 24-71 55-152 60-157 3-3 10-2 16 2 16 10 8 44-30 140-17 44-34 91-37 105s-9 30-13 35c-4 6-10 23-14 39-9 38-28 64-43 59z"/>
        <path d="m4069 1833c-16-4-25-18-47-75-10-24-8-27 21-38 67-25 103-38 142-50 22-7 45-15 51-17 11-4 44 58 44 82 0 23-62 63-130 85-34 11-63 19-64 19 0-1-8-3-17-6zm53-42c13-5 42-15 65-21 43-13 59-34 48-62-5-13-12-14-38-5-51 16-69 23-111 41-37 16-38 17-21 36 20 23 25 23 57 11z"/>
        <path d="m3675 1783c8-52 50-163 60-160 33 11-2 137-38 137-14 0-16 4-7 19 13 26 13 31-5 31-10 0-13-8-10-27z"/>
        <path d="m4441 1766c-7-26-11-49-8-52 7-8 29 63 25 82-2 9-9-4-17-30z"/>
        <path d="m3190 1743c1-33 21-63 43-63 14 0 14 5 3 42-14 52-46 66-46 21z"/>
        <path d="m3831 1712c-17-31-13-40 5-14 9 13 14 26 11 29-3 2-10-4-16-15z"/>
        <path d="m4415 1680c-4-12-5-24-2-27 3-2 8 5 12 17s5 24 2 27c-3 2-8-5-12-17z"/>
        <path d="m3805 1659c-4-6-5-12-2-15 2-3 7 2 10 11 7 17 1 20-8 4z"/>
        <path d="m3225 1643c4-10 13-38 21-63s19-54 25-65c5-11 13-33 19-50 17-57 68-197 73-202 3-3 10-2 16 2 12 7 15 58 4 69-7 6-19 39-49 126-8 25-22 59-30 77-8 17-14 36-14 42 0 26-36 81-54 81-13 0-16-5-11-17z"/>
        <path d="m3782 1618c-7-7-12-16-12-21s7-1 16 8 14 18 12 20c-2 3-10-1-16-7z"/>
        <path d="m4392 1610c-7-11-12-25-12-32 1-7 8 0 16 15 18 33 14 46-4 17z"/>
        <path d="m3750 1571c0-24-147-188-229-254-18-15-32-30-29-32 6-6 69 48 137 117 63 63 147 178 131 178-5 0-10-4-10-9z"/>
        <path d="m3897 1515c-15-23-27-46-27-51s14-15 30-22c17-8 36-19 43-25 6-7 29-21 50-32 20-11 37-22 37-26 0-6 51-32 54-27 1 2 14 23 30 47 22 34 25 45 15 52-15 9-29 3-29-12 0-11-25-39-35-39-4 0-13 6-21 14-7 8-19 16-25 18-8 3-7 13 4 35 14 27 14 33 2 43-11 9-17 6-29-18-12-22-21-29-35-25-36 9-45 30-27 58 19 30 20 41 3 48-8 3-24-13-40-38z"/>
        <path d="m4366 1544c-4-9-4-19-1-22 2-3 7 3 11 12s4 19 1 22c-2 3-7-3-11-12z"/>
        <path d="m354 1488c-4-13-1-24 7-29s9-9 4-9c-13 0-40-114-31-135 3-8 17-15 30-15 16 0 24-5 21-13-3-7 15-30 41-52 25-22 65-58 88-80 22-22 70-65 104-95 35-30 82-72 104-92 40-37 58-45 71-32 7 8-17 34-32 34-6 0-11 4-11 8s-41 43-91 86c-49 43-102 90-117 105-15 14-62 57-105 95-75 67-78 71-73 105 4 20 7 52 8 71s5 40 10 46c5 7 3 14-6 17-9 4-17-2-22-15z"/>
        <path d="m4331 1467c-28-65-26-72 4-18 14 24 24 49 22 55-3 6-14-11-26-37z"/>
        <path d="m4295 1390c-3-5-1-10 4-10 6 0 11 5 11 10 0 6-2 10-4 10-3 0-8-4-11-10z"/>
        <path d="m3720 1289c0-18 124-139 138-134 7 2 12-4 12-15 0-23 13-32 35-24 13 5-2 25-72 95-82 83-113 104-113 78z"/>
        <path d="m3422 1244c-30-20-51-39-47-42 3-4 9-2 13 3 4 6 26 23 50 38 36 23 50 37 39 37-1 0-26-16-55-36z"/>
        <path d="m4202 1245c-12-14-22-28-22-32 0-3-8-15-17-25-13-15-14-18-2-13 8 3 23 20 34 38 10 18 23 35 29 39s8 9 5 12-15-5-27-19z"/>
        <path d="m3305 1179c-22-11-71-34-110-50-38-15-64-29-57-29 19 0 135 47 185 76 51 29 38 31-18 3z"/>
        <path d="m2284 1165c11-8 24-15 30-15 5 0 1 7-10 15-10 8-23 14-29 14-5 0-1-6 9-14z"/>
        <path d="m4112 1125c-17-20-32-38-32-40 0-4-115-117-200-195-34-32-37-37-13-20 64 42 304 290 282 290-2 0-19-16-37-35z"/>
        <path d="m1446 1135c4-8 8-15 10-15s4 7 4 15-4 15-10 15c-5 0-7-7-4-15z"/>
        <path d="m2344 1135c11-8 27-15 35-15 10 1 7 6-9 15-33 19-50 18-26 0z"/>
        <path d="m3509 1122-36-28 59-89c32-49 58-92 58-96 0-13 34-19 44-8 8 8 8 13-1 16-7 3-13 10-13 18 0 7-7 18-15 25-23 19-18 45 10 58 14 6 25 16 25 21 0 17-33 21-56 6-22-14-24-14-40 11-17 25-17 26 11 48 16 13 25 28 21 34-11 18-27 14-67-16z"/>
        <path d="m2410 1110c8-5 22-10 30-10 13 0 13 1 0 10-8 5-22 10-30 10-13 0-13-1 0-10z"/>
        <path d="m1480 1104c0-13 38-59 44-53 2 2-7 18-20 34-13 17-24 25-24 19z"/>
        <path d="m2029 1068c-42-48-82-136-75-164 13-49 87-57 114-13 19 30 0 49-26 26-24-22-52-22-52-1 0 22 41 104 52 104 4 0 8 5 8 11 0 19 30 41 46 35 12-5 15-14 11-35-7-35 17-51 33-21 40 75-54 124-111 58z"/>
        <path d="m2490 1085c19-7 44-13 55-13 13 0 7 5-15 13-19 7-44 13-55 13-13 0-7-5 15-13z"/>
        <path d="m3077 1094c-3-4-21-10-39-14-27-7-29-8-8-9 27 0 95 27 69 28-9 1-18-2-22-5z"/>
        <path d="m2610 1060c14-4 48-8 75-8l50 1-45 8c-25 4-58 7-75 7-29 0-29 0-5-8z"/>
        <path d="m2895 1060-40-7 45-1c25 0 56 4 70 8 24 8 24 8-5 8-16-1-48-4-70-8z"/>
        <path d="m1540 1033c0-6 30-37 66-69 36-33 72-65 80-73 35-32 134-100 134-91 0 5-10 15-22 21-13 7-25 15-28 18s-23 20-45 36-73 61-112 99c-40 38-73 64-73 59z"/>
        <path d="m3260 982c0-10 4-22 8-27 11-13 72-170 72-185 0-6 8-10 18-8 20 5 19 34-4 87-9 20-19 45-24 56-25 66-41 95-55 95-8 0-15-8-15-18z"/>
        <path d="m2326 923c-18-52-44-135-53-170-4-19 0-23 33-29 22-3 47-11 57-16 13-7 17-5 17 12 0 11-6 21-12 21-47 5-57 7-67 13-15 10-9 31 10 31 8 0 15 10 17 23 3 20 7 21 43 16 32-5 39-4 39 10 0 10-13 21-30 27-32 12-36 20-20 49 8 15 18 17 50 13 32-5 40-2 40 10 0 16-48 37-85 37-18 0-26-10-39-47z"/>
        <path d="m3e3 921c-32-4-46-11-48-23-3-13 3-18 22-18 27 0 25 5 41-105 9-62 26-106 38-102 13 4 11 69-4 120-5 17-9 49-9 69 0 32 3 38 21 38 12 0 19 5 17 13-6 15-19 16-78 8z"/>
        <path d="m2630 833c0-44-3-101-6-127-6-42-5-46 15-46 19 0 21 6 21 49 0 52 8 65 34 55 12-5 16-20 16-60 0-47 2-54 20-54 17 0 20 7 20 46 0 25-5 54-10 65-8 15-7 23 5 35 16 16 20 70 6 92-4 7-33 16-64 19l-57 6v-80zm86 22c11-26-5-65-26-65-25 0-29 8-23 48 4 23 10 32 24 32 11 0 22-7 25-15z"/>
        <path d="m3810 835c-7-8-18-15-25-15s-15-6-18-14c-5-11 0-11 23 2 17 9 32 23 35 30 6 16 0 15-15-3z"/>
        <path d="m1845 774c36-28 61-36 30-10-16 14-34 26-40 26-5-1-1-8 10-16z"/>
        <path d="m3705 765c-16-13-25-24-19-25 6 0 17 7 24 15s19 15 26 15c8 0 14 5 14 10 0 16-13 12-45-15z"/>
        <path d="m1924 725c11-8 27-15 35-15 9 0 3 7-13 15-36 19-47 19-22 0z"/>
        <path d="m3645 731c-6-6-43-26-84-46-40-20-71-38-68-41 6-6 176 79 177 89 0 10-14 9-25-2z"/>
        <path d="m2001 686c12-11 128-66 140-66 8 1-17 16-56 35-62 30-96 43-84 31z"/>
        <path d="m3445 630c-8-13 5-13 25 0 13 8 13 10-2 10-9 0-20-4-23-10z"/>
        <path d="m2170 611c0-8 41-23 47-17 2 1-8 8-22 14s-25 8-25 3z"/>
        <path d="m3376 605c-15-11-16-15-5-15 8 0 24 7 35 15 14 11 15 14 4 14-8 0-24-6-34-14z"/>
        <path d="m2240 580c8-5 24-10 35-10 17 0 17 2 5 10-8 5-24 10-35 10-17 0-17-2-5-10z"/>
        <path d="m3305 580c-19-8-19-9 2-9 12-1 25 4 28 9 7 12-2 12-30 0z"/>
        <path d="m2329 555c18-8 43-15 55-15 13 1 7 6-19 15-52 19-80 19-36 0z"/>
        <path d="m3215 555c-23-11-25-14-10-14 11 0 34 6 50 14 23 10 25 13 10 13-11 0-33-6-50-13z"/>
        <path d="m2435 530c3-5 18-10 33-9 24 0 25 1 7 9-28 12-47 12-40 0z"/>
        <path d="m3105 530c-18-8-18-9 5-9 14 0 34 4 45 9 18 8 18 9-5 9-14 0-34-4-45-9z"/>
        <path d="m2550 509c64-19 367-22 445-5l70 15-75-7c-96-9-293-9-395 0-61 5-72 5-45-3z"/>
    </g>
</svg>
