<?xml version="1.0" encoding="UTF-8"?>
<!DOCTYPE svg  PUBLIC '-//W3C//DTD SVG 1.1//EN'  'http://www.w3.org/Graphics/SVG/1.1/DTD/svg11.dtd'>
<svg clip-rule="evenodd" fill-rule="evenodd" stroke-linejoin="round" stroke-miterlimit="2" version="1.1" viewBox="0 0 2664 3408" xml:space="preserve" xmlns="http://www.w3.org/2000/svg">
    <g fill-rule="nonzero">
        <path d="m1397 415.77c-54.54-31.087-101.64-102.36-101.64-184.17 0-80.365 26.52-128.04 42.56-171.27 13.09-35.282 15.2-56.597 23.14-57.433 12.08-0.492 54.54 27.271 88.62 107.84 34.09 80.572 42.15 177.26 42.15 177.26l-94.83 127.77z" fill="#ffa659"/>
        <path d="m1354.8 37.187c3.56-17.147 6.25-34.295 27.53-24.068-9.58-7.296-17.18-10.394-21.28-10.227-7.94 0.836-10.05 22.151-23.14 57.433-16.04 43.228-42.56 90.902-42.56 171.27 0 28.646 5.87 55.942 15.71 80.732-23.15-163.99 22.25-176.29 43.74-275.14z" fill="#f49758"/>
        <path d="m1449.7 110.73c-18.83-44.506-40.2-72.874-57.61-89.292 73.52 108.5 33.03 227.3 71.87 297.54l27.89-30.989s-8.06-96.687-42.15-177.26z" fill="#ea8b44"/>
        <path d="m1361.4 5.364c-0.1 0-0.2 2e-3 -0.29 5e-3 -3.29 0.351-6.35 10.476-10.22 23.297-2.65 8.796-5.96 19.746-10.7 32.523-2.88 7.768-6.06 15.586-9.43 23.861-15.45 37.983-32.97 81.039-32.97 146.54 0 84.625 50.69 152.66 98.49 180.92l92.95-125.24c-0.95-10.108-10.11-100.47-41.88-175.57-32.28-76.294-73.64-106.34-85.95-106.34zm36.23 413.64-1.91-1.087c-51.21-29.196-102.89-98.132-102.89-186.33 0-66.474 17.71-110 33.34-148.41 3.35-8.239 6.52-16.02 9.37-23.716 4.69-12.633 7.97-23.501 10.61-32.234 5.08-16.826 7.88-26.096 14.6-26.803 11.91-0.511 55.29 24.539 91.17 109.34 33.85 80.013 42.25 177.05 42.33 178.02l0.08 0.933-96.7 130.29z" fill="#49210d"/>
        <path d="m1367.2 54.335c19.22 39.046 14.26 114.35 10.54 159.44-3.72 45.088-26.29 110.99-3.54 146.11-34.89-29.749-48.84-109.98-45.42-155.57 5.57-74.382 40.9-118.38 38.42-149.99z" fill="#f98b8c"/>
        <path d="m1378.2 94.555c-2.15-15.277-5.59-29.215-11.01-40.22 2.48 31.609-32.85 75.604-38.42 149.99-3.16 42.062 8.49 113.59 37.72 147.77-26.51-84.437-31.47-178.03 11.71-257.54z" fill="#e45c63"/>
        <path d="m1369.2 65.672c-1.72 11.73-6.78 24.886-12.79 40.489-9.84 25.537-22.07 57.318-25.15 98.347-2.97 39.635 7.84 107.86 34.38 142.59-8.08-26.017-1.91-61.165 3.64-92.786 2.56-14.613 4.98-28.418 6-40.737 2.67-32.422 8.65-104.95-6.08-147.9zm16.33 307.12-12.92-11.016c-35.64-30.386-49.79-111.07-46.3-157.64 3.13-41.759 15.52-73.917 25.47-99.757 7.83-20.331 14.02-36.392 12.96-49.851l-1.01-12.885 5.71 11.597c18.24 37.085 15.34 105.38 10.78 160.74-1.04 12.546-3.48 26.457-6.06 41.187-6.48 36.913-13.81 78.754 2.13 103.37l9.24 14.25z" fill="#49210d"/>
        <path d="m1411.1 397.1c-0.95-0.611-23.4-15.149-38.8-35.723l3.97-2.973c14.85 19.84 37.28 34.379 37.51 34.521l-2.68 4.175z" fill="#49210d"/>
        <path d="m1921.7 579.29c62.42-12.782 115.33 0 145.26 72.721s103.48 134.29 105.96 144.2-54.54 25.411-93.59 13.635c29.13 36.567 48.97 91.728 54.75 156.18 6.1 67.955-9.09 159.5-14.87 171.06 8.67 77.26-21.9 185.93 41.32 242.95-94.21-37.81-138.01-134.7-138.01-134.7s47.1 136.35 49.58 228.91c2.48 92.55-14.05 158.66-9.91 172.71 4.13 14.05 27.42 108.26 110.81 143.79-93.05-4.13-146.35-80.98-146.35-80.98s32.23 72.72 33.88 103.29c1.66 30.58 32.23 171.06 32.23 171.06l-321.46-94.2v-526.32l117.35-538.06-117.35-159.21 150.4-87.055z" fill="#601c05"/>
        <path d="m2118.4 970.99c-16.53-97.601-80.89-163.62-199.4-138.29 63.93 6.897 160.96 51.521 199.4 138.29z" fill="#772619"/>
        <path d="m1919 832.7c-7.94 0.921-15.86 2.351-23.72 4.417 8-0.727 15.9-2.324 23.72-4.417z" fill="#772619"/>
        <path d="m1924.6 1411.8c0.27 1.99 0.45 3.86 0.45 5.43 9.91 79.33 44.62 133.87 94.21 188.41-42.9-60.05-41.31-146.04-94.66-193.84z" fill="#772619"/>
        <path d="m1806 1645.3c109.08 39.66 183.46 133.87 223.12 238-9.91-118.18-84.29-241.31-223.12-238z" fill="#772619"/>
        <path d="m2032.1 1420.4c-5.53-66.79-21.12-163.69-87.76-208.93 19.12 34.79 42.68 74.63 49.29 113.21-35.91-30.08-63.63-45.66-88.43-45.66 55.37 41.53 108.32 86.33 126.9 141.38z" fill="#772619"/>
        <path d="m2032.1 1420.4c0.66 2.27 1.32 4.52 2.02 6.75-0.58-2.3-1.27-4.54-2.02-6.75z" fill="#772619"/>
        <path d="m2096.1 1256.7c9.29-118.37-8.06-211.96-92.2-264.64 28.2 44.003 54.34 78.723 54.34 120.85-31.52-34.08-75.3-47.1-103.45-42.76 74.37 29.75 115.63 103.5 141.31 186.55z" fill="#772619"/>
        <path d="m2118.4 772.66c-76.44-46.277-71.89-189.22-243.34-166.36l-45.48 44.673c178.91-41.105 198.74 121.69 288.82 121.69z" fill="#772619"/>
        <path d="m2160.6 1380c-0.35-0.31-0.66-0.65-1-0.97-0.99-0.19-1.99-0.43-2.98-0.73 1.33 0.57 2.63 1.16 3.98 1.7z" fill="#440e00"/>
        <path d="m1983 1193.1c24.79 15.65 39.61 52.23 39.61 52.23s56.19 110.53 137.01 133.73c-80.8-54.56-93.83-166.99-176.62-185.96z" fill="#440e00"/>
        <path d="m2068.2 1573.9c-12.12-61.51-41.87-151.38-89.5-173.27 51.35 63.72 65.92 162.89 81.72 239.12 1.07-13.06 5.38-41.23 7.78-65.85z" fill="#440e00"/>
        <path d="m2171.8 1790.7c-113.44-33.79-145.08-162.83-226.89-192.58 33.37 32.15 58.1 73.78 82.62 113.52-0.52-1.19-0.81-1.83-0.81-1.83s52.83 76.12 145.08 80.89z" fill="#440e00"/>
        <path d="m2018.1 908.9c52.32 45.57 82.69 137.94 102.24 225.36 3.46-10.49 6.39-17.52 9.73-52.83-18.29-88.332-64.01-147.69-111.97-172.53z" fill="#440e00"/>
        <path d="m2036.5 763.72c0.93 25.182 45.34 49.238 42.86 46.13 39.05 11.776 96.07-3.718 93.59-13.635-62.39 7.851-106.7 7.171-136.45-32.495z" fill="#440e00"/>
        <path d="m1773.8 1888.1 315.67 92.51c-5.12-23.74-29.89-139.52-31.39-167.37-1.61-29.77-33.35-101.7-33.67-102.43l4.3-2.42c0.5 0.72 48.49 68.51 130.98 78.79-46.54-24.65-80.69-71.77-99.21-137.2l-0.65-2.28c-1.79-6.06-0.17-19.86 2.28-40.75 3.59-30.65 9.03-76.97 7.54-132.6-2.44-91.11-48.98-226.8-49.45-228.16l4.6-1.83c0.42 0.92 40.77 88.34 124.96 128.29-36.09-41.31-34.09-102.39-32.15-161.61 0.86-26.31 1.68-51.15-0.85-73.64l-0.08-0.73 0.33-0.65c5.29-10.59 20.76-101.31 14.62-169.73-5.66-63.085-24.91-118.08-54.21-154.86l-4.95-6.21 7.6 2.293c32.57 9.822 79.94-0.078 89.41-9.093 0.88-0.849 1.09-1.422 1.05-1.57-0.58-2.321-8.75-11.083-17.42-20.355-25.14-26.918-67.21-71.966-88.42-123.5-25.96-63.06-71.09-85.743-142.08-71.316l-147.65 85.465 116.37 157.88-0.24 1.096-117.29 537.8v524.19zm322.29 99.62-327.25-95.91 0.06-528.69 117.11-536.97-118.32-160.53 153.53-88.726c73.95-15.139 120.98 8.443 148.05 74.205 20.87 50.704 62.56 95.338 87.47 122.01 12.28 13.156 17.75 19.116 18.61 22.54 0.37 1.482 0.24 3.786-2.46 6.359-9.73 9.276-53.25 19.318-87.23 12.045 27.44 37.384 45.45 90.929 50.91 151.79 6.1 67.947-8.53 157.1-14.8 171.7 2.47 22.65 1.66 47.44 0.8 73.66-2.06 62.69-4.18 127.52 39.64 167.04l10.34 9.33-12.93-5.19c-65.82-26.41-107.54-81.98-126.81-113.29 13.57 43.67 39.96 136.74 41.79 205.13 1.51 55.98-3.95 102.52-7.56 133.31-2.29 19.55-3.95 33.68-2.45 38.77l0.66 2.33c19.7 69.59 57.3 117.96 108.74 139.88l12.59 5.36-13.67-0.61c-69.05-3.06-116.88-46.2-137.25-68.66 9.6 23.26 26.17 66.21 27.37 88.37 1.62 30.03 31.87 169.26 32.17 170.66l0.89 4.09z" fill="#210500"/>
        <path d="m2078.8 812.26c-9.72-2.463-21.96-10.774-31.71-21.51-10.54-11.883-10.54-27.025-10.54-27.025 5.59 19.54 28.35 39.899 43.47 43.727l-1.22 4.808z" fill="#210500"/>
        <path d="m2117.8 1151.8c-5.86-93.5-56.31-198.86-99.69-242.86 0 0 18.4 11.688 29.68 29.133 36.08 53.163 70.18 137.22 74.95 213.42l-4.94 0.31z" fill="#210500"/>
        <path d="m2020.3 1246.3c-6.27-15.87-25.44-43.19-37.31-53.14 0 0 13.37 5.33 20.95 16.11 9.03 12.14 17.36 26.06 20.97 35.21l-4.61 1.82z" fill="#210500"/>
        <path d="m2059.9 1647.9c-3.6-8.63-6.29-23.8-9.68-43.01-8.6-48.6-22.98-129.95-71.51-204.3 0 0 20.98 23.44 30.24 44.07 28.69 60.65 39.27 120.43 46.15 159.37 3.34 18.9 5.98 33.84 9.37 41.96l-4.57 1.91z" fill="#210500"/>
        <path d="m2024.8 1711.3c-6.9-8.57-16.02-22.66-26.57-38.98-17.21-26.6-36.72-56.75-53.84-74.26 0 0 21.6 16.24 34.41 35.85 8.05 11.7 16.04 24.05 23.59 35.72 10.48 16.2 19.53 30.19 26.28 38.56l-3.87 3.11z" fill="#210500"/>
        <path d="m1225.9 1211.1c41.58 75.12 59.5 120.2 0 216.06s-214.86 242.96-264.44 320.64c-49.583 77.68-71.069 142.14-71.069 142.14s-110.73 60.32-114.87 180.15c-4.132 8.26-96.686-123.96-107.43-171.06-10.742-47.11-85.529-33.06-85.529-33.06l-64.459 88.01 17.355 203.29 1693.7-21.07s-56.12-98.34-121.48-158.67c-58.67-20.66-162.8-95.03-162.8-95.03s-109.08-180.15-94.21-357.41c14.88-177.26 82.64-451.61 95.86-509.46 13.23-57.847 55.78-275.25-86.97-364.06l-132.84-92.108-500.79 651.63z" fill="#ffa659"/>
        <path d="m1175 2261.5s234.14-350.09 400.11-796.87c28.61 117.47-126.41 484.79-65.68 590.6s156.19 125.3 156.19 125.3l-490.62 80.97z" fill="#ea8b44"/>
        <path d="m879.36 1927.9c-4.236 22.09-12.618 41.41-11.671 85.66 55.784-209.62 149.99-288.95 259.08-437.7 16.89-22.52 32.09-48.29 44.88-75.4-71.53 86.93-172.06 187.6-210.16 247.29-49.583 77.68-71.069 142.14-71.069 142.14s-82.544 45.03-107.73 134.49c24.235-48.89 68.478-87.8 96.673-96.48z" fill="#f49758"/>
        <path d="m1653.8 1243.6c61.72-83.91 60.08-157.26 71.27-204.44-67.72-53.453-196.61-98.904-291.21-98.57l-207.88 270.49c41.38 74.76 87.47 138.76-94.15 335.53 17.23-10.81 143.82-146.07 162.56-153.88 133.87-44.62 255.46-7.82 359.41-149.13z" fill="#ea8b44"/>
        <path d="m623.05 1899.1-104.91 54.89 17.355 203.29 202.82-2.52c-28.966-55.46-75.082-104.55-96.216-159.04-13.45-34.68-0.569-85.4-19.045-96.62z" fill="#ea8b44"/>
        <path d="m2089.3 1970c-59.66-27.01-144.4-87.53-144.4-87.53s-109.08-180.15-94.21-357.41c14.88-177.26 82.64-451.62 95.86-509.46 13.23-57.847 55.78-275.25-86.97-364.06-3.16-2.193-8.15 2.089-13.04 6.372-4.82 4.214-9.55 8.429-12.37 6.47 12.39 17.355 37.6 35.741 53.3 77.266 67.35 167.22-49.17 445.01-98.75 683.01-44.63 218.16 124.42 645.4-88.43 719.99 4.23 21.12 54.82 9.62 104.31-1.87 48.97-11.38 96.85-22.75 97.68-2.55l223.57-2.78c-15.5-51.15-61.12-104.17-43.62-130.14-5.1-10.2-7.83-29.06 7.07-37.31z" fill="#ea8b44"/>
        <path d="m520.69 1954.7 17.078 200.06 1687.1-20.99c-10.84-18.32-61.4-101.22-118.49-154.07-58.42-20.77-161.89-94.44-162.93-95.18l-0.68-0.74c-1.09-1.8-109.33-182.87-94.56-358.9 13.3-158.4 68.96-395.01 89.91-484.08 2.54-10.81 4.59-19.52 6.01-25.72 18.53-81.076 47.26-278.58-85.87-361.4l-131-90.832-498.36 648.47c40.29 72.93 59.77 119.49-0.85 217.15-31.91 51.42-90.43 116.54-147.01 179.52-48.59 54.08-94.475 105.15-117.45 141.14-48.827 76.5-70.59 140.95-70.804 141.59l-0.309 0.92-0.856 0.47c-1.095 0.6-109.54 61.09-113.58 178.07l-0.26 1.02c-0.612 1.22-1.856 1.9-3.256 1.71-11.955-1.44-98.492-128.1-108.81-173.33-9.461-41.48-73.141-32.72-81.707-31.33l-63.315 86.45zm12.532 205.08-17.63-206.52 65.586-89.54 0.963-0.18c0.775-0.14 77.265-13.92 88.404 34.94 10.03 43.98 86.92 153.96 102.68 168.1 5.813-112.05 104.86-172.37 115.16-178.33 2.835-8.14 24.997-69.69 71.019-141.78 23.193-36.34 69.219-87.56 117.94-141.79 56.44-62.82 114.8-127.78 146.49-178.82 59.55-95.95 39.86-141.43-0.07-213.56l-0.78-1.42 503.21-654.79 134.78 93.454c135.74 84.435 106.75 284.53 87.98 366.64-1.42 6.22-3.47 14.93-6.02 25.76-20.93 88.97-76.52 325.32-89.79 483.36-14.28 170.25 87.69 345.5 93.6 355.48 7.3 5.18 105.97 74.77 161.76 94.41l0.86 0.52c64.89 59.89 121.38 158.27 121.95 159.26l2.08 3.65-4.21 0.06-1696 21.1z" fill="#49210d"/>
        <path d="m867.69 2013.6s-4.036-16.76 0.176-42.04c3.675-22.06 9.87-51.05 20.198-82.41l4.711 1.55c-21.956 66.68-25.055 122.34-25.085 122.9z" fill="#49210d"/>
        <path d="m1851.1 644.37c-42.97-99.165-135.94-227.89-240.69-240.38-104.74-12.493-177.46-19.103-177.46-19.103s-138.83-28.098-206.6 110.73l-80.98 153.71s-325.39 318.56-544.58 471.03c-80.159 54.54-41.011 106.71-29.749 121.48 18.594 24.38 48.795 36.45 77.68 43.8 16.527 31.4 80.572 86.35 135.73 77.68 55.16-8.68 131.19-102.47 152.67-126.44 21.486-23.96 76.027-44.62 126.44-35.53s129.74 25.61 129.74 25.61 85.12 106.61 238.82 97.93c153.71-8.68 244.2-114.04 264.03-185.93 14.05-49.17 32.44-110.37 44.89-121.15l110.06-373.44z" fill="#ffa659"/>
        <path d="m1284.3 605.16c-38.42 61.617-92.46 97.297-120.68 79.695-28.23-17.602-1.24-75.291 37.18-136.91 15.42-24.716 9.32-23.823 22.36-46.262 21.07-30.654 62.71-50.506 79.62-39.965 28.22 17.602 19.95 81.822-18.48 143.44z" fill="#ea8b44"/>
        <path d="m1319.5 511.87s4.03-79.664-72.34-35.292c32.51-26.123 77.45-33.749 72.34 35.292z" fill="#49210d"/>
        <path d="m1500.5 1259.8c-141.39 39.65-236.87-34.67-355.87-109.04 4.96 9.91 8.88 23.49 16.84 33.74-78.4-10.23-143.94-30.17-216.92 4.96-33.174 15.97-37.15 25.52-77.437 67.86-57.056 60.12-73.879 19.88-129.57 14.26-75.958-7.66-145.38-2.27-185.26-69.53 2.882 18.75 13.655 33.1 18.749 39.78 18.594 24.38 48.795 36.45 77.68 43.8 16.527 31.4 80.572 86.35 135.73 77.68 55.161-8.68 131.19-102.47 152.67-126.44 21.486-23.96 76.027-44.62 126.44-35.53s129.74 25.61 129.74 25.61 85.12 106.61 238.82 97.93c153.71-8.68 244.2-114.04 264.03-185.93 14.05-49.17 32.44-110.37 44.89-121.15-94.88 25.7-57.08 190.56-240.53 242z" fill="#ea8b44"/>
        <path d="m772.3 1366.1c-51.954 0.01-108.95-48.41-125.67-78.92-37.458-9.68-62.255-23.81-77.982-44.43-6.547-8.58-23.934-31.37-19.203-60.53 3.728-22.97 20.392-44.67 49.529-64.5 213.76-148.69 532.81-459.59 543.96-470.48l80.81-153.36c67.79-138.88 207.88-112.29 209.28-112.01 0.46 0.029 73.68 6.721 177.27 19.073 114.75 13.686 206.52 158.47 242.66 241.86l-4.55 1.971c-35.72-82.419-126.19-225.48-238.71-238.9-103.5-12.347-176.66-19.031-177.39-19.097-1.64-0.317-138.03-26.089-204.14 109.35l-81.48 154.39c-3.25 3.186-328.04 320.45-544.9 471.3-27.989 19.04-43.944 39.63-47.445 61.2-4.389 27.05 12.059 48.62 18.25 56.74 15.16 19.87 39.412 33.5 76.32 42.9l1.068 0.27 0.513 0.97c16.681 31.69 79.901 84.77 133.15 76.39 48.522-7.63 114.58-83.59 142.78-116.03 3.347-3.85 6.184-7.11 8.426-9.61 22.096-24.65 77.568-45.54 128.73-36.32 49.86 8.99 129.01 25.46 129.8 25.63l0.88 0.18 0.55 0.7c0.85 1.05 86.23 105.5 236.75 97 156.14-8.82 243.43-117.62 261.78-184.12 10.25-35.89 18.96-63.89 26.24-84.29 8.69-28.16 21.45-35.58 21.45-35.58-8.45 10.33-22.89 51.11-42.92 121.21-18.7 67.81-107.54 178.76-266.27 187.72-5.97 0.34-11.87 0.51-17.64 0.51-135.87 0-215.14-89.73-222.68-98.65-8.68-1.81-81.8-16.96-128.83-25.43-49.44-8.93-102.94 11.09-124.15 34.75-2.23 2.48-5.051 5.73-8.377 9.55-28.561 32.85-95.447 109.76-145.76 117.68-3.987 0.62-8.04 0.92-12.113 0.92z" fill="#49210d"/>
        <path d="m1387.1 454.92c-0.46-46.994-14.62-64.773-44.64-63.96-34.87 10.77-73.43 33.519-103.11 80.066 52.12-40.299 108.39-67.637 147.75-16.106z"/>
        <path d="m1191.2 1228.2c-8.78-7.98-20.57-25.06-30.6-40.91-10.84-17.15-15.98-36.5-15.98-36.5 0.32 0.57 32.24 57.67 49.92 73.74l-3.34 3.67z" fill="#49210d"/>
        <path d="m752.3 1306.7c-16.769-6.87-48.597-11.19-74.174-14.65-12.439-1.69-23.181-3.15-30.34-4.63l1.007-4.86c6.99 1.45 17.654 2.9 30 4.57 10.533 1.43 22.115 3 33.317 4.84 30.077 5 40.19 14.73 40.19 14.73z" fill="#49210d"/>
        <path d="m1274.3 621.25c-32.89 52.73-82.43 81.206-110.65 63.604-28.23-17.602-24.45-74.618 8.44-127.35 32.88-52.729 82.42-81.206 110.64-63.603 28.23 17.602 24.45 74.617-8.43 127.35z"/>
        <path d="m1270.2 625.43c-31.22 50.061-78.95 76.665-106.6 59.419-27.65-17.245-24.76-71.809 6.46-121.87 31.22-50.062 78.95-76.665 106.6-59.419 27.65 17.244 24.76 71.808-6.46 121.87z" fill="#fff"/>
        <path d="m1163.1 575.2c-24.47 46.428-24.93 93.797 0.49 109.65 27.65 17.246 75.38-9.358 106.6-59.419 0.97-1.552 1.82-3.116 2.74-4.675-44.54 32.189-130.02 26.448-109.83-45.553z" fill="#cdd7e0"/>
        <path d="m1257.2 500.74c-26.33 0-60.69 24.611-84.98 63.551-14.88 23.862-23.73 49.455-24.93 72.06-1.17 22.078 5.11 38.553 17.68 46.394 12.57 7.842 30.13 6.232 49.44-4.529 19.78-11.024 38.86-30.234 53.74-54.099 14.89-23.861 23.74-49.451 24.94-72.059 1.17-22.077-5.11-38.552-17.68-46.394-5.36-3.339-11.52-4.924-18.21-4.924zm-74.12 191.87c-7.67 0-14.67-1.879-20.73-5.656-14.18-8.839-21.28-26.902-20.01-50.863 1.24-23.431 10.36-49.861 25.68-74.423 31.89-51.139 81.24-78.143 110.01-60.211 14.18 8.839 21.28 26.905 20.01 50.864-1.24 23.43-10.36 49.86-25.68 74.422-15.32 24.561-35.04 44.38-55.53 55.805-12 6.689-23.48 10.062-33.75 10.062z"/>
        <path d="m1255.3 546.18c-16.22-11.623-44.35 1.344-62.84 28.961-18.48 27.62-20.32 59.434-4.11 71.059 16.22 11.626 44.35-1.345 62.83-28.959 18.49-27.62 20.32-59.44 4.12-71.061z" fill="#542416"/>
        <path d="m1200.9 612.43c-7.05-8.175-9.82-18.505-10.91-29.751-15.22 25.272-16.12 53.116-1.47 63.619 15.22 10.91 41.48-1.022 59.04-26.618-17.37 8.06-34.15 3.942-46.66-7.25z" fill="#a74f45"/>
        <path d="m1241.3 544.41c-1.73 0-3.53 0.167-5.38 0.504-14.18 2.573-30.04 14.688-41.37 31.616-17.71 26.474-19.83 56.829-4.73 67.665 4.77 3.419 10.97 4.554 17.96 3.293 14.18-2.574 30.04-14.689 41.37-31.619 17.72-26.474 19.85-56.829 4.73-67.665-3.5-2.513-7.79-3.794-12.58-3.794zm-38.92 108.54c-5.82 0-11.08-1.596-15.45-4.726-17.25-12.379-15.68-45.777 3.5-74.452 12.24-18.276 28.91-30.889 44.61-33.737 8.32-1.517 15.84-0.082 21.73 4.14 17.27 12.377 15.69 45.777-3.5 74.454-12.23 18.277-28.91 30.89-44.61 33.737-2.15 0.39-4.25 0.584-6.28 0.584z" fill="#261005"/>
        <path d="m1243.3 572.12c-9.44-6.773-26.29 1.469-37.63 18.416-11.34 16.938-12.87 36.171-3.42 42.94 9.44 6.772 26.3-1.472 37.63-18.412 11.34-16.947 12.87-36.176 3.42-42.944z"/>
        <path d="m1245.2 575.7c0 6.457-5.24 11.692-11.69 11.692-6.46 0-11.7-5.235-11.7-11.692s5.24-11.692 11.7-11.692c6.45 0 11.69 5.235 11.69 11.692z" fill="#fff"/>
        <path d="m1204 613.49c-2.31-2.104-6.06-1.391-8.39 1.588-2.33 2.991-2.34 7.114-0.04 9.225 2.31 2.106 6.06 1.391 8.39-1.592 2.33-2.986 2.35-7.114 0.04-9.221z" fill="#fff"/>
        <path d="m755.31 1015.6-54.54 22.31s-47.93 15.29-56.607 30.16c-9.917 1.66-35.948 22.73-40.906 32.44l11.602 37.98c28.968-25.33 96.464-67.27 150.35-98.76l-9.903-24.13z" fill="#fff"/>
        <path d="m765.21 1039.8-9.903-24.13-7.711 3.15c-15.579 10.15-31.903 24.12-50.255 25.41-9.693 11.17-39.288 25.51-50.754 27.84-4.711 9.5-23.913 25.41-42.578 30.98l10.847 35.51c28.968-25.33 96.464-67.27 150.35-98.76z" fill="#cdd7e0"/>
        <path d="m605.93 1100.8 10.188 33.35c35.049-29.47 111.93-75.53 145.98-95.46l-8.144-19.85-52.248 21.38c-13.267 4.24-48.684 17.59-55.406 29.11l-0.588 1.01-1.147 0.19c-8.517 1.42-32.873 20.64-38.635 30.27zm7.672 42.09-13.013-42.61 0.455-0.89c4.954-9.7 29.827-30.49 41.577-33.51 10.355-15.18 55.439-29.7 57.393-30.32l56.647-23.18 11.659 28.41-1.859 1.09c-33.832 19.76-116.16 68.93-149.98 98.49l-2.883 2.52z" fill="#7f8993"/>
        <path d="m657.56 1106.2-15.684-37.09 4.566-1.93 15.683 37.08-4.565 1.94z" fill="#7f8993"/>
        <path d="m707.57 1074-14.502-33.25 4.546-1.98 14.502 33.25-4.546 1.98z" fill="#7f8993"/>
        <path d="m1066 941.24c-34.71 68.176-201.7 236.46-344.6 272.71-83.051 16.11-118.38-35.95-120.86-57.02-2.479-21.07 173.54-123.96 226.22-151.85 52.682-27.888 81.192-63.836 81.192-63.836l138.83-42.765 19.22 42.765z" fill="#380000"/>
        <path d="m866.46 1057.7s-58.259-22.29-127.68 8.08c-60.819 26.61-112.12 83.67-126.39 116.15 16.587 21.4 51.248 43.19 109.04 31.98 80.473-20.41 168.58-82.7 236.41-145.39-41.253-21.25-91.379-10.82-91.379-10.82z" fill="#ffb6b6"/>
        <path d="m866.46 1057.7s-30.171-11.54-72.958-6.7c34.445 9.41-3.481 34.82-4.725 51.34 67.354-37.39 118.18-20.57 119.09 9.05 17.5-13.94 34.296-28.38 49.974-42.87-41.253-21.25-91.379-10.82-91.379-10.82z" fill="#ea9696"/>
        <path d="m615.27 1181.6c11.331 14 42.724 42.13 105.68 29.91 68.017-17.26 152.67-69.08 232.54-142.34-39.339-18.49-86.055-9.12-86.535-9.01l-0.709 0.14-0.678-0.26c-0.572-0.22-58.185-21.54-125.8 8.04-59.43 26-109.94 82.03-124.5 113.52zm76.047 37.85c-47.167 0.01-71.665-24.08-80.887-35.97l-0.905-1.17 0.595-1.35c13.507-30.74 63.422-89.31 127.67-117.42 65.471-28.64 121.98-10.76 128.86-8.38 6.467-1.24 52.909-9.12 92.326 11.18l3.147 1.62-2.599 2.41c-81.238 75.09-167.8 128.3-237.48 145.97-11.163 2.17-21.39 3.11-30.72 3.11z" fill="#993131"/>
        <path d="m788.77 1102.4s9.034-14.58 28.227-25.88c13.382-7.87 30.198-16.05 48.8-21.15l1.312 4.78c-44.174 12.13-78.003 41.95-78.339 42.25z" fill="#993131"/>
        <path d="m723.91 1162.5c-7.644-5.58-47.929-29.09-75.613-40.7-21.899-21.28-45.289-41.8-47.75-39.87-5.552 4.33-9.89 47.1 0.026 74.99 2.48 21.07 37.807 73.13 120.86 57.02 36.929-9.37 75.456-27.59 112.9-50.59-45.033 4.27-98.466 1.54-110.42-0.85z" fill="#fff"/>
        <path d="m797.66 1164.2c-14.248 17.52-44.417 34.45-69.106 35.69-3.175-1.7-5.371-22.93-3.873-36.15-0.775-1.24-6.087-3.93-8.057-4.81-4.419 19.3-7.902 28.58-17.63 37.35-12.623 11.36-39.043 10.48-45.074-4.4-2.838-23.98-2.942-34.55-6.248-65.33-7.23 45.22-24.584 57.23-47.233 29.96 0.047 0.13 0.083 0.28 0.13 0.41 2.48 21.07 37.807 73.13 120.86 57.02 36.929-9.37 75.456-27.59 112.9-50.59-16.213 1.54-20.607 0.79-36.671 0.85z" fill="#cdd7e0"/>
        <path d="m601.54 1084.5c-3.951 6.17-8.11 44.92 1.37 71.58l0.126 0.54c1.204 10.23 10.379 27.01 27.678 39.64 16.155 11.81 44.924 24.03 90.246 15.24 31.551-8.01 66.203-23.08 103.02-44.81-44.08 3.11-90.144 0.31-100.56-1.77l-0.976-0.43c-7.149-5.22-47.428-28.8-75.11-40.42l-0.77-0.51c-23.109-22.45-40.426-36.96-45.029-39.06zm89.784 134.94c-30.013 0-50.602-9.72-63.537-19.17-18.448-13.48-28.15-31.14-29.641-42.79-9.551-27.2-6.457-71.79 0.874-77.52 1.624-1.26 5.409-4.23 50.67 39.72 27.946 11.8 66.716 34.48 75.221 40.47 12.609 2.31 65.24 4.89 109.19 0.72l10.633-1-9.101 5.58c-40.624 24.95-78.843 42.07-113.59 50.88-11.182 2.17-21.404 3.11-30.718 3.11z" fill="#7f8993"/>
        <path d="m729.99 1212.8c-0.48-0.53-11.706-13.45-8.551-50.45l4.939 0.42c-2.942 34.53 7.205 46.61 7.306 46.73l-3.694 3.3z" fill="#7f8993"/>
        <path d="m657.65 1214.1c-10.529-19.95-11.999-83.9-11.836-92.3l4.958 0.1c-0.262 13.45 1.995 72.33 11.265 89.88l-4.387 2.32z" fill="#7f8993"/>
        <path d="m825.63 1002.9c-19.988 10.58-122.02 67.64-182.36 110.63 1.44 1.44 2.455 2.54 3.879 3.72 51.603-36.27 135.68-86.08 180.81-109.97 10.085-5.34 19.256-10.987 27.579-16.639-0.712-1.564-1.497-3.032-2.335-4.387-8.288 5.646-17.468 11.302-27.564 16.646z" fill="#210000"/>
        <path d="m1048.2 895.46-141.66 43.637-0.478 0.602c-0.227 0.285-18.748 23.316-52.846 46.54 0.838 1.355 1.623 2.823 2.335 4.387 31.943-21.689 50.675-43.363 53.896-47.237l136.02-41.901 17.83 39.679c-34.15 65.448-196.91 233.46-342.32 270.35-45.322 8.79-74.091-3.43-90.246-15.24-11.256-8.22-32.206-26.96-38.548-36.87 4.97 14.67 22.689 31.43 35.621 40.88 12.935 9.45 33.524 19.17 63.537 19.17 9.314 0 19.536-0.94 30.718-3.11 147.69-37.46 312.96-208.68 346.2-273.98l0.54-1.058-20.6-45.847z" fill="#49210d"/>
        <path d="m644.16 533.84c-46.278-28.924-112.8-9.09-122.92 49.583-10.122 58.673 20.454 112.39 20.454 112.39l102.47-161.97z" fill="#ffa659"/>
        <path d="m629.86 556.45 14.303-22.609c-41.412-25.882-99.003-12.695-117.92 32.402 28.754-29.51 72.053-39.013 103.61-9.793z" fill="#f49758"/>
        <path d="m522.62 577.04c-0.529 2.08-1.01 4.197-1.388 6.386-10.122 58.673 20.454 112.39 20.454 112.39l49.124-77.647c-44.786 13.809-60.58-13.453-68.19-41.126z" fill="#ea8b44"/>
        <path d="m598.09 523.19c-11.364 0-22.673 2.29-33.064 6.938-22.414 10.028-37.098 29.106-41.344 53.716-8.345 48.369 11.72 93.909 18.218 107l98.815-156.19c-13.013-7.596-27.864-11.464-42.625-11.464zm-56.509 177.44-2.044-3.589c-0.31-0.546-30.897-55.169-20.742-114.04 4.536-26.29 20.236-46.675 44.207-57.4 26.118-11.684 57.717-9.336 82.475 6.137l2.113 1.32-106.01 167.57z" fill="#49210d"/>
        <path d="m454.3 794.36c1.86 40.906-14.254 122.72-8.057 131.39 6.198 8.677 16.734 28.51 39.666 38.427 2.479 20.453 66.937 61.973 102.26 51.443 18.594 21.07 91.935 27.27 112.6 13.01 15.701 19.22 69.87 17.37 105.57-7.43 32.229 6.81 102.88-4.96 145.65-73.138-103.24-26.684-497.69-153.71-497.69-153.71z" fill="#fff"/>
        <path d="m492.11 876.79c-14.874 19.833-13.015 84.291-39.463 58.396 6.157 8.831 18.889 21.707 33.265 28.994 4.033-28.552 2.479-59.293 6.198-87.39z" fill="#cdd7e0"/>
        <path d="m951.99 948.06c-12.076-3.121-28.176-7.629-47.124-13.132 14.895 44.813-40.576 75.42-80.023 87.94 35.983-0.19 91.336-17.72 127.15-74.808z" fill="#cdd7e0"/>
        <path d="m576.4 990.83c-29.466 9.823-80.572-9.709-90.489-35.121l0.414 11.156c13.428 27.025 68.836 55.218 98.14 49.638 23.777-13.69 26.652-52.438 30.807-73.75-6.005 16.953-27.408 44.256-38.872 48.077z" fill="#cdd7e0"/>
        <path d="m824.31 946.2c-19.387 72.957-66.782 94.517-121.62 80.867 9.132 25.35 81.694 13.96 103.65-5.87l0.189 0.03c13.911-17.85 22.219-48.42 17.784-75.027z" fill="#cdd7e0"/>
        <path d="m718.45 966.04c-24.285 63.225-72.219 64.335-128.41 47.945 9.503 20.03 71.069 27.59 101.49 18.81 22.933-12.43 25.07-37.662 26.92-66.755z" fill="#cdd7e0"/>
        <path d="m701.24 1025.3 1.445 1.77c14.369 17.58 66.527 16.9 102.24-7.91l0.878-0.61 1.049 0.22c32.919 6.98 99.773-5.85 141.21-69.171-101.64-26.757-452.93-139.51-491.16-151.81 0.413 19.986-2.748 47.862-5.56 72.624-2.67 23.54-5.696 50.22-3.074 53.892 0.879 1.23 1.845 2.681 2.917 4.293 6.23 9.371 16.657 25.058 35.715 33.299l1.308 0.564 0.172 1.414c0.905 7.476 11.959 19.169 28.161 29.788 19.704 12.913 50.103 25.783 70.931 19.573l1.52-0.45 1.049 1.19c17.971 20.37 89.897 26.02 109.33 12.61l1.884-1.29zm38.296 18.88c-16.659 0-31.157-4.02-39.233-12.35-22.956 12.86-92.406 7.21-112.91-13.42-22.375 5.68-53.437-7.4-73.578-20.596-13.216-8.662-27.725-21.399-30.115-31.906-19.622-8.944-30.249-24.93-36.652-34.561-1.039-1.562-1.971-2.965-2.82-4.157-3.557-4.977-1.594-24.05 2.181-57.332 2.961-26.082 6.314-55.642 5.415-75.391l-0.162-3.566 3.4 1.094c3.944 1.271 395.56 127.3 497.55 153.67l3.28 0.847-1.801 2.869c-42.179 67.251-112.16 81.301-147.21 74.461-19.683 13.35-45.385 20.34-67.336 20.34z" fill="#7f8993"/>
        <path d="m483.44 964.43c-2.477-24.151 4.961-99.391 19.446-129.62l4.469 2.14c-14.158 29.552-21.412 103.28-18.98 126.97l-4.935 0.504z" fill="#7f8993"/>
        <path d="m589.49 1017.7-2.639-4.2c16.96-10.66 27.295-72.777 29.844-95.813l4.929 0.547c-0.384 3.477-9.686 85.356-32.134 99.466z" fill="#7f8993"/>
        <path d="m702.54 1030.4-3.549-3.47c14.874-15.26 18.068-74.647 18.097-75.245l4.954 0.252c-0.129 2.518-3.334 61.863-19.502 78.463z" fill="#7f8993"/>
        <path d="m808 1023-3.321-3.68c13.114-11.84 14.664-54.832 14.679-55.263l4.953 0.159c-0.058 1.855-1.646 45.544-16.311 58.784z" fill="#7f8993"/>
        <path d="m1326.5 536.3c-61.1 72.744-123.7 99.188-232.78 85.967-109.08-13.223-207.42-64.458-207.42-64.458s-77.68-52.889-168.58-52.062c-90.902 0.827-155.36 41.319-190.07 157.84-63.632 14.875-94.208 42.972-86.77 113.21 7.235 68.332 192.55 304.52 609.04 147.1l242.96-231.28 33.62-156.31z" fill="#ffa659"/>
        <path d="m741.26 520.7c73.879 7.943 152.88 42.14 188.51 105.14-5.466-21.753-5.466-21.753-14.556-38.074 50.672 25.059 178.25 71.033 274.38 53.644 113.81-20.589 136.9-105.11 136.9-105.11-61.1 72.744-123.7 99.188-232.78 85.966s-207.42-64.457-207.42-64.457-77.68-52.889-168.58-52.062c-86.837 0.79-149.52 37.831-185.21 142.72 64.972-130.19 166.92-132.26 208.76-127.76z" fill="#f49758"/>
        <path d="m444.3 724.5c-4.412 14.219-5.65 31.349-3.432 52.297 7.235 68.332 192.55 304.52 609.04 147.1l10.33-22.398c-140.59 57.068-330.61 54.17-462.37-1.765-85.941-36.485-160.57-97.625-153.57-175.23z" fill="#ea8b44"/>
        <path d="m787.41 979.74c-102.86 3e-3 -178.29-28.923-230.26-60.93-80.841-49.78-115.74-113.37-118.74-141.76-8.096-76.458 28.954-101.67 87.271-115.56 32.696-108.5 91.963-157.32 192.01-158.23 0.697-7e-3 1.404-0.01 2.101-0.01 89.745 0 167.12 51.973 167.9 52.503 0.731 0.361 98.969 51.033 206.32 64.043 108.94 13.224 161.08-5.517 232.48-83.503 0 0-6.04 14.898-18.84 26.545-62.11 59.916-115.07 73.904-214.24 61.883-108.27-13.125-207.28-64.206-208.26-64.722-1.02-0.673-78.321-52.752-167.42-51.78-97.935 0.891-155.83 49.025-187.71 156.07l-0.409 1.38-1.402 0.327c-67.818 15.855-91.612 46.847-84.869 110.54 3.123 29.483 41.302 91.805 116.41 138.06 88.104 54.253 244.51 99.499 489.29 6.98l1.75 4.639c-102.69 38.816-190.01 53.533-263.38 53.533z" fill="#49210d"/>
        <path d="m523.71 714.56s-4.08-13.703-2.153-28.888c0.95-7.488 2.159-15.462 3.656-22.6l4.851 1.017c-4.455 21.264-6.335 50.183-6.354 50.471z" fill="#49210d"/>
        <path d="m929.77 625.84c-8.675-30.364-29.645-54.557-44.966-66.048l2.973-3.966c9.708 7.281 21.595 19.46 31.441 34.998 11.49 17.188 10.552 35.016 10.552 35.016z" fill="#49210d"/>
        <path d="m663.99 688.99s-5.99-10.124 4.855-27.204c8.684-13.686 22.833-28.152 41.256-39.07 17.701-10.492 50.291-23.712 91.344-13.076 22.45 6.835 30.763 17.686 30.763 17.686-54.342-29.745-98.25-12.987-119.58-0.344-30.042 17.804-48.638 46.048-48.638 62.008z" fill="#49210d"/>
        <path d="m664.82 794.98c-3.021-2.129-0.209-60.325 53.715-101.64 38.316-29.359 90.075-39.666 110.73-5.785 20.66 33.882 6.48 76.027-37.187 97.513-44.439 21.866-116.9 17.223-127.26 9.916z" fill="#7c4119"/>
        <path d="m683.97 782.37c-2.775-1.957-5.217-53.268 44.326-91.229 35.202-26.975 81.489-36.155 100.47-5.027 15.078 30.364 3.352 64.328-36.767 84.068-40.828 20.09-98.507 18.9-108.03 12.188z" fill="#421900"/>
        <path d="m666.69 793.24c11.399 6.793 81.698 10.563 124.3-10.401 21.98-10.815 37.183-27.42 42.804-46.758 4.617-15.872 2.259-32.647-6.639-47.238-6.284-10.307-15.801-16.716-28.289-19.049-22.574-4.208-52.779 5.557-78.822 25.51-48.873 37.451-55.47 90.479-53.35 97.936zm42.582 10.224c-22.695 0-40.933-2.966-45.881-6.457-0.916-0.644-1.772-1.855-1.86-6.302-0.309-15.565 9.057-63.755 55.493-99.337 27.125-20.782 58.833-30.9 82.748-26.448 13.732 2.566 24.666 9.946 31.611 21.342 9.631 15.795 12.178 33.979 7.169 51.205-6.016 20.69-22.131 38.382-45.377 49.822-24.584 12.095-57.303 16.175-83.903 16.175z" fill="#49210d"/>
        <path d="m1842.8 377.24c-40.49-122.72-153.29-246.67-310.71-151.23-113.63 23.552-135.12 135.94-135.12 168.99-52.69 60.326-57.02 138.42-52.06 209.69 30.99-68.796 97.51-109.29 149.58-108.05 33.15 0.789 65.48 7.27 110.73-1.653 24.79 26.031 131.39 68.177 188.41 37.187 55.78-85.529 49.17-154.95 49.17-154.95z" fill="#601c05"/>
        <path d="m1452.2 298.63c96.07-16.835 191.52 7.027 253.49 40.185-22.92-20.888-54.54-40.185-92.96-52.062 27.74-2.479 89.25 9.917 123.95 39.666-66.31-71.275-202.67-92.686-284.48-27.789z" fill="#772619"/>
        <path d="m1563.1 405.75c32.23-28.003 97.31-28.303 133.88-24.791-96.53-41.369-242.34 3.719-290.68 84.291 119.62-63.112 263.41 5.776 310.51-54.541-74.37 20.27-104.12-4.959-153.71-4.959z" fill="#772619"/>
        <path d="m1665.6 206.38c82.22 51.24 123.1 114.99 140.48 184.49 2.91-82.938-42.01-148.19-140.48-184.49z" fill="#772619"/>
        <path d="m1644.8 482.91c10.39-8.571 19.62-12.091 31.26-28.999-98.97 62.573-202.5-40.311-301.87 65.052 7.4-108.3 92.99-166.87 169.05-162.25-44.31-26.584-89.56-30.907-137.24-12.677-6.81 21.464-9.06 40.332-9.06 50.969-52.69 60.326-57.02 138.42-52.06 209.69 30.99-68.796 97.51-109.29 149.58-108.05 33.15 0.789 65.48 7.27 110.73-1.653 24.79 26.031 131.39 68.177 188.41 37.187 4.83-7.4 9.16-14.669 13.1-21.793-60.61 11.464-123.72-12.211-161.9-27.482z" fill="#440e00"/>
        <path d="m1591.3 199.43c-15.04 4.352-40.29 13.285-51.72 24.102 60.53-2.86 114.66 4.545 158.36 44.499-28.66-45.037-55.34-62.52-106.64-68.601z" fill="#440e00"/>
        <path d="m1640.7 194.54c-34.5 0-70.4 11.22-107.31 33.595l-0.78 0.307c-109.22 22.637-133.14 127.91-133.14 166.57v0.93l-0.61 0.702c-51.49 58.948-55.63 135.77-52.06 198.43 34.22-67.084 100.79-102.01 147.76-100.9 8.71 0.208 17.16 0.791 26.13 1.409 25.05 1.733 50.94 3.517 84.07-3.017l1.34-0.262 0.94 0.986c24.23 25.454 129.55 66.44 184.88 37.013 52.61-80.986 48.81-147.84 48.46-152.57-28.28-85.475-82.52-150.28-145.14-173.39-17.73-6.542-35.93-9.808-54.54-9.808zm-297.56 420.17-0.68-9.837c-4.52-64.966-2.67-147.56 52.06-210.8 0.38-40.458 25.42-147.09 136.67-170.4 58.04-35.078 113.8-43.15 165.77-23.975 64.09 23.65 119.5 89.732 148.22 176.77l0.11 0.542c0.07 0.703 6.05 71.266-49.56 156.53l-0.34 0.526-0.55 0.3c-57.43 31.219-163.05-9.585-190.43-36.678-33.15 6.357-59.02 4.573-84.07 2.844-8.9-0.615-17.31-1.196-25.89-1.399-47.62-1.244-115.39 35.834-147.26 106.59l-4.05 8.99z" fill="#210500"/>
        <path d="m1697.9 268.03c-67.11-53.418-149.54-42.342-165.37-39.577l-0.85-4.886c13-2.261 69.8-9.992 127.26 15.254 27.8 12.91 38.96 29.209 38.96 29.209z" fill="#210500"/>
        <path d="m1398.8 396.66-3.7-3.302c26.75-29.949 69.12-46.674 112.59-46.132 20.97-0.012 35.56 9.49 35.56 9.49-53.29-13.18-111.35 2.874-144.45 39.944z" fill="#210500"/>
        <path d="m1605.8 497.43-1.02-4.852c30.25-6.391 67.13-29.103 71.38-38.661 0 0-2.69 12.887-20.41 23.109-15.15 8.893-34.35 17.11-49.95 20.404z" fill="#210500"/>
        <path d="m1759.2 557.2c17.36-38.427 13.15-114.14 43.17-173.76 43.39-86.15 169.2-141.31 203.29-196.47 15.37-24.87 30.37-57.64 34.71-57.02 4.34 0.619 33.47 70.861 25.2 179.12-8.26 108.26-37.19 221.47-117.34 299.15-80.16 77.679-134.17 82.151-140.78 94.547l-48.25-145.56z" fill="#ffa659"/>
        <path d="m2035.3 134.99c-6.76 10.056-18.12 33.251-29.69 51.979-34.09 55.161-159.9 110.32-203.29 196.47-12.32 24.474-27.83 96.253-30.99 140.48 21.21-34.772 25.24-104.51 53.72-144.3 72.85-101.81 182.05-118.76 210.25-244.63z" fill="#f49758"/>
        <path d="m2040.8 130.22c55.04 219.1-19.09 425.85-234.33 569.76l0.92 2.777c6.61-12.396 60.62-16.868 140.78-94.547 80.15-77.679 109.08-190.89 117.34-299.15 8-104.8-19.04-173.97-24.71-178.84z" fill="#ea8b44"/>
        <path d="m1807.4 702.76s-3.84-6.951 17.47-15.246c23.53-9.96 67.32-28.502 121.58-81.08 68.23-66.118 106.37-163.45 116.6-297.56 7.63-99.891-16.73-166.79-23.14-175.92-2.94 3.009-9.44 14.916-15.24 25.532-5.18 9.481-11.04 20.226-16.95 29.786-14.77 23.901-46.79 48.036-80.68 73.587-45.88 34.58-97.87 73.774-122.51 122.7-17.02 33.795-22.2 73.302-26.77 108.16-6.43 55.592-18.61 64.489-18.61 64.489 7.26-16.069 10.25-38.807 13.7-65.133 4.62-35.246 9.86-75.192 27.26-109.74 25.15-49.955 77.64-89.518 123.94-124.42 33.52-25.263 65.17-49.125 79.45-72.234 5.84-9.449 11.67-20.131 16.82-29.556 12.94-23.711 16.36-29.195 20.35-28.616 7.88 1.128 35.39 76.046 27.33 181.76-10.34 135.37-48.96 233.74-118.1 300.74-54.92 53.224-99.27 71.999-123.09 82.088-10.28 4.353-17.72 7.5-19.41 10.679z" fill="#49210d"/>
        <path d="m1879.6 579.29c-4.41-41.215-3.46-140.06 14.05-178.5 33.88-74.374 133.87-149.57 143.79-190.07 1.65 109.91-19.17 210.16-42.98 252.87-38.69 69.416-114.86 115.69-114.86 115.69z" fill="#f98b8c"/>
        <path d="m2035.2 285.33c1.8-23.947 2.65-49.006 2.27-74.605-9.92 40.492-109.91 115.69-143.79 190.07-16.78 36.834-18.35 129.12-14.57 173.02 17.44-50.468 16.68-112.08 35.24-163.11 22.1-53.045 70.73-87.243 120.85-125.38z" fill="#e45c63"/>
        <path d="m2035 223.3c-9.56 18.066-30.2 40.473-53.38 65.661-31.87 34.62-68 73.861-85.77 112.86-16.64 36.526-18.08 130.64-14.23 173.21 15.1-9.856 77.31-52.858 110.63-112.64 21.63-38.809 42.7-132.33 42.75-239.09zm-157.5 360.14-0.42-3.883c-4.49-41.971-3.54-140.71 14.26-179.79 18.1-39.722 54.51-79.272 86.63-114.17 28.17-30.597 52.49-57.02 57.01-75.463l4.6-18.768 0.29 19.322c1.77 118.05-21.2 214.48-43.29 254.12-38.56 69.186-114.98 116.14-115.75 116.6l-3.33 2.029z" fill="#49210d"/>
        <path d="m1842 627.76c17.36-5.79 35.11-16.074 35.08-48.47l4.96-5e-3c0.01 16.229-4.22 27.449-10.52 35.423-16.24 16.332-29.52 13.052-29.52 13.052z" fill="#49210d"/>
        <path d="m996 908.07c46.48 22.846 66.93 68.915 67.56 107.75l33.46-119.38-101.02 11.624z" fill="#ffa659"/>
        <path d="m1063.6 1015.8c-2.76-33.091-16.72-78.653-67.56-107.75 0 0 14.04 3.012 29.17 15.098 18.88 17.369 29.93 37.388 36.23 56.601 5.87 19.117 2.16 36.052 2.16 36.052z" fill="#49210d"/>
        <path d="m1588.2 822.66c-25.39 90.991-104.93 131.51-170.71 102.4-59.13-26.173-71.42-115.44-18.93-198.89 55.46-88.174 111.86-116.06 162.82-89.625 41.78 21.67 55.32 83.94 26.82 186.12z" fill="#ea8b44"/>
        <path d="m1594 673.44s-33.18-67.185-111.87-35.292c42.42-26.149 92.96-15.55 111.87 35.292z" fill="#49210d"/>
        <path d="m1579.8 841.36c-20.58 80.308-96.54 112.87-162.3 83.707-59.11-26.218-75.33-106.75-27.86-179.03 50.15-76.375 104.06-98.701 155.18-72.638 41.91 21.37 58.09 77.779 34.98 167.96z"/>
        <path d="m1574.9 846.42c-19.32 76.718-92.97 107.22-157.23 78.713-57.77-25.63-74.26-102.88-28.7-171.68 48.13-72.688 100.4-93.587 150.39-68.176 40.98 20.835 57.23 74.993 35.54 161.14z" fill="#fff"/>
        <path d="m1364.7 812.8c-8.55 49.2 11.64 93.985 52.98 112.33 64.26 28.51 137.91-1.995 157.23-78.713 3.37-13.383 5.72-25.9 7.31-37.734-28.18 90.446-184.77 116.86-217.52 4.119z" fill="#cdd7e0"/>
        <path d="m1498.5 677.42c-36.98 0-73.54 26.13-107.49 77.393-23.76 35.889-31.61 76.279-21.52 110.82 7.66 26.239 25.12 46.564 49.17 57.231 31.15 13.822 65.59 13.679 94.48-0.388 29.42-14.334 50.5-41.561 59.33-76.664 20.29-80.557 8.12-136.79-34.26-158.33-13.22-6.721-26.49-10.059-39.71-10.059zm-32.21 260.66c-16.65 0-33.57-3.562-49.64-10.694-25.4-11.27-43.84-32.708-51.92-60.373-10.5-35.938-2.43-77.834 22.15-114.94 47.68-71.994 100.78-95.856 153.58-69.019 44.65 22.7 57.73 80.928 36.83 163.96-9.21 36.545-31.22 64.925-61.98 79.91-15.26 7.435-32 11.157-49.02 11.157z"/>
        <path d="m1509 744.2c-29.48-12.006-66.69 11.723-83.14 53.002-16.42 41.279-5.86 84.48 23.6 96.49 29.48 12.011 66.69-11.724 83.13-52.997 16.44-41.28 5.87-84.489-23.59-96.495z" fill="#542416"/>
        <path d="m1454.3 845.46c-14.13-9.418-22.67-22.692-29.04-37.575-12.47 37.393-2.14 75.043 24.48 85.894 27.66 11.272 62.47-10.648 78.37-49.002-22.97 14.726-50.15 12.94-73.81 0.683z" fill="#a74f45"/>
        <path d="m1492.9 743.55c-6.32 0-12.88 1.407-19.48 4.215-18.97 8.075-35.88 26.895-45.23 50.351-15.89 39.951-5.92 81.796 22.24 93.277 10.59 4.314 22.58 3.876 34.67-1.271 18.97-8.074 35.88-26.895 45.22-50.35 15.91-39.957 5.94-81.802-22.23-93.282-4.81-1.962-9.92-2.94-15.19-2.94zm-27.28 155.75c-5.9 0-11.63-1.101-17.06-3.314-30.67-12.504-41.87-57.231-24.97-99.702 9.82-24.656 27.73-44.499 47.89-53.077 13.33-5.682 26.65-6.128 38.48-1.304 30.68 12.501 41.88 57.23 24.97 99.707-9.83 24.656-27.73 44.496-47.89 53.076-7.22 3.075-14.44 4.614-21.42 4.614z" fill="#261005"/>
        <path d="m1501.6 781.76c-17.16-7-39.26 7.855-49.33 33.182-10.09 25.317-4.35 51.528 12.83 58.519 17.16 6.998 39.26-7.859 49.34-33.177 10.08-25.33 4.33-51.534-12.84-58.524z"/>
        <path d="m1498.6 781.21c-9.52-5.033-21.25-1.131-26.21 8.739-4.95 9.852-1.25 21.923 8.28 26.962 9.52 5.036 21.25 1.115 26.21-8.733 4.95-9.868 1.24-21.936-8.28-26.968z" fill="#fff"/>
        <path d="m1460.4 839.19c-4.39-2.313-9.78-0.515-12.06 4.012-2.29 4.543-0.57 10.091 3.81 12.418 4.38 2.315 9.78 0.513 12.06-4.02 2.28-4.536 0.57-10.092-3.81-12.41z" fill="#fff"/>
        <path d="m1509.4 564.42c26.44-38.013 66.52-64.457 106.4-47.104 39.87 17.354 48.13 99.166 40.7 176.02-21.78-160.27-147.1-128.92-147.1-128.92z"/>
        <path d="m47.516 2088.3c-15.611 24.37 4.545 278.49 18.181 284.68 13.635 6.2 105.36 18.6 112.8 22.32-27.27 18.59-123.96 43.38-126.44 47.1-2.479 3.72-29.749 136.35 7.438 203.29 23.551 7.44 95.447 20.25 95.447 20.25s-122.3 48.75-129.74 68.59c-7.438 19.83 13.221 126.43 16.526 164.44 3.305 38.02 4.133 52.89 4.133 52.89s-43.386 16.12-43.386 18.6 4.959 132.63 20.454 154.94c8.057-0.62 74.994 16.74 78.092 18.6 3.099 1.86-60.119 44-62.598 50.2s11.156 168.58 27.891 191.51c3.718 4.34 520.82 5.79 647.26 19.83 4.959 0.83 42.972-28.92 60.327-31.4 9.574-1.37 56.004-0.72 104.24-0.08 39.188 0.53 79.57 1.05 102.35 0.49 50.822-1.23 240.47-11.15 262.79-11.15 22.31 0 116.52 16.11 184.69 2.48 68.18-13.64 401.62 0 489.63 13.63 11.16 3.72 89.25-28.51 151.23-37.18 61.98-8.68 349.56-30.99 529.29 0 8.68 2.48 14.26-35.64 14.26-35.64s-33.47-56.4-85.22-64.46c45.24 0 77.47-0.62 77.47-4.65s12.09-133.25 7.75-137.59-130.16-47.72-146.89-47.1c63.84-16.12 195.85-42.77 195.85-47.11 0-4.33-15.49-176.01-27.27-179.11s-119-32.23-126.43-34.71c29.74-2.48 57.63-28.51 57.63-32.23s-5.57-48.34-1.85-51.44c3.71-3.1 50.2-11.16 52.06-18.6 1.86-7.43-1.86-277.66-8.06-286.96-6.2-9.29-86.77-38.42-86.77-38.42s76.85-44.63 78.71-50.82c1.86-6.2 35.33-160.53-24.17-255.36-2.23-2.51-201.45 5.29-430.62 13.1-279.48 9.51-603.5 19.03-669.1 9.84-119.39-16.74-555.72 10.53-659.84 17.97-44.026 3.14-185.12-3.02-334.6-9.18-204.05-8.41-423.74-16.83-433.52-1.56z" fill="#af7233"/>
        <path d="m42.767 2186.3c-1e-3 -0.02-2e-3 -0.04-2e-3 -0.06l2e-3 0.06zm-0.01-0.25c-0.066-1.65-0.128-3.29-0.187-4.93 0.059 1.63 0.122 3.28 0.187 4.93z" fill="#d4a874"/>
        <path d="m1733.5 2083c14.09-0.28 28.52-0.59 43.23-0.92-14.71 0.33-29.14 0.64-43.23 0.92z" fill="#d48d42"/>
        <path d="m1776.7 2082.1c63.56-1.45 132.38-3.38 202.06-5.53-69.67 2.15-138.52 4.09-202.06 5.53z" fill="#ce853c"/>
        <path d="m2614.8 2565.5c-165.6-19.66-331.76-37.6-501.39-62.42-36.55-5.77-73.1-7.07-109.66-7.07-14.83 0-29.66 0.22-44.49 0.43-14.84 0.21-29.67 0.43-44.51 0.43-27.98 0-55.97-0.76-83.96-3.71-158.66-19.83-287.58-84.29-426.41-158.66-49.58-29.75-99.17-54.54-148.75-59.5-148.87-20.77-295.9-27.05-442.2-27.05-111.6 0-222.79 3.66-333.98 7.31-111.2 3.65-222.42 7.3-334.14 7.3-32.558 0-65.18-0.31-97.833-1.02-2.107-24.82-3.786-50.98-4.756-75.29l-2e-3 -0.06c-3e-3 -0.06-5e-3 -0.12-8e-3 -0.19-0.065-1.65-0.128-3.3-0.187-4.93 116.03 7.22 230.85 12.77 346.02 12.77 151.8 0 304.19-9.65 460.51-37.84 55.843-9.53 110.92-12.71 165.58-12.71 54.46 0 108.49 3.16 162.38 6.31s107.65 6.3 161.58 6.3c35.05 0 70.18-1.33 105.46-4.86 74.37-9.91 143.79-34.71 223.12-49.58 22.68-4.54 44.69-10.91 66.28-18.43 14.09-0.28 28.52-0.59 43.23-0.92 63.54-1.44 132.39-3.38 202.05-5.53-192.32 75.41-389.66 140-599.14 143.88 29.75 0 64.46 9.92 84.29 29.75 74.37 69.41 173.54 94.2 262.79 128.91 59.5 19.84 133.87 29.75 203.29 44.63 23.81 7.32 46.94 9.24 70.15 9.24 12.69 0 25.4-0.58 38.26-1.15s25.86-1.14 39.13-1.14c14.88 0 30.1 0.72 45.83 2.96 170.35 32.45 327.44 68.2 490.25 77.43 0.47 17.77 0.88 36.3 1.22 54.41z" fill="#bc7d36"/>
        <path d="m2607.5 2402.9v-0.01 0.01zm-0.01-0.03v-0.01 0.01zm-0.01-0.03h-0.01 0.01zm-0.01-0.01v-0.01 0.01zm-0.01-0.01v-0.01 0.01zm-0.01-0.02v-0.01 0.01zm0-0.01c-0.01-0.01-0.01-0.01-0.01-0.02 0 0.01 0 0.01 0.01 0.02zm-0.02-0.02v-0.01 0.01zm0-0.02c-0.01 0-0.01 0-0.01-0.01 0 0.01 0 0.01 0.01 0.01zm-0.01-0.01c-0.01 0-0.01-0.01-0.01-0.01s0 0.01 0.01 0.01zm-0.01-0.01c0-0.01-0.01-0.01-0.01-0.02 0 0.01 0.01 0.01 0.01 0.02zm-86.78-38.44s76.85-44.63 78.71-50.82c0.04-0.14 0.1-0.33 0.16-0.59-0.06 0.26-0.12 0.45-0.16 0.59-1.86 6.19-78.71 50.82-78.71 50.82zm78.89-51.48v-0.01 0.01z" fill="#e0c09b"/>
        <path d="m2610.9 2436.7c-201.19-65.37-426.89-39.5-646.19-87.35-49.58-9.91-84.29-39.66-128.91-64.45 233.04-19.84 461.12-29.75 699.12-69.42 23.79-3.4 49.91-13.79 75.17-24.78 2.33 61.5-8.7 114.73-10.54 122.04v0.01c0 0.01-0.01 0.02-0.01 0.04 0 0.01-0.01 0.02-0.01 0.03-0.06 0.26-0.12 0.45-0.16 0.59-1.86 6.19-78.71 50.82-78.71 50.82s80.57 29.13 86.77 38.42c0 0.01 0.01 0.01 0.01 0.02 0 0 0 0.01 0.01 0.01 0 0.01 0 0.01 0.01 0.01v0.02h0.01c0 0.01 0 0.01 0.01 0.02v0.01s0.01 0 0.01 0.01v0.01h0.01v0.02h0.01c0 0.01 0 0.02 0.01 0.02v0.01l0.01 0.01v0.02c1.23 2.43 2.36 15.11 3.37 33.86z" fill="#b97a36"/>
        <path d="m2562.9 2732.4c-0.82-11.03-1.19-21.68 0.34-23.92-1.53 2.24-1.16 12.89-0.33 23.92h-0.01zm0.34-23.92v-0.02 0.02zm0.01-0.02v-0.01 0.01zm0.01-0.01v-0.01 0.01zm0.03-0.04v-0.01 0.01zm0.04-0.05v-0.01 0.01z" fill="#d4a874"/>
        <path d="m2653 2923.2c-37.44-4.32-74.25-8.57-113.16-8.57-421.45-9.91-818.11-69.41-1244.5-153.7-198.33-39.67-381.79-24.79-575.16-49.58 111.48-38.44 225.93-53.04 343.36-53.04 34.04 0 68.34 1.23 102.88 3.45 263.48 23.06 520.36 72.37 780.88 72.36 131.69 0 264.35-12.6 399.19-47.56 38.49-11 76.98-13.87 115.48-13.87 21.01 0 42.03 0.85 63.05 1.71 21.01 0.85 42.02 1.71 63.04 1.71 9.29 0 18.57-0.17 27.86-0.58-0.07 8.12-0.21 13.2-0.44 14.12-1.86 7.44-48.35 15.5-52.06 18.6-0.01 0-0.01 0-0.02 0.01l-0.03 0.03s-0.01 0-0.01 0.01c0 0-0.01 0-0.01 0.01 0 0-0.01 0-0.01 0.01 0 0-0.01 0-0.01 0.01 0 0-0.01 0-0.01 0.01l-0.04 0.04v0.01l-0.02 0.02c-0.01 0-0.01 0.01-0.01 0.01l-0.01 0.01v0.01c-0.01 0-0.01 0-0.01 0.01-0.01 0-0.01 0.01-0.01 0.01l-0.01 0.01v0.01h-0.01v0.01h-0.01v0.02c-1.53 2.24-1.16 12.89-0.34 23.92-5.15 0.16-10.3 0.22-15.45 0.22-11 0-22.01-0.28-33.01-0.57-11.01-0.28-22.01-0.57-33.01-0.57-20.17 0-40.34 0.96-60.51 4.63-133.88 24.79-322.37 42.14-442.12 58.24 42.89 15.65 75.2 16.13 85.12 16.13 94.21 9.92 188.41 0 287.58 24.79 97.27 21.15 194.54 6.25 291.81 19.86 3.47 18.51 6.87 43.59 9.76 68.04z" fill="#bc7d36"/>
        <path d="m2608.3 3192.6c-71.65-2.8-143.63-3-215.67-3h-36.71c-227.53 0-455.13-2.04-673.83-81.56-138.83-49.58-287.58-84.29-431.37-104.13-160.58-19.17-320-27.92-479.39-27.92-170.34 0-340.64 9.99-512.26 27.92-86.958 8.29-160.09 68.41-245.38 90.91-3.965-21.92-6.697-50.83-8.473-75.28 3.717-1.73 7.37-3.59 10.899-5.71 252.25-116.42 859.02-78.92 887.12-99.17-6.009-1.28-640.13-66.54-871.17-86.24-2.573-17.72-5.062-35.78-6.665-51.44 139.04 2.98 278.08-0.2 417.12 8.77 114.04 9.92 218.16 39.67 332.2 49.58 183.46 14.88 361.95-4.96 545.41 34.71 300.01 68.04 598.04 93.64 895.4 93.63 146.83 0 293.55-6.24 440.17-16.69 1.25 11.49 2.33 22.2 3.22 31.27-230.97 27.47-458.12 46.68-694.22 70.29-23.15 3.02-46.07 4.4-68.81 4.4-89.29 0-175.45-21.36-258.43-49.03 119 79.34 267.74 99.17 411.54 114.04 69.8 4.99 139.04 5.52 207.92 5.52 9.38 0 18.77-0.01 28.15-0.02 9.4-0.01 18.79-0.02 28.18-0.02 100.12 0 199.57 1.14 298.91 15.55-0.99 16.71-2.48 36.31-3.87 53.62z" fill="#b97a36"/>
        <path d="m294.7 3391.1c-88.756-1.52-166.24-2.65-203.98-3.86 37.747 1.21 115.23 2.34 203.98 3.86h-1e-3zm-204.01-3.87c-0.106 0-0.217 0-0.323-0.01 0.109 0.01 0.214 0.01 0.323 0.01zm-0.358-0.01h-0.095 0.095zm-0.15 0h-0.084 0.084zm-0.233-0.01c-0.204-0.01-0.408-0.01-0.61-0.02 0.199 0.01 0.409 0.01 0.61 0.02zm-0.637-0.02h-0.14 0.14zm-0.358-0.01h-0.06 0.06zm-0.313-0.01c-0.08-0.01-0.163-0.01-0.243-0.01 0.084 0 0.159 0 0.243 0.01zm-0.424-0.02h-0.032 0.032zm-0.13 0h-0.057 0.057zm-0.288-0.01h-0.104 0.104zm-0.176-0.01h-0.212 0.212zm-0.732-0.02h-8e-3 8e-3zm-0.426-0.02h-0.017 0.017zm-0.139 0h-0.061 0.061zm-0.511-0.02h-0.077 0.077zm-0.602-0.02h-0.039 0.039zm-17.424-1.01h-2e-3 2e-3zm-0.235-0.03h-1e-3 1e-3zm-0.073-0.01h-4e-3 4e-3zm-0.204-0.03h-7e-3 7e-3zm-0.033-0.01h-0.01 0.01zm-0.03 0h-0.015 0.015zm-0.035-0.01h-0.012 0.012zm-0.033 0h-9e-3 9e-3zm-0.112-0.02c-3e-3 0-8e-3 -0.01-0.012-0.01 4e-3 0 8e-3 0.01 0.012 0.01zm-0.028-0.01h-0.013 0.013zm-0.029 0c-5e-3 -0.01-0.01-0.01-0.015-0.01 4e-3 0 0.011 0 0.015 0.01zm-0.029-0.01h-0.014 0.014zm-0.029-0.01h-0.013 0.013zm-0.028 0h-0.011 0.011zm-0.027-0.01h-0.017 0.017zm-0.031-0.01h-0.02 0.02zm-0.032 0c-5e-3 0-0.01 0-0.014-0.01 4e-3 0.01 0.01 0.01 0.014 0.01zm-0.023-0.01h-0.016 0.016zm-0.027 0c-4e-3 -0.01-9e-3 -0.01-0.014-0.01 5e-3 0 0.01 0 0.014 0.01zm-0.023-0.01h-0.014 0.014zm-0.024-0.01h-0.015 0.015zm-0.022 0c-5e-3 0-0.011 0-0.016-0.01 5e-3 0.01 0.011 0.01 0.016 0.01zm-0.023-0.01c-0.015 0-0.028-0.01-0.042-0.01 0.014 0 0.027 0.01 0.042 0.01zm-0.047-0.01c-5e-3 0-0.011 0-0.016-0.01 6e-3 0.01 0.011 0.01 0.016 0.01zm-0.021-0.01h-0.013 0.013zm-0.021 0c-3e-3 -0.01-7e-3 -0.01-0.011-0.01 3e-3 0 8e-3 0 0.011 0.01zm-0.019-0.01h-0.01 0.01zm-0.018-0.01h-0.01 0.01zm-0.017 0c-3e-3 0-7e-3 0-0.01-0.01 3e-3 0.01 7e-3 0.01 0.01 0.01zm-0.016-0.01h-0.016 0.016zm-0.02-0.01h-0.011 0.011zm-0.016 0c-3e-3 0-7e-3 0-0.01-0.01 3e-3 0.01 7e-3 0.01 0.01 0.01zm-0.015-0.01h-9e-3 9e-3zm-0.014 0c-3e-3 -0.01-6e-3 -0.01-9e-3 -0.01 3e-3 0 7e-3 0 9e-3 0.01zm-0.013-0.01h-9e-3 9e-3zm-0.013-0.01h-8e-3 8e-3zm-0.011 0c-4e-3 0-7e-3 -0.01-0.011-0.01 4e-3 0 7e-3 0.01 0.011 0.01zm-0.011-0.01h-0.011 0.011zm-0.013-0.01h-8e-3 8e-3zm-0.011 0c-2e-3 0-4e-3 -0.01-6e-3 -0.01 2e-3 0 4e-3 0.01 6e-3 0.01zm-9e-3 -0.01h-5e-3 5e-3zm-8e-3 0c-2e-3 -0.01-4e-3 -0.01-5e-3 -0.01 2e-3 0 3e-3 0 5e-3 0.01zm-8e-3 -0.01h-4e-3 4e-3zm-7e-3 -0.01h-4e-3 4e-3zm-6e-3 0c-2e-3 -0.01-4e-3 -0.01-5e-3 -0.01 1e-3 0 3e-3 0 5e-3 0.01zm-0.034-0.05c-3e-3 0-6e-3 -0.01-9e-3 -0.01 3e-3 0 6e-3 0.01 9e-3 0.01zm-0.031-0.04c-2e-3 0-5e-3 -0.01-8e-3 -0.01 3e-3 0 5e-3 0 8e-3 0.01zm-0.031-0.04c-2e-3 -0.01-5e-3 -0.01-7e-3 -0.01 3e-3 0 4e-3 0 7e-3 0.01zm-0.035-0.05c-3e-3 -0.01-6e-3 -0.01-9e-3 -0.02 3e-3 0.01 6e-3 0.01 9e-3 0.02zm-0.028-0.04c-4e-3 -0.01-8e-3 -0.02-0.013-0.02 4e-3 0 9e-3 0.01 0.013 0.02zm-0.028-0.04c-4e-3 -0.01-9e-3 -0.02-0.014-0.02 5e-3 0 9e-3 0.01 0.014 0.02zm-0.039-0.06c-4e-3 -0.01-9e-3 -0.01-0.013-0.02 4e-3 0.01 9e-3 0.01 0.013 0.02zm-0.03-0.04c-4e-3 -0.01-8e-3 -0.02-0.013-0.02 5e-3 0 9e-3 0.01 0.013 0.02zm-0.027-0.04c-5e-3 -0.01-0.01-0.02-0.015-0.02 5e-3 0 0.01 0.01 0.015 0.02zm-0.033-0.05c-6e-3 -0.01-0.013-0.02-0.02-0.03 8e-3 0.01 0.013 0.02 0.02 0.03zm-0.035-0.05-0.015-0.03 0.015 0.03zm-0.028-0.04c-5e-3 -0.01-0.011-0.02-0.016-0.03 5e-3 0.01 0.011 0.02 0.016 0.03zm-0.026-0.04c-0.012-0.02-0.023-0.04-0.034-0.06 0.011 0.02 0.023 0.04 0.034 0.06zm-0.042-0.07c-6e-3 -0.01-0.011-0.01-0.017-0.02 6e-3 0.01 0.011 0.01 0.017 0.02zm-0.029-0.04c-5e-3 -0.01-0.01-0.02-0.016-0.03 5e-3 0.01 0.011 0.02 0.016 0.03zm-0.028-0.04c-9e-3 -0.02-0.018-0.03-0.028-0.05 9e-3 0.02 0.019 0.03 0.028 0.05zm-0.04-0.07c-5e-3 -0.01-0.011-0.01-0.016-0.02 5e-3 0.01 0.011 0.02 0.016 0.02zm-0.028-0.04c-6e-3 -0.01-0.011-0.02-0.017-0.03 7e-3 0.01 0.011 0.02 0.017 0.03zm-0.028-0.04c-5e-3 -0.01-0.011-0.02-0.016-0.03 5e-3 0.01 0.011 0.02 0.016 0.03zm-0.029-0.05c-0.01-0.02-0.019-0.03-0.029-0.05 0.01 0.02 0.019 0.03 0.029 0.05zm-0.039-0.06-0.018-0.03 0.018 0.03zm-0.027-0.05c-7e-3 -0.01-0.012-0.01-0.018-0.02 6e-3 0 0.012 0.01 0.018 0.02zm-0.027-0.04c-0.01-0.02-0.021-0.03-0.031-0.05 0.01 0.02 0.02 0.03 0.031 0.05zm-0.044-0.07c-5e-3 -0.01-0.01-0.02-0.015-0.02 5e-3 0 0.01 0.01 0.015 0.02zm-0.028-0.05c-5e-3 0-0.01-0.01-0.015-0.02 5e-3 0.01 0.01 0.02 0.015 0.02zm-0.034-0.05c-3e-3 -0.01-6e-3 -0.01-8e-3 -0.02 3e-3 0.01 5e-3 0.01 8e-3 0.02zm-0.035-0.06c-4e-3 -0.01-8e-3 -0.01-0.012-0.02 4e-3 0.01 8e-3 0.01 0.012 0.02zm-0.029-0.05c-4e-3 0-9e-3 -0.01-0.013-0.02 5e-3 0.01 8e-3 0.01 0.013 0.02zm-0.03-0.05c-3e-3 0-7e-3 -0.01-0.011-0.02 4e-3 0.01 7e-3 0.02 0.011 0.02zm-0.038-0.06c-3e-3 -0.01-6e-3 -0.01-9e-3 -0.02 3e-3 0.01 6e-3 0.01 9e-3 0.02zm-0.03-0.05c-3e-3 -0.01-5e-3 -0.01-9e-3 -0.02 4e-3 0.01 6e-3 0.01 9e-3 0.02zm-0.033-0.06c-1e-3 0-3e-3 0-4e-3 -0.01 2e-3 0.01 2e-3 0.01 4e-3 0.01zm-0.034-0.06h-4e-3 4e-3zm-0.029-0.05c-3e-3 0-5e-3 -0.01-8e-3 -0.01 3e-3 0 5e-3 0.01 8e-3 0.01zm-0.031-0.05c-2e-3 -0.01-4e-3 -0.01-6e-3 -0.01 2e-3 0 4e-3 0 6e-3 0.01zm-0.065-0.12c-2e-3 0-4e-3 0-6e-3 -0.01 2e-3 0.01 4e-3 0.01 6e-3 0.01zm-0.032-0.05c-1e-3 -0.01-3e-3 -0.01-4e-3 -0.01 2e-3 0 2e-3 0 4e-3 0.01z" fill="#d4a874"/>
        <path d="m294.7 3391.1c-88.753-1.52-166.23-2.65-203.98-3.86-9e-3 0-0.02 0-0.03-0.01-0.109 0-0.214 0-0.323-0.01h-0.269c-0.051-0.01-0.098-0.01-0.149-0.01-0.201-0.01-0.411-0.01-0.61-0.02h-0.167c-0.072-0.01-0.146-0.01-0.218-0.01h-0.06c-0.084-0.01-0.169-0.01-0.253-0.01-0.084-0.01-0.159-0.01-0.243-0.01-0.062 0-0.119 0-0.181-0.01h-0.187c-0.077-0.01-0.155-0.01-0.231-0.01h-0.104c-0.025-0.01-0.048-0.01-0.072-0.01h-0.212c-0.172-0.01-0.35-0.02-0.52-0.02h-8e-3c-0.141-0.01-0.279-0.01-0.418-0.02h-0.2c-0.15-0.01-0.302-0.02-0.45-0.02h-0.077c-0.174-0.01-0.353-0.02-0.525-0.02h-0.039c-8.81-0.33-14.777-0.66-17.385-1.01h-2e-3c-0.081-0.01-0.159-0.02-0.233-0.03h-1e-3c-0.024 0-0.048-0.01-0.072-0.01h-4e-3c-0.07-0.01-0.137-0.02-0.2-0.03h-7e-3c-9e-3 0-0.018 0-0.026-0.01h-0.045c-6e-3 0-0.014-0.01-0.02-0.01h-0.042c-0.035-0.01-0.07-0.02-0.103-0.02-4e-3 0-8e-3 -0.01-0.012-0.01h-0.045c-4e-3 -0.01-0.011-0.01-0.015-0.01h-0.028c-5e-3 0-0.01-0.01-0.015-0.01h-0.039c-5e-3 -0.01-0.011-0.01-0.016-0.01h-0.017c-5e-3 0-9e-3 0-0.014-0.01h-0.032c-4e-3 0-0.01 0-0.014-0.01h-0.036c-4e-3 -0.01-9e-3 -0.01-0.014-0.01h-0.023c-4e-3 0-7e-3 -0.01-0.01-0.01h-0.022c-5e-3 0-0.011 0-0.016-0.01h-7e-3c-0.015 0-0.028-0.01-0.042-0.01h-5e-3c-5e-3 0-0.01 0-0.016-0.01h-0.026c-3e-3 -0.01-8e-3 -0.01-0.011-0.01h-0.018c-2e-3 0-5e-3 -0.01-8e-3 -0.01h-0.017c-3e-3 0-7e-3 0-0.01-0.01h-0.022c-1e-3 0-2e-3 -0.01-4e-3 -0.01h-0.016c-3e-3 0-7e-3 0-0.01-0.01h-0.019c-2e-3 -0.01-6e-3 -0.01-9e-3 -0.01h-0.013c-1e-3 -0.01-2e-3 -0.01-4e-3 -0.01h-0.011c-4e-3 0-7e-3 -0.01-0.011-0.01h-0.011c-1e-3 0-1e-3 -0.01-2e-3 -0.01h-0.011c-2e-3 0-4e-3 -0.01-6e-3 -0.01h-0.011c-2e-3 -0.01-3e-3 -0.01-5e-3 -0.01h-7e-3c-1e-3 -0.01-2e-3 -0.01-3e-3 -0.01h-6e-3c-2e-3 -0.01-4e-3 -0.01-5e-3 -0.01-0.01-0.01-0.019-0.03-0.029-0.04-3e-3 0-6e-3 -0.01-9e-3 -0.01-7e-3 -0.01-0.015-0.02-0.022-0.03-3e-3 -0.01-5e-3 -0.01-8e-3 -0.01-8e-3 -0.01-0.015-0.02-0.023-0.03-3e-3 -0.01-4e-3 -0.01-7e-3 -0.01-0.01-0.02-0.018-0.03-0.028-0.04-3e-3 -0.01-6e-3 -0.01-9e-3 -0.02-6e-3 -0.01-0.013-0.01-0.019-0.02-4e-3 -0.01-9e-3 -0.02-0.013-0.02-5e-3 -0.01-0.01-0.02-0.015-0.02-5e-3 -0.01-9e-3 -0.02-0.014-0.02-9e-3 -0.02-0.017-0.03-0.025-0.04-4e-3 -0.01-9e-3 -0.01-0.013-0.02-5e-3 -0.01-0.011-0.01-0.017-0.02-4e-3 -0.01-8e-3 -0.02-0.013-0.02-4e-3 -0.01-9e-3 -0.02-0.014-0.02-5e-3 -0.01-0.01-0.02-0.015-0.02l-0.018-0.03c-7e-3 -0.01-0.012-0.02-0.02-0.03-5e-3 -0.01-0.01-0.02-0.015-0.02l-0.015-0.03c-5e-3 0-9e-3 -0.01-0.013-0.01-5e-3 -0.01-0.011-0.02-0.016-0.03-4e-3 0-7e-3 -0.01-0.01-0.01-0.011-0.02-0.023-0.04-0.034-0.06-2e-3 0-5e-3 0-8e-3 -0.01-6e-3 -0.01-0.011-0.01-0.017-0.02-4e-3 -0.01-8e-3 -0.02-0.012-0.02-5e-3 -0.01-0.011-0.02-0.016-0.03-4e-3 0-8e-3 -0.01-0.012-0.01-9e-3 -0.02-0.019-0.03-0.028-0.05-4e-3 0-8e-3 -0.01-0.012-0.02-5e-3 0-0.011-0.01-0.016-0.02-4e-3 -0.01-8e-3 -0.01-0.012-0.02-6e-3 -0.01-0.01-0.02-0.017-0.03-4e-3 0-7e-3 -0.01-0.011-0.01-5e-3 -0.01-0.011-0.02-0.016-0.03-4e-3 -0.01-9e-3 -0.01-0.013-0.02-0.01-0.02-0.019-0.03-0.029-0.05-4e-3 0-7e-3 -0.01-0.01-0.01l-0.018-0.03c-3e-3 -0.01-6e-3 -0.01-9e-3 -0.02-6e-3 -0.01-0.012-0.02-0.018-0.02-3e-3 -0.01-6e-3 -0.01-9e-3 -0.02-0.011-0.02-0.021-0.03-0.031-0.05-4e-3 -0.01-8e-3 -0.01-0.013-0.02s-0.01-0.02-0.015-0.02c-4e-3 -0.01-9e-3 -0.02-0.013-0.03-5e-3 0-0.01-0.01-0.015-0.02-6e-3 -0.01-0.013-0.02-0.019-0.03-3e-3 -0.01-5e-3 -0.01-8e-3 -0.02-9e-3 -0.01-0.018-0.03-0.027-0.04-4e-3 -0.01-8e-3 -0.01-0.012-0.02-5e-3 -0.01-0.011-0.02-0.017-0.03-5e-3 -0.01-8e-3 -0.01-0.013-0.02s-0.011-0.02-0.017-0.03c-4e-3 0-7e-3 -0.01-0.011-0.02-9e-3 -0.01-0.018-0.03-0.027-0.04-3e-3 -0.01-6e-3 -0.01-9e-3 -0.02-7e-3 -0.01-0.014-0.02-0.021-0.03-3e-3 -0.01-5e-3 -0.01-9e-3 -0.02-8e-3 -0.01-0.016-0.03-0.024-0.04-2e-3 0-2e-3 0-4e-3 -0.01-0.01-0.01-0.02-0.03-0.03-0.05h-4e-3c-8e-3 -0.02-0.017-0.03-0.025-0.05-3e-3 0-5e-3 -0.01-8e-3 -0.01-8e-3 -0.02-0.015-0.03-0.023-0.04-2e-3 -0.01-4e-3 -0.01-6e-3 -0.01-0.02-0.04-0.039-0.07-0.059-0.11-2e-3 0-4e-3 0-6e-3 -0.01-9e-3 -0.01-0.018-0.03-0.026-0.04-2e-3 -0.01-2e-3 -0.01-4e-3 -0.01-5.01-8.92-9.706-29.94-13.732-54.86 61.215-29.72 116.32-67.19 192.82-67.19 24.791 0 49.582-14.87 74.374-24.79 119-34.7 242.96-4.96 357-44.62-121.02 76.19-278.49 99.74-380.87 198.78" fill="#bc7d36"/>
        <path d="m713.39 3405.5h-0.01 0.01zm-0.741-0.08h-0.018 0.018zm-4.275-0.44h-4e-3 4e-3zm-0.362-0.04c-0.024 0-0.048-0.01-0.072-0.01 0.025 0 0.047 0.01 0.072 0.01zm-0.43-0.04c-0.021-0.01-0.04-0.01-0.061-0.01 0.025 0 0.036 0 0.061 0.01zm-0.212-0.02c-0.012-0.01-0.022-0.01-0.034-0.01 8e-3 0 0.025 0 0.034 0.01zm-0.166-0.02c-0.037 0-0.075-0.01-0.112-0.01 0.043 0 0.069 0.01 0.112 0.01zm-0.196-0.02c-0.047 0-0.093-0.01-0.14-0.01 0.051 0 0.089 0.01 0.14 0.01zm-0.162-0.02c-0.058 0-0.117-0.01-0.175-0.01 0.059 0 0.116 0.01 0.175 0.01zm-0.177-0.01c-29.29-2.86-75.094-5.17-129.02-7.08 53.944 1.91 99.735 4.22 129.02 7.08zm68.709-30.86c4.975-0.46 15.329-0.64 28.97-0.64 7.569 0 16.152 0.06 25.393 0.14h-4e-3c-9.257-0.08-17.856-0.14-25.438-0.14-13.617 0-23.952 0.18-28.921 0.64zm-737.01-179.6h1e-3 -1e-3zm9e-3 -0.04h1e-3 -1e-3zm5e-3 -0.01 1e-3 -0.01-1e-3 0.01zm9e-3 -0.03c1e-3 -0.01 1e-3 -0.01 2e-3 -0.01-1e-3 0-1e-3 0-2e-3 0.01zm5e-3 -0.02h1e-3 -1e-3zm5e-3 -0.02h2e-3 -2e-3zm5e-3 -0.01h1e-3 -1e-3zm6e-3 -0.01v-0.01 0.01zm4e-3 -0.02h2e-3 -2e-3zm6e-3 -0.01c2e-3 -0.01 5e-3 -0.01 7e-3 -0.02-2e-3 0.01-5e-3 0.01-7e-3 0.02zm0.01-0.03c2e-3 0 3e-3 0 5e-3 -0.01-2e-3 0.01-3e-3 0.01-5e-3 0.01zm8e-3 -0.01c2e-3 -0.01 3e-3 -0.01 5e-3 -0.02-2e-3 0.01-3e-3 0.01-5e-3 0.02zm8e-3 -0.02c2e-3 -0.01 3e-3 -0.01 5e-3 -0.01-2e-3 0-3e-3 0-5e-3 0.01zm8e-3 -0.02c2e-3 0 4e-3 -0.01 5e-3 -0.01-1e-3 0-3e-3 0.01-5e-3 0.01zm9e-3 -0.02c2e-3 0 4e-3 -0.01 5e-3 -0.01-1e-3 0-3e-3 0.01-5e-3 0.01zm9e-3 -0.02c2e-3 0 4e-3 -0.01 5e-3 -0.01-2e-3 0-3e-3 0.01-5e-3 0.01zm9e-3 -0.02c2e-3 0 4e-3 -0.01 6e-3 -0.01-2e-3 0-3e-3 0.01-6e-3 0.01zm9e-3 -0.02c3e-3 0 5e-3 -0.01 8e-3 -0.01-3e-3 0-5e-3 0.01-8e-3 0.01zm0.011-0.02c2e-3 0 5e-3 -0.01 7e-3 -0.01-2e-3 0-5e-3 0.01-7e-3 0.01zm0.01-0.01c2e-3 -0.01 5e-3 -0.02 8e-3 -0.02-3e-3 0.01-6e-3 0.01-8e-3 0.02zm0.011-0.03c6e-3 -0.01 0.013-0.02 0.02-0.03-7e-3 0.01-0.014 0.02-0.02 0.03zm0.022-0.04c7e-3 -0.01 0.015-0.02 0.023-0.04-8e-3 0.02-0.016 0.03-0.023 0.04zm0.026-0.04c7e-3 -0.01 0.015-0.03 0.022-0.04-7e-3 0.01-0.015 0.03-0.022 0.04zm0.025-0.04c4e-3 -0.01 7e-3 -0.01 0.011-0.02-4e-3 0.01-7e-3 0.01-0.011 0.02zm0.014-0.03c3e-3 0 6e-3 -0.01 9e-3 -0.01-3e-3 0-6e-3 0.01-9e-3 0.01zm0.014-0.02c3e-3 0 6e-3 -0.01 0.01-0.01-4e-3 0-7e-3 0.01-0.01 0.01zm0.012-0.02c4e-3 0 8e-3 -0.01 0.011-0.01-3e-3 0-7e-3 0.01-0.011 0.01zm0.015-0.02c3e-3 -0.01 7e-3 -0.01 0.01-0.02-3e-3 0.01-7e-3 0.01-0.01 0.02zm0.015-0.02c3e-3 -0.01 6e-3 -0.01 0.01-0.02-4e-3 0.01-7e-3 0.01-0.01 0.02zm0.014-0.02c4e-3 -0.01 9e-3 -0.02 0.013-0.02-4e-3 0-9e-3 0.01-0.013 0.02zm0.014-0.03c5e-3 0 0.01-0.01 0.015-0.02-5e-3 0.01-0.01 0.02-0.015 0.02zm0.015-0.02c0.027-0.04 0.054-0.08 0.083-0.12-0.029 0.04-0.056 0.08-0.083 0.12zm0.083-0.12c5.35-7.43 57.14-42.33 61.955-48.63 4e-3 -0.01 0.011-0.01 0.015-0.01-4.874 6.34-56.621 41.21-61.97 48.64z" fill="#e0c09b"/>
        <path d="m713.8 3405.5c-0.08 0-0.154 0-0.222-0.02-0.061 0-0.122-0.01-0.184-0.02h-0.01c-0.242-0.02-0.486-0.05-0.731-0.08h-0.018c-1.375-0.15-2.794-0.3-4.257-0.44h-4e-3c-0.119-0.02-0.238-0.03-0.358-0.04-0.025 0-0.047-0.01-0.072-0.01-0.118-0.01-0.24-0.02-0.358-0.03-0.025-0.01-0.036-0.01-0.061-0.01-0.05 0-0.102-0.01-0.151-0.01-9e-3 -0.01-0.026-0.01-0.034-0.01-0.044 0-0.088-0.01-0.132-0.01-0.043 0-0.069-0.01-0.112-0.01-0.028 0-0.055-0.01-0.084-0.01-0.051 0-0.089-0.01-0.14-0.01-7e-3 0-0.014-0.01-0.022-0.01-0.059 0-0.116-0.01-0.175-0.01h-2e-3c-29.289-2.86-75.08-5.17-129.02-7.09 52.852-57.43 94.063-126.35 172.29-145.9 69.416-19.84 133.87-49.58 203.29-74.38-120.32 0-229.47-48.41-350.04-48.41-18.545 0-37.371 1.15-56.538 3.79-153.71 24.79-297.5 34.71-441.28 99.16-20.986 6-41.978 11.97-64.058 14.68-2.545-27.74-3.709-49.33-2.934-52.31h1e-3c1e-3 -0.01 2e-3 -0.01 4e-3 -0.02 1e-3 -0.01 3e-3 -0.01 4e-3 -0.02h1e-3c1e-3 0 3e-3 -0.01 4e-3 -0.01l1e-3 -0.01c1e-3 0 3e-3 -0.01 4e-3 -0.01 2e-3 -0.01 3e-3 -0.01 4e-3 -0.01 1e-3 -0.01 1e-3 -0.01 2e-3 -0.01s2e-3 -0.01 3e-3 -0.01h1e-3c2e-3 -0.01 3e-3 -0.01 4e-3 -0.02h2e-3c1e-3 0 2e-3 -0.01 3e-3 -0.01h1e-3c2e-3 -0.01 3e-3 -0.01 5e-3 -0.01v-0.01c2e-3 0 3e-3 0 4e-3 -0.01h2e-3c1e-3 0 3e-3 -0.01 4e-3 -0.01 2e-3 -0.01 5e-3 -0.01 7e-3 -0.02 1e-3 0 2e-3 0 3e-3 -0.01 2e-3 0 3e-3 0 5e-3 -0.01h3e-3c2e-3 -0.01 3e-3 -0.01 5e-3 -0.02h3e-3c2e-3 -0.01 3e-3 -0.01 5e-3 -0.01 1e-3 -0.01 2e-3 -0.01 3e-3 -0.01 2e-3 0 4e-3 -0.01 5e-3 -0.01 2e-3 0 3e-3 -0.01 4e-3 -0.01 2e-3 0 4e-3 -0.01 5e-3 -0.01 2e-3 0 3e-3 -0.01 4e-3 -0.01 2e-3 0 3e-3 -0.01 5e-3 -0.01s3e-3 -0.01 4e-3 -0.01c3e-3 0 4e-3 -0.01 6e-3 -0.01 1e-3 0 2e-3 0 3e-3 -0.01 3e-3 0 5e-3 -0.01 8e-3 -0.01 1e-3 0 2e-3 0 3e-3 -0.01 2e-3 0 5e-3 -0.01 7e-3 -0.01h3e-3c2e-3 -0.01 5e-3 -0.01 8e-3 -0.02 1e-3 0 2e-3 0 3e-3 -0.01 6e-3 -0.01 0.013-0.02 0.02-0.03 1e-3 0 1e-3 0 2e-3 -0.01 7e-3 -0.01 0.015-0.02 0.023-0.04h3e-3c7e-3 -0.01 0.015-0.03 0.022-0.04h3e-3c4e-3 -0.01 7e-3 -0.01 0.011-0.02 1e-3 0 2e-3 0 3e-3 -0.01 3e-3 0 6e-3 -0.01 9e-3 -0.01 1e-3 0 3e-3 -0.01 5e-3 -0.01 3e-3 0 6e-3 -0.01 0.01-0.01 1e-3 -0.01 1e-3 -0.01 2e-3 -0.01 4e-3 0 8e-3 -0.01 0.011-0.01 2e-3 -0.01 3e-3 -0.01 4e-3 -0.01 3e-3 -0.01 7e-3 -0.01 0.01-0.02h5e-3c3e-3 -0.01 6e-3 -0.01 0.01-0.02h4e-3c4e-3 -0.01 9e-3 -0.02 0.013-0.02l1e-3 -0.01c5e-3 0 0.01-0.01 0.015-0.02 0.027-0.04 0.054-0.08 0.083-0.12 5.349-7.43 57.096-42.3 61.97-48.64 63.024-13.58 118.81-52.48 183.09-61.66 109.82-11.36 216.73-31.4 325.18-31.4 33.549 0 67.258 1.92 101.23 6.61 252.87 24.79 505.75 34.7 748.7 109.08 173.54 49.58 347.08 64.45 520.62 89.25 19.83 0-24.79 0-4.96 9.91-54.8 9.14-109.13 13.13-163.42 13.13-122.56 0-244.94-20.35-372.07-47.84-37.1-7.41-73.3-10.39-109.15-10.39-83.95 0-165.94 16.33-252.81 30.23-93.859 14.44-169.32 70.93-247.44 121.63-9.237-0.08-17.82-0.14-25.389-0.14-13.641 0-23.995 0.18-28.97 0.64-0.563 0.06-1.056 0.11-1.478 0.17-15.077 2.16-45.75 24.89-56.789 30.28-1.493 0.73-2.628 1.14-3.315 1.14z" fill="#b97a36"/>
        <path d="m2615.8 2635.7c-66.51-0.56-132.9-0.66-199.22-0.66-16.44 0-32.89 0.01-49.33 0.01-16.48 0.01-32.94 0.02-49.42 0.02-438.7 0-874.99-4.12-1320-122.03-76.847-18.7-154.55-26.95-233.14-26.95-109.02 0-219.74 15.89-332.11 41.82-131.98 30.8-260.06 49.84-391.15 50.28-2.297-25.19-1.392-51.27 0.646-73.78 255.48-1.92 500.06-96.22 757.42-105.41-151.89-24.64-303.78-59.46-455.67-59.46-31.565 0-63.133 1.5-94.698 4.91-7.975 0.57-16.01 0.82-24.1 0.82-23.92 0-48.286-2.13-72.697-4.26-24.413-2.13-48.876-4.26-73.006-4.26-7.778 0-15.524 0.22-23.22 0.73-1.911-12.26-3.773-27-5.486-43.13 53.5-1.5 106.58-2.28 159.44-2.28 253.61 0 501.8 18.1 762.98 62.3 233.04 39.67 436.33 119 654.49 193.37 44.63 14.88 84.29 9.92 128.92 14.88 287.45 26.53 574.9-2.1 858.84 30.09 0.23 15.42 0.41 30 0.52 42.99z" fill="#b97a36"/>
        <path d="m67.861 3383.6c8.602 1.41 84.068 2.66 171.08 4.11 166.99 2.78 395.69 6.58 474.9 15.38 1.816-0.18 9.987-5.33 17.197-9.87 14.112-8.9 31.674-19.97 42.506-21.52 9.619-1.37 54.669-0.77 102.36-0.14 39.996 0.54 81.344 1.09 104.52 0.53 25.903-0.63 86.693-3.47 145.49-6.21 54.7-2.54 106.37-4.95 117.36-4.95 5.65 0 15.79 1.01 28.62 2.29 39.15 3.89 104.68 10.42 155.59 0.24 67.94-13.58 401.62-0.15 490.49 13.61 4.72 1.56 25.73-4.84 47.96-11.59 30.57-9.29 68.61-20.85 102.54-25.6 64.51-9.03 349.39-31.14 530.06 0.01 0.36 0.09 0.51 0.13 0.86-0.11 4.18-2.7 8.52-20.34 10.39-32.55-4.15-6.6-36.21-55.25-83.01-62.54l-31.54-4.62 31.92-0.31c22.47 0 68.62 0 75.03-3.06 0.13-2 0.55-7.03 1.32-16.28 2.3-27.49 9.26-110.45 6.9-118.81-7.28-4.39-126.3-46.24-144.45-46.24-0.13 0-0.26 0-0.38 0.01l-23.48 0.86 22.78-5.74c25.27-6.39 60.92-14.35 95.39-22.05 42.82-9.56 91.13-20.35 98.54-23.81-0.93-16.96-15.91-168.66-25.6-175.66-10.23-2.66-118.73-32.12-126.36-34.66l-11.46-3.82 12.04-1c28.54-2.38 54.15-26.61 55.42-30.15-0.05-0.35-0.38-3.66-0.75-7.49-3.52-35.92-2.89-43.28-0.27-45.46 1.6-1.35 6.03-2.57 17.33-5.46 10.52-2.7 32.41-8.32 33.92-11.88 2.26-11.66-2.26-273.91-7.77-285.02-4.14-6.2-54.65-26.24-85.5-37.39l-5-1.81 4.6-2.67c35.77-20.77 75.14-45.2 77.65-49.57 0.37-1.27 36.23-155.92-23.43-252.27-11.69-1.25-127.67 2.86-273.54 7.98-297.23 10.44-746.41 26.24-824.96 15.22-133.8-18.75-654.11 17.62-659.33 17.99-41.463 2.96-170.63-2.38-307.39-8.04-189.64-7.85-449.37-18.59-458.82-3.84-6.382 9.97-7.038 68.52-1.629 145.7 5.52 78.8 14.093 131.68 18.867 135.47 7.183 3.25 40.175 8.82 66.685 13.3 26.321 4.44 42.629 7.26 46.08 8.98l3.774 1.89-3.486 2.38c-18.006 12.27-65.388 27.09-96.742 36.89-13.667 4.28-26.605 8.32-29.116 9.75-2.905 7.91-28.174 134.51 7.154 199.63 24.063 7.35 93.482 19.75 94.191 19.87l8.556 1.53-8.074 3.22c-48.753 19.44-123.16 53.36-128.34 67.16-4.828 12.87 3.181 67.04 9.616 110.57 3.082 20.84 5.992 40.52 7.057 52.79 3.273 37.62 4.131 52.82 4.138 52.97l0.101 1.82-1.714 0.64c-18.066 6.71-37.862 14.71-41.753 17.24 0.312 14.82 5.857 128.72 19.332 151.52 13.393 0.88 75.405 17.37 77.996 18.92l1.141 0.68 0.169 1.52c0.119 2.54-2.244 4.79-29.65 24.9-13.389 9.83-31.725 23.29-33.253 26.2-1.751 7.28 11.071 163.78 27.154 188.42zm645.91 24.45c-0.213 0-0.412-0.02-0.605-0.05-78.853-8.75-307.42-12.56-474.3-15.33-159.56-2.65-172.63-3.24-174.43-5.34-16.956-23.22-31.023-187.26-28.311-194.04 1.37-3.43 12.211-11.65 34.904-28.3 9.759-7.17 21.5-15.78 26.028-19.8-13.223-4.12-67.462-17.91-73.933-17.3l-1.417 0.1-0.811-1.16c-16.041-23.1-20.895-155.1-20.895-156.36 0-1.95 2e-3 -4.15 43.278-20.28-0.317-5.02-1.383-20.72-4.017-50.99-1.055-12.12-3.953-31.73-7.023-52.5-6.856-46.38-14.63-98.96-9.355-113.03 6.728-17.94 94.377-55.03 123.2-66.82-19.763-3.62-68.448-12.83-87.325-18.79l-0.942-0.29-0.479-0.87c-37.928-68.27-9.856-202.08-7.333-205.86 1.191-1.79 5.04-3.19 31.672-11.52 28.605-8.94 70.67-22.1 90.745-33.38-8.064-1.8-24.092-4.51-39.715-7.14-29.568-5-60.141-10.16-68.031-13.75-2.053-0.93-3.663-3.82-5.387-9.65-13.136-44.48-28.876-255.19-13.853-278.63l2.087 1.34-2.087-1.34c10.217-15.96 190.04-9.75 463.2 1.56 136.62 5.65 265.66 10.98 306.83 8.05 5.224-0.38 526.06-36.78 660.37-17.96 78.12 10.96 527.04-4.82 824.1-15.26 254.33-8.94 275.01-9.22 277.13-6.86 61.72 98.32 25.13 256.23 24.69 257.71-1.82 6.05-50.06 34.87-75.27 49.59 20.49 7.51 77.26 28.94 83.01 37.57 8.03 12.03 8.9 286.93 8.4 288.93-1.33 5.33-12.64 9.06-37.49 15.44-6.64 1.7-14.17 3.63-15.43 4.49-1.64 3.28 1.15 31.78 2.07 41.14 0.49 4.99 0.72 7.43 0.72 8.37 0 5.51-23.47 26.2-49.13 32.83 28.26 7.95 104.25 28.6 116.08 31.71 14.55 3.83 29.12 179.78 29.12 181.51 0 3.81-3.45 5.38-102.47 27.5-29.4 6.57-59.66 13.33-83.56 19.12 36.53 8.46 131.56 41.05 136.34 45.84 2.75 2.74 2.65 23.1-5.68 122.58-0.74 8.91-1.33 15.95-1.34 16.76 0 4.7-5.67 6.74-61.35 7.08 41.71 15.9 67.53 58.71 68.75 60.77l0.45 0.75-0.13 0.87c-0.77 5.29-5.02 31.91-12.74 36.89-1.47 0.95-3.07 1.23-4.65 0.77-177.33-30.56-466.5-8.58-528.27 0.07-33.55 4.7-71.38 16.2-101.79 25.44-29.39 8.93-44.99 13.48-50.56 11.65-88.22-13.63-420.75-27.08-488.36-13.56-51.63 10.32-117.63 3.75-157.06-0.17-12.69-1.26-22.71-2.26-28.12-2.26-10.87 0-62.49 2.4-117.13 4.95-58.82 2.74-119.64 5.57-145.6 6.2-23.266 0.58-64.668 0.02-104.71-0.52-47.493-0.63-92.36-1.22-101.59 0.09-9.784 1.4-27.573 12.61-40.562 20.8-12.347 7.78-17.126 10.64-19.92 10.64z" fill="#684621"/>
        <path d="m2520.4 2366.7c-53.39-4.97-174.15-12.34-211.37-6.83-38.59 5.69-108.64 2.84-127.43-2.04-18.11-4.71-82.47-6.6-83.12-6.62 0 0 29.82-4.09 53.99-2.15 12.51 1.01 24.02 2.31 30.38 3.96 17.99 4.68 88.12 7.44 125.45 1.94 38.12-5.62 157.25 1.66 212.56 6.8l-0.46 4.94z" fill="#684621"/>
        <path d="m2310.4 2799.3s34.51-7.36 66.14-7.84c17.86-0.27 37.26-0.44 55.76-0.6 34.91-0.3 65.06-0.56 75.12-1.42l0.43 4.94c-10.26 0.87-40.5 1.14-75.5 1.44-48.52 0.42-108.9 0.95-121.95 3.48z" fill="#684621"/>
        <path d="m2123.5 3096c65.19 2.71 179.24-12.48 339.09-45.1l2.44-0.5 0.98 4.86-2.43 0.49c-111.79 22.82-201.32 37.12-267.49 42.77-38.6 4.2-72.59-2.52-72.59-2.52z" fill="#684621"/>
        <path d="m155.42 2668.3-0.95-4.87c40.884-7.96 212.58-10.83 364.06-13.36 85.117-1.43 165.51-2.78 212.29-4.86 0 0-24.111 6.61-53.397 6.74-44.581 1.16-100.59 2.09-158.81 3.07-151.28 2.53-322.73 5.4-363.19 13.28z" fill="#684621"/>
        <path d="m178.63 2397.7-0.257-4.95c22.271-1.16 50.861-5.25 81.133-9.57 44.955-6.44 93.818-13.42 137.77-13.7 44.629 0 63.662 11.21 63.662 11.21-54.59-13.5-132.23-2.4-200.73 7.39-30.386 4.35-59.084 8.45-81.578 9.62z" fill="#684621"/>
        <path d="m390.46 2102.1c-28.097 36.57-87.597 134.91-82.638 163 4.958 28.1 74.374 81.81 210.31 57.02 137.52-25.08 151.92-114.45 137.87-164.86-14.047-50.41-30.03-76.23-30.03-76.23l-235.52 21.07z" fill="#562610"/>
        <path d="m336.33 2225.4c20.026-45.88 32.44-81.74 49.942-117.73-29.391 40.11-83.172 130.62-78.447 157.39 2.61 14.8 23.118 36.68 61.776 50.48-24.249-27.76-52.749-47.29-33.271-90.14z" fill="#77412c"/>
        <path d="m668.13 1899c-7.438-37.4-21.073-108.67-124.58-115.49-103.5-6.82-128.92 91.11-107.22 148.13 0 45.86-3.146 60.74-7.151 71.27-4.004 10.54-44.291 77.48-38.712 99.17 5.578 21.69 24.791 53.3 120.24 37.19 95.448-16.12 115.9-52.69 115.28-58.26-0.62-5.58-25.411-94.83-22.931-108.47 11.156-15.49 30.679-42.76 19.254-78.26l45.823 4.72z" fill="#ffa659"/>
        <path d="m656.01 2157.3c-14.049-50.41-30.031-76.23-30.031-76.23l-73.291 6.55c23.149 54.17 46.518 115.74 3.876 162.65-40.98 45.08-112.44 79.94-177.99 68.31 34.108 10.3 80.561 14.34 139.57 3.58 137.52-25.08 151.92-114.45 137.87-164.86z" fill="#421909"/>
        <path d="m391.77 2104.5c-27.75 36.44-86.297 133.03-81.504 160.2 1.695 9.59 11.275 21.28 25.627 31.27 19.482 13.55 76.199 42.99 181.8 23.74 59.323-10.82 100.68-34.33 122.94-69.87 24.108-38.51 17.119-77.09 12.996-91.89-12.045-43.21-25.653-68.45-28.987-74.28l-232.87 20.83zm59.744 226.51c-65.327 0-103.11-20.29-118.45-30.97-15.645-10.89-25.734-23.45-27.678-34.48-5.292-29.99 56.625-130.47 83.112-164.94l0.663-0.86 238.12-21.31 0.806 1.3c0.659 1.07 16.328 26.7 30.309 76.88 4.302 15.42 11.587 55.65-13.567 95.84-23.022 36.78-65.497 61.04-126.25 72.12-24.971 4.55-47.29 6.42-67.07 6.42z" fill="#210801"/>
        <path d="m463.46 2146.2c-43.107 0-67.905-14.41-75.396-43.53-4.176-16.25 13.988-52.84 31.345-85.86 3.676-6.99 6.58-12.51 7.452-14.81 3.37-8.87 6.967-22.32 6.989-69.94-13.487-35.94-7.446-81.9 14.757-111.94 14.589-19.74 42.932-42.55 95.108-39.11 104.86 6.91 119.09 78.45 126.73 116.89l0.116 0.58-4.861 0.97-0.118-0.58-43.274-4.62s10.082 18.15 4.154 36.31c-4.549 19.75-14.8 34.24-21.043 42.91-1.194 10.72 11.906 62.41 18.259 87.47 3.097 12.23 4.595 18.17 4.772 19.76 0.697 6.28-17.976 44.21-117.33 60.98-17.823 3.01-33.701 4.52-47.655 4.52z" fill="#ffa659"/>
        <path d="m523.92 1806.5c49.584-9.91 117.76 6.2 142.84 85.79-7.942-38.61-25.655-102.29-123.21-108.72-99.663-6.56-126.9 83.97-109.42 141.6 4.676 9.94 6.071 15.6 19.684 22.47-27.019-52.34-4.265-126.26 70.107-141.14z" fill="#f49758"/>
        <path d="m603.05 1972.6c10.462-14.53 28.281-39.42 21.034-71.74-9.672 43.23-40.218 43.47-44.793 70.92-9.09 26.86 16.114 81.4-3.719 111.15-35.731 40.19-153.71 74.37-184.18 22.45 6.713 21.43 28.514 49.27 119.3 33.95 95.448-16.12 115.9-52.69 115.28-58.26-0.62-5.58-25.411-94.83-22.931-108.47z" fill="#ea8b44"/>
        <path d="m463.46 2146.2c-43.107 0-67.905-14.41-75.396-43.53-4.176-16.25 13.988-52.84 31.345-85.86 3.676-6.99 6.58-12.51 7.452-14.81 3.37-8.87 6.967-22.32 6.989-69.94-13.487-35.94-7.446-81.9 14.757-111.94 14.589-19.74 42.932-42.55 95.108-39.11 104.86 6.91 119.09 78.45 126.73 116.89l0.116 0.58-4.861 0.97-0.118-0.58c-7.383-37.14-21.124-106.26-122.19-112.91-49.909-3.31-76.938 18.36-90.796 37.1-21.344 28.88-27.079 73.15-13.947 107.67l0.162 0.88c0 44.06-2.799 60.27-7.314 72.15-0.979 2.58-3.796 7.94-7.697 15.36-12.226 23.26-34.984 66.56-30.931 82.31 3.363 13.09 13.59 52.89 117.42 35.36 93.278-15.74 113.41-50.81 113.23-55.56-0.146-1.3-2.232-9.54-4.649-19.07-9.759-38.5-20.022-80.39-18.257-90.09l0.427-1c9.144-12.7 28.176-39.14 21.266-76.82 0 0 10.082 18.15 4.154 36.31-4.549 19.75-14.8 34.24-21.043 42.91-1.194 10.72 11.906 62.41 18.259 87.47 3.097 12.23 4.595 18.17 4.772 19.76 0.697 6.28-17.976 44.21-117.33 60.98-17.823 3.01-33.701 4.52-47.655 4.52z" fill="#49210d"/>
        <path d="m434.08 1932.7 4.489-2.1c5.094 10.86 15.141 16.94 15.243 16.99 0 0-14.001-2.67-19.732-14.89z" fill="#49210d"/>
        <path d="m1848.7 2146.6c-36.49 31.29-113.35 140.16-106.83 182.45 4.35 28.2 81.49 91.38 189.75 74.03 108.25-17.36 161.14-99.17 152.05-156.19s-35.83-89.66-35.83-89.66l-199.14-10.63z" fill="#562610"/>
        <path d="m1837.8 2157c-38.91 40.2-101.85 133.63-95.93 172.06 1.5 9.7 11.61 23.54 28.64 36.82-40.53-60.3 28.06-135.51 67.29-208.88z" fill="#77412c"/>
        <path d="m2083.7 2246.9c-9.09-57.02-35.83-89.66-35.83-89.66l-77.11-4.11c32.5 38.42 61.91 85.38 38.57 136.74-38.64 90.17-147.1 106.61-237.68 76.84 32.66 24.99 89.77 47.64 160 36.38 108.25-17.36 161.14-99.17 152.05-156.19z" fill="#421909"/>
        <path d="m1849.6 2149.2c-37.16 32.45-111.47 139.07-105.23 179.54 1.59 10.37 14.02 25.38 31.65 38.22 19.84 14.45 74.69 46.69 155.24 33.74 110.99-17.79 158.43-100.49 150-153.35-8.08-50.75-30.51-82.2-34.64-87.63l-197.02-10.52zm44.74 259.45c-61.87 0-104.17-25.25-121.24-37.68-18.93-13.79-31.82-29.68-33.63-41.47-6.64-43 69.08-151.64 107.65-184.71l0.76-0.64 201.23 10.73 0.69 0.85c1.11 1.35 27.27 33.81 36.36 90.84 8.75 54.91-39.93 140.72-154.11 159.03-13.26 2.12-25.85 3.05-37.71 3.05z" fill="#210801"/>
        <path d="m2106 1998.2c2.94-29.91 4.13-117.41-103.3-160.39-62.81-24.79-119 26.45-120.65 80.16-1.66 53.72 8.26 97.93 3.3 117.14-4.96 19.22-45.86 75.62-39.66 102.27 6.19 26.65 37.18 61.98 88 66.93 50.83 4.96 107.85-29.75 112.81-41.52 7.48-17.78-11.16-86.15-6.82-102.27 4.34-16.11 26.24-45.14 44.09-54.3l22.23-8.02z" fill="#ffa659"/>
        <path d="m1899 1911.2c9.29-35.95 33.47-52.69 60.12-60.12 51.31-7.26 104.16 24.53 133.13 64.15-13.88-28.59-40.27-57.67-89.54-77.38-62.81-24.79-119 26.45-120.65 80.16-1.66 53.72 8.26 97.93 3.3 117.14-4.96 19.22-45.86 75.62-39.66 102.27 1.04 4.49 2.85 9.24 5.28 14.04-1.1-49.18 29.87-64.44 46.16-105.15 11.62-39.05-3.72-81.81 1.86-135.11z" fill="#f49758"/>
        <path d="m2014.3 2042c-11.78 25.1 4.33 70.66-10.54 100.41-27.47 58.85-107.66 51.65-147.43 18.06 14.09 20.68 40.48 40.31 77.39 43.91 50.83 4.96 107.85-29.75 112.81-41.52 7.48-17.78-11.16-86.15-6.82-102.27 4.09-15.18 26.89-43.61 44.09-54.3-39.55 1.42-57.31 14.64-69.5 35.71z" fill="#ea8b44"/>
        <path d="m1943.7 2207.3c-3.41 0-6.81-0.16-10.18-0.49-49.29-4.81-83.25-39.06-90.18-68.84-4.31-18.54 12.34-49.45 25.72-74.28 6.63-12.32 12.36-22.95 13.96-29.17 2.42-9.38 1.1-25.52-0.58-45.96-1.61-19.67-3.62-44.15-2.8-70.63 0.9-29.18 17.28-57.72 42.75-74.48 24.5-16.12 53.37-18.93 81.29-7.91 78.31 31.32 99.08 84.87 104.87 124.53 3.09 22.08-2.48 38.16-2.48 38.16l-0.09-3.93c-0.69-33.94-2.33-113.43-104.13-154.16-26.37-10.4-53.62-7.76-76.74 7.45-24.14 15.89-39.67 42.9-40.52 70.49-0.8 26.21 1.19 50.53 2.79 70.08 1.72 20.9 3.07 37.41 0.44 47.6-1.75 6.8-7.61 17.68-14.4 30.28-12.98 24.1-29.14 54.1-25.25 70.81 6.53 28.1 38.84 60.44 85.84 65.02 50.46 4.99 106.12-30.14 110.27-40.02 3.85-9.14 0.02-34.5-3.36-56.88-3.04-20.02-5.65-37.32-3.56-45.06 2.15-8 8.57-19.57 16.69-30.58 14.72-19.18 29.79-23.08 29.79-23.08-16.69 10.51-37.64 39.86-41.7 54.95-1.81 6.74 0.98 25.19 3.68 43.03 3.65 24.15 7.42 49.12 3.03 59.55-5.02 11.94-56.51 43.51-105.15 43.52z" fill="#49210d"/>
    </g>
</svg>
