<?xml version="1.0" encoding="UTF-8"?>
<!DOCTYPE svg  PUBLIC '-//W3C//DTD SVG 1.1//EN'  'http://www.w3.org/Graphics/SVG/1.1/DTD/svg11.dtd'>
<svg clip-rule="evenodd" fill-rule="evenodd" stroke-linejoin="round" stroke-miterlimit="2" version="1.1" viewBox="0 0 2625 1304" xml:space="preserve" xmlns="http://www.w3.org/2000/svg">
    <g fill-rule="nonzero">
        <path d="m469.82 772.52 221.18 71.812 152.24 91.918 556.65 285.41 43.18 37.99s14.41 27.78 30.44 35.98c22.31 11.42 53.58 9.62 74.21-1.75 26.16-14.42 48.12-60.14 43.81-76.84 19.29 16.2 40.95 19.71 63.73 18.23 30.49-5.04 43.21-13.05 55.18-26.63 0 0 10.63-9.49 20.48-28.83 8.01-15.74 2.8-48.23 2.8-48.23s16.12 4.18 41.47 11.12c21.26 5.82 68.49-10.7 82.59-27.65 19.22-23.11 24.9-26.32 28.82-55.22 2.53-18.63-3.75-30.48-12.38-53.32-7.42-19.662-19.86-41.533-19.86-41.533s17.52 19.812 51.09 43.653c16.25 11.54 30.95 16.2 49.62 23.17 9.02 3.36 50.74 1.46 59.55-2.41 21.92-9.62 36.32-13.06 40.93-41.269 3.56-21.816-4.39-28.25-13.16-48.547-11.72-27.148-13.06-39.429-30.04-63.644-33.51-47.793-72.79-91.719-114.9-132.14-92.89-89.152-301.61-241.29-301.61-241.29s-68.38-59.031-106.28-83.301c-15.89-10.172-31.97-21.574-50.35-25.836-32.87-7.629-101.21 1.84-101.21 1.84s27.86-37.812 48.14-47.816c96.19-47.438 318.85-43.086 318.85-43.086s116.01 70.593 157.99 43.086c13.61-8.922 15.08-42.703 0-48.832-68.59-27.883-155.11-40.215-155.11-40.215l-519.93-17.235-157.98 40.215h-133.34l-242.96 45.965-183.84 445.23z" fill="#ffb380"/>
        <path d="m1611.8 184.1s-168.45 15.058-227.11 14.421c-68.44-0.738-71.96-4.562-106.76 2.969-11.68 2.531-23.34 6.918-33.03 13.91-24.98 18.032-48.69 63.469-48.69 63.469s-109.55 28.691-116.51 53.035c-15.67 32.828 1.44 62.207 29.57 90.422 22.39 22.461 93.89 19.129 132.15 15.652 38.25-3.476 96.61-42.769 96.61-42.769 70.56-9.238 110.56-5.434 152.05 25.379 223.21 185.32 422.69 295.98 538.04 480.21l-30.1-408.78c-4.11-36.743-20.32-75-50.66-115.02l-28.83-10.941-98.07-25.453-208.66-156.5zm30.93 592.07c-1.7 0.14-3.27 0.953-4.37 2.254-2.29 2.707-1.95 6.758 0.75 9.047l130.61 110.53 69.89 63.738c2.62 2.383 6.68 2.196 9.07-0.426 2.39-2.621 2.21-6.679-0.41-9.074l-69.97-63.808c-0.07-0.055-0.13-0.11-0.19-0.16l-130.69-110.59c-1.3-1.102-2.99-1.641-4.69-1.5v-4e-3zm-1019.1 46.281c-11.265 11.723-22.726 28.043-26.171 42.133-1.168 4.777-1.512 49.309 18.445 63.937 23.094 16.934 70.98 17.094 99.594 15.985 10.531-0.406 20.757-4.004 30.742-7.375 16.148-5.453 41.531-13.922 62.066-21.985l-117.28-70.816-67.391-21.879zm362.3 42.988c-13.738 0.067-29.183 3.176-45.418 7.754-7.379 3.688-61.476 46.719-61.476 46.719s-27.219 29.043-35.657 46.727c-6.722 14.086-10.593 29.894-11.07 45.489-0.492 16.24 3.973 32.39 8.61 47.96 4.195 14.08 8.476 28.76 17.21 40.57 7.957 10.76 18.637 20.12 30.743 25.82 14.328 6.75 30.933 9.81 46.722 8.61 11.242-0.85 21.735-6.33 31.969-11.06 1.996-0.93 4-1.87 5.996-2.83l1.617-0.51 4.266-2.46c2.262-1.2 4.484-2.46 6.633-3.82l28.529-16.43c-2.58 29.85-3.86 60.59 9.51 86.29 11.18 21.46 33.86 37.12 56.57 45.5 13.07 4.82 28.12 3.89 41.8 1.23 13.35-2.6 30.25-4.41 41.32-11.91l5.64-1.78 51.31-29.55c-0.08 18.12 0.52 36.62 7.46 53.08 5.56 13.15 15.53 24.78 27.06 33.2 9.96 7.27 22.25 11.6 34.43 13.52 12.98 2.04 26.39-0.23 39.34-2.45 11.76-2.03 23.15-5.94 34.43-9.84 9.2-3.19 18.46-6.47 27.05-11.07 14.83-7.94 33.81-21.21 33.81-21.21h-0.24l-24.21-21.31-36.13-18.52c1.87-10.01 6.11-20.6 8.3-29.93 4.94-20.97 20.37-38.92 23.36-60.25 3.32-23.57 7.42-50.77 1.27-73.64 45.1 27.57 88.6 57.49 125.72 93.96 24.8 24.37 59.1 78.27 59.1 78.27 1.89 3 5.86 3.9 8.86 2.01 1.44-0.91 2.46-2.36 2.83-4.02 0.38-1.67 0.07-3.41-0.84-4.85 0 0-33.69-53.8-60.94-80.57-42.79-42.05-93.28-75.18-144.52-105.69-0.06-0.07-0.07-0.1-0.09-0.14-59.9-64.29-103.21-23.056-134.02 35.65-12.64 23.67-19.74 50.1-25.82 76.23-0.2 0.85-0.38 1.7-0.56 2.54l-53.5-27.43c1.14-10.08-2.17-20.52-0.07-30.44 6.92-32.09 31.89-58.09 40.58-89.755 5.88-21.476 12.64-44.761 7.37-66.398-4.19-17.23-13.72-36.184-29.51-44.266-20.08-10.277-47.55-7.828-67.62 2.461-26.78 13.727-55.33 71.313-55.33 71.313s-31.13 53.085-41.71 82.105l-23.46-12.03c9.11-17.92 38.11-46.712 38.11-46.712 7.5-82.582-17.43-106.21-55.4-106.12l0.066-0.02zm530.11 42.868c-2.04-0.196-4.06 0.601-5.42 2.144-1.13 1.277-1.71 2.953-1.6 4.656 0.11 1.7 0.88 3.289 2.16 4.418l73.08 64.465 135.67 139.17c2.47 2.54 6.54 2.59 9.08 0.11 1.22-1.18 1.92-2.81 1.94-4.51s-0.63-3.35-1.82-4.57l-135.83-139.33c-0.12-0.117-0.23-0.234-0.35-0.343l-73.26-64.629c-1.01-0.899-2.29-1.453-3.64-1.582l-0.01 4e-3zm-1345.6 27.226-27.407 84.105c19.825-5.9 39.348-25.882 60.915-58.847-12.926-8.355-24.34-16.773-33.508-25.258z" fill="#d7966c"/>
        <path d="m638.04 146.6c-154.64 247.16-353.96 477.44-466.33 785.15l-1.234 3.793c42.183 39.16 132.11 76.937 201.1 113.55l525.06-767.77c-80.559-50.824-163.71-107.38-258.59-134.71z" fill="#e6e6e6"/>
        <path d="M325.867,0L650.852,125.934C494.57,381.02 287.195,615.477 171.703,931.75L143.062,1019.64L0,828.16L325.867,0Z" fill="#dcc09f"/>
        <path d="m2479.9 321.11-532.57 55.879 73.13 511.7c9.64 16.649 12.46 28.953 21.93 50.883 5.57 12.902 10.83 25.434 13 38.449 0.4 0.926 0.83 1.836 1.2 2.797l531.51-17.875 36.89-140.17-145.09-501.67z" fill="#7aa69a"/>
    </g>
</svg>
