<?xml version="1.0" encoding="UTF-8"?>
<!DOCTYPE svg  PUBLIC '-//W3C//DTD SVG 1.1//EN'  'http://www.w3.org/Graphics/SVG/1.1/DTD/svg11.dtd'>
<svg clip-rule="evenodd" fill-rule="evenodd" stroke-linejoin="round" stroke-miterlimit="2" version="1.1" viewBox="0 0 412 371" xml:space="preserve" xmlns="http://www.w3.org/2000/svg">
    <path d="m206.45 347.2c-167.32-116.53-225.54-217.94-150.92-300.93 45.182-35.044 94.054-38.928 150.02 17.068 43.819-42.092 91.524-58.534 147.32-21.56 51.976 44.362 43.396 105.5-4.042 177.42-15.224-106.75-74.457-151.21-167.53-147.77-3.123-10.561-9.328-16.639-17.847-19.351 4.181 10.705 7.187 21.85 3.495 35.507 77.362-8.103 132.27 18.026 151.18 99.038 2.115 50.66-21.764 103.22-111.68 160.59zm-57.924-63.569c102.44-24.131 111.48-78.993 65.397-151.99-0.835 22.77-6.471 39.632-19.763 47.071-5.719 4.527-11.437 7.981-17.156 10.546-8.389 5.756-12.805 12.396-14.129 19.722 5.82-6.902 15.471-11.888 31.496-13.688 18.39-4.266 25.812-15.553 24.579-32.379 13.578 54.356-9.824 94.623-70.424 120.72zm4.131-54.762c-27.429 1.761-38.038-10.207-37.295-31.441s12.838-51.734 30.819-87.037c-17.271 55.27-28.687 105.79 6.476 118.48zm8.719-94.092c6.952 0.062 13.122 0.123 17.662 0.184 4.601-4.168 6.534-8.55 6.111-13.121-7.744-0.918-15.627 2.199-23.773 12.937zm-28.051-73.285c4.36 4.794 7.773 10.345 10.008 16.838 2.236 6.492 3.294 13.927 2.944 22.488 20.094-17.657 17.505-31.088-12.952-39.326z" fill="#f00"/>
</svg>
