<?xml version="1.0" encoding="UTF-8"?>
<!DOCTYPE svg  PUBLIC '-//W3C//DTD SVG 1.1//EN'  'http://www.w3.org/Graphics/SVG/1.1/DTD/svg11.dtd'>
<svg clip-rule="evenodd" fill-rule="evenodd" stroke-linejoin="round" stroke-miterlimit="2" version="1.1" viewBox="0 0 1792 1792" xml:space="preserve" xmlns="http://www.w3.org/2000/svg">
    <g transform="matrix(1 0 0 -1 129.08 1533.8)">
        <path d="m1280 576v128c0 17.333-6.33 32.333-19 45s-27.67 19-45 19h-502l189 189c12.667 12.667 19 27.667 19 45 0 17.33-6.333 32.33-19 45l-91 91c-12 12-27 18-45 18s-33-6-45-18l-453-453c-12-12-18-27-18-45s6-33 18-45l453-453c12-12 27-18 45-18s33 6 45 18l91 91c12 12 18 27 18 45s-6 33-18 45l-189 189h502c17.33 0 32.33 6.333 45 19s19 27.667 19 45zm256 64c0-139.33-34.33-267.83-103-385.5s-161.83-210.83-279.5-279.5-246.17-103-385.5-103-267.83 34.333-385.5 103-210.83 161.83-279.5 279.5-103 246.17-103 385.5 34.333 267.83 103 385.5c68.667 117.67 161.83 210.83 279.5 279.5s246.17 103 385.5 103 267.83-34.33 385.5-103 210.83-161.83 279.5-279.5c68.67-117.67 103-246.17 103-385.5z" fill="#fff" fill-rule="nonzero" stroke="#fff" stroke-width="1px"/>
    </g>
</svg>
