<?xml version="1.0" encoding="UTF-8"?>
<!DOCTYPE svg  PUBLIC '-//W3C//DTD SVG 1.1//EN'  'http://www.w3.org/Graphics/SVG/1.1/DTD/svg11.dtd'>
<svg clip-rule="evenodd" fill-rule="evenodd" stroke-linejoin="round" stroke-miterlimit="2" version="1.1" viewBox="0 0 1600 700" xml:space="preserve" xmlns="http://www.w3.org/2000/svg">
    <g transform="matrix(1.0164,0,0,1.0164,-924.57,-578.73)">
        <path d="m1072.5 1204.8c-3.27 2.05-14.19 1.87-30.92 0-0.35-8.1 11.81-17.32 22.5-28.05 7.45-14.5 12.87-29.77 18.58-45.26 0.98-8.88 2.37-17.91 5.3-27.52 2.66-8.95 4.02-13.82 4.48-15.91-3.53 4.58-7.2 7.54-10.98 9.18-10.47 17.18-20.68 34.27-30.17 51.45l-6.58 0.31c-3.66 1.82-6.33 4.36-8.29 7.4 0.31 3.65 0.96 6.96 2.24 9.64-1.34 3.85-3.68 6.38-6.5 8.29-12.14 0.12-22.42-2.02-31.14-6.05 8.66-10.72 21.21-20.32 33.39-30.03l0.07-3.44 17.43-20.88c5.35-7.36 8.78-16.61 11.92-27.4l3.52-6.32c11.4-13.71 21.7-28.67 31.14-44.59 2.02-8.37 3.05-17.31 3.36-26.66-3.04-6.3-5.57-12.909-7.39-19.945-1.06-5.673-1.7-11.753-1.53-18.649-9.68-3.467-16.77-9.066-21.55-17.427-4.54-7.366-7-15.772-7.62-25.096-5.6-5.926-11.2-12.935-16.81-21.063-5.66 0.691-12.86 1.711-21.95 3.137-4.98 3.634-9.25 8.117-13 13.22-2.36 3.441-3.38 8.557-4.02 13.466-2.15 1.453-5.4 2.459-11.219 2.443-6.879 6.121-12.963 4.694-18.374-3.137-6.319-8.229-8.235-14.67-6.722-19.718 4.168-8.213 7.993-18.143 11.428-30.026-0.832-2.475-0.11-4.352 2.24-5.602l3.362-12.549c-0.628-4.795-0.497-9.728 1.568-15.013 2.877-4.157 5.659-10.217 8.291-19.27l2.686-6.498c-5.703-8.592-9.698-17.543-10.753-27.113 4.56 6.539 9.823 11.211 16.583 11.876l8.51 6.498c-0.39-7.753-1.75-15.751-3.13-23.752 7.46 6.704 13.83 14.02 17.37 22.928 37.81-2.728 70.74 2.736 98.03 17.629 10.16-7.841 17.67-17.714 24.64-28.009-1.02-14.452-1.31-29.201-1.12-44.143l-9.81 3.565c-2.54 0.106-3.17-2.031-3.01-5.107l-2.51-0.179v-3.047l-2.87-0.718-0.71-4.123-3.41 0.381c1.22-3.122 1.7-7.574 0.72-11.674l-1.43-1.972-10.04 2.868 5.55-7.17c0.16-14.784 5.1-25.402 18.47-28.682 13.74-1.615 25.05 0.697 30.47 12.549l1.97 12.369c5.13 3.676 11.19 4.826 17.05 4.769 6.95-0.067 10.09-0.703 13.61-1.543l17.74-8.425c4.9-1.453 9.8-1.988 14.7-1.972-3.91 0.945-7.89 2.705-10.58 5.12 7.17-0.468 13.96-0.735 17.22 2.23-6.25-0.125-12.23 1.113-17.75 4.661l-10.22 7.17 9.76 3.703 2.79 6.156c-2.05-2.448-4.28-4.17-6.81-4.661-7.69-0.646-13.93 1.805-19.9 4.841 10.02 9.961 19.75 19.633 29.04 28.86 3.49 1.234 6.23 1.215 8.25 0 10.23-3.758 19.36-8.313 26.17-14.52 11.4 1.248 17.47 2.858 18.1 4.84-5.49 10.031-13.77 14.122-22.94 16.313 9.97-1.581 18.89-2.69 26.17-3.047 3.47 3.635-3.01 12.043-24.02 27.426 1.09 7.383 1.59 14.642-3.23 20.795 7.64-0.096 12.65 0.647 14.16 2.509l11.83-1.434c14.66-12.553 30.58-23.205 47.69-32.087 12.19-6.632 24.38-9.803 36.57-11.294 6.52-9.744 14.69-17.166 23.66-23.483 9.98-8.997 17.82-19.681 24.38-31.37 10.37-18.341 23.35-31.736 43.02-32.447 14.16 2.214 23.48 14.107 27.61 36.39 2.35 14.339 6.93 27.367 13.44 39.258 8.19 11.502 17 10.996 26.17 3.406-0.99 3.292 0.97 6.929-15.41 8.425-8.71-0.527-15.52-5.67-20.8-14.52 1.65 6.215 6.53 12.429 16.5 18.643-5.47 0.183-10.75-0.705-15.24-5.915l-9.5-15.237c-0.11 15.655 0.83 31.311 5.37 46.966 3.38 11.941 10.19 22.386 19.19 31.88-7.64-1.692-14.92-5.711-21.34-15.238l-11.83-18.822 0.72 16.851c1.94 5.486 5.16 10.55 10.04 15.057-10.23-2.529-17.99-8.915-22.59-20.256l-3.22-15.416-0.9-32.088c-0.66-11.687-6.86-14.474-16.31-12.01l-25.82 17.746c-7.48 5.708-16.39 9.052-26.17 10.935 16.79 12.643 28 25.671 33.7 39.079 3.11 13.775 4.26 25.83 4.3 36.928 9.74 2.328 19.48-8.207 29.22-26.531 7.38-3.203 12.16-1.9 13.81 4.84-0.64 20.71 2.34 39.414 8.21 54.388 3.96-3.91 8.06-6.285 12.4-5.988 11.13 3.012 17.83 7.422 21.69 12.728l-0.54 3.585c-6.35 7.763-15.24 11.155-25.81 11.652l-13.8 4.661c-2.95 0.86-5.53 0.227-7.71-1.972-4.7 3.675-12.38 4.834-22.05 4.302-13.64 0.847-18.27-2.653-20.79-7.17-8.9 8.849-18.9 14.884-30.48 16.85-12.82-3.313-21.98-10.286-28.68-19.718-18.43 0.871-31.68 10.213-42.84 22.945-14.62 16.308-30.44 28.555-46.97 38.362-17.11 10.517-35.29 17.807-54.31 22.587-20.92 7.9-44.7 11.78-71.35 11.65-7.35 5.17-12.56 11.41-16.85 18.11l-12.73 36.39-16.13 39.79-3.41 8.79-10.75 49.11-9.15 2.33-5.73 8.61 2.87 6.99-4.75 10.13zm1.14-298.76c-2.52 4.545-4.5 12.331-6.42 20.956 3.48 26.358 12.6 34.585 24.25 36.254-0.02-22.458-4.96-42.095-17.83-57.21zm-2.83-2.677c-1.93 8.25-3.87 15.23-5.81 21.033-5.73-5.007-11.09-11.234-16.21-18.28l18.05-5.201c2.33 0.254 3.47 1.173 3.97 2.448zm-6.19-5.966c-0.85-2.536-4.61-3.507-11.17-2.983-7.95-0.051-17.36 5.7-27.15 13.002 7.5-0.244 14.99-2.073 22.49-4.359 6.88-1.136 12-3.097 15.83-5.66zm138.54-61.712-26.87 38.433c-4.99-0.652-8.05-4.285-10.23-9.273l37.1-29.16zm-61.77 7.84c2.73 3.926 6.01 6.335 9.76 7.457l10.23-1.052c10.55-8.824 20.74-19.06 30.78-29.924l-20.75-19.886-0.38 13.385-29.64 30.02z" fill="#fff"/>
    </g>
    <g transform="matrix(1.5167 0 0 1.388 264.14 640.02)">
        <g fill="#fff" fill-rule="nonzero">
            <path d="m64.456-119.22 33.189 119.22h-34.761l-7.074-25.852h-35.897l-7.598 25.852h-13.538l35.285-119.22h30.394zm-41.137 81.4h29.259l-14.062-52.84-15.197 52.84z"/>
            <path d="m194.15-119.22v119.22h-26.463l-49.784-75.461v75.461h-11.616v-119.22h21.922l54.325 81.488v-81.488h11.616z"/>
            <path d="m268.22-119.22 33.188 119.22h-34.76l-7.075-25.852h-35.896l-7.599 25.852h-13.537l35.285-119.22h30.394zm-41.137 81.4h29.259l-14.062-52.84-15.197 52.84z"/>
            <path d="m388.66-85.854-16.07 2.969c0.698-3.202 1.048-5.88 1.048-8.035 0-13.858-8.414-20.786-25.241-20.786-13.276 0-19.914 4.774-19.914 14.323 0 7.162 7.424 13.305 22.272 18.429 28.647 9.84 42.971 24.396 42.971 43.669 0 11.296-4.018 20.365-12.053 27.206-8.035 6.842-18.72 10.262-32.054 10.262-29.52 0-44.28-11.441-44.28-34.324 0-1.863 0.145-4.163 0.436-6.899l16.682-3.669c-1.281 5.066-1.921 9.462-1.921 13.188 0 14.79 8.472 22.185 25.415 22.185 13.567 0 20.35-5.328 20.35-15.983 0-7.919-8.122-14.877-24.367-20.874-23.465-8.618-35.198-22.388-35.198-41.312 0-10.713 3.916-19.345 11.747-25.896 7.832-6.55 18.123-9.825 30.874-9.825 26.202 0 39.303 11.79 39.303 35.372z"/>
            <path d="m492.59-119.22v11.966h-29.258v107.25h-36.683v-107.25h-29.433v-11.966h95.374z"/>
            <path d="m555.74-119.22 33.189 119.22h-34.761l-7.074-25.852h-35.897l-7.598 25.852h-13.538l35.285-119.22h30.394zm-41.136 81.4h29.258l-14.061-52.84-15.197 52.84z"/>
            <path d="m676.18-85.854-16.071 2.969c0.699-3.202 1.048-5.88 1.048-8.035 0-13.858-8.413-20.786-25.241-20.786-13.275 0-19.913 4.774-19.913 14.323 0 7.162 7.424 13.305 22.271 18.429 28.648 9.84 42.971 24.396 42.971 43.669 0 11.296-4.017 20.365-12.053 27.206-8.035 6.842-18.719 10.262-32.053 10.262-29.521 0-44.281-11.441-44.281-34.324 0-1.863 0.146-4.163 0.437-6.899l16.682-3.669c-1.281 5.066-1.922 9.462-1.922 13.188 0 14.79 8.472 22.185 25.416 22.185 13.566 0 20.35-5.328 20.35-15.983 0-7.919-8.123-14.877-24.368-20.874-23.465-8.618-35.197-22.388-35.197-41.312 0-10.713 3.915-19.345 11.747-25.896 7.831-6.55 18.123-9.825 30.874-9.825 26.202 0 39.303 11.79 39.303 35.372z"/>
            <rect x="696.53" y="-119.22" width="34.586" height="119.22"/>
            <path d="m805.96-119.22 33.189 119.22h-34.761l-7.074-25.852h-35.897l-7.598 25.852h-13.538l35.285-119.22h30.394zm-41.137 81.4h29.259l-14.062-52.84-15.197 52.84z"/>
        </g>
    </g>
</svg>
