<?xml version="1.0" encoding="UTF-8"?>
<!DOCTYPE svg  PUBLIC '-//W3C//DTD SVG 1.1//EN'  'http://www.w3.org/Graphics/SVG/1.1/DTD/svg11.dtd'>
<svg clip-rule="evenodd" fill-rule="evenodd" stroke-linejoin="round" stroke-miterlimit="2" version="1.1" viewBox="0 0 32 32" xml:space="preserve" xmlns="http://www.w3.org/2000/svg">
    <path d="m4 10h24c1.104 0 2-0.896 2-2s-0.896-2-2-2h-24c-1.104 0-2 0.896-2 2s0.896 2 2 2zm24 4h-24c-1.104 0-2 0.896-2 2s0.896 2 2 2h24c1.104 0 2-0.896 2-2s-0.896-2-2-2zm0 8h-24c-1.104 0-2 0.896-2 2s0.896 2 2 2h24c1.104 0 2-0.896 2-2s-0.896-2-2-2z" fill="#fff" fill-rule="nonzero"/>
</svg>
