<?xml version="1.0" encoding="UTF-8"?>
<!DOCTYPE svg  PUBLIC '-//W3C//DTD SVG 1.1//EN'  'http://www.w3.org/Graphics/SVG/1.1/DTD/svg11.dtd'>
<svg clip-rule="evenodd" fill-rule="evenodd" stroke-linejoin="round" stroke-miterlimit="2" version="1.1" viewBox="0 0 123 123" xml:space="preserve" xmlns="http://www.w3.org/2000/svg">
    <path d="m52.07 68.5c2.913 3.108 6.096 5.952 9.51 8.5 3.693 2.745 7.606 5.18 11.7 7.28l0.17-0.12c0.3-0.24 0.64-0.55 1-0.9s0.6-0.65 0.92-1l1.13-1.47c0.1-0.154 0.213-0.298 0.34-0.43 4.31-5.68 9.68-12.51 18.32-8.51 0.179 0.074 0.353 0.161 0.52 0.26 7 4.14 14.18 8.15 21.24 12.21 0.176 0.092 0.343 0.199 0.5 0.32 1.749 1.187 3.153 2.816 4.07 4.72 0.907 1.962 1.371 4.099 1.36 6.26-0.021 2.068-0.338 4.122-0.94 6.1-0.634 2.112-1.506 4.145-2.6 6.06-1.349 2.387-3.106 4.519-5.19 6.3-1.967 1.678-4.167 3.062-6.53 4.11h-0.05c-2.147 0.969-4.376 1.745-6.66 2.32-2.218 0.566-4.464 1.013-6.73 1.34-3.465 0.519-6.98 0.626-10.47 0.32-3.451-0.307-6.86-0.978-10.17-2-3.395-1.076-6.702-2.413-9.89-4-3.48-1.717-6.871-3.61-10.16-5.67l-0.84-0.52c-3.07-1.91-6.38-4-9.73-6.47-6.909-5.239-13.274-11.159-19-17.67-5.553-6.277-10.414-13.133-14.5-20.45-3.637-6.449-6.331-13.387-8-20.6-1.501-6.414-1.772-13.055-0.8-19.57 0.59-3.861 1.813-7.598 3.62-11.06 1.687-3.226 4.014-6.075 6.84-8.37 2.8-2.245 6.04-3.876 9.51-4.79 3.668-0.937 7.472-1.225 11.24-0.85 1.004 0.065 1.975 0.385 2.82 0.93 0.83 0.537 1.517 1.268 2 2.13l13.46 22.79c1.186 1.529 1.96 3.337 2.25 5.25 0.239 1.903-0.044 3.836-0.82 5.59-0.641 1.452-1.52 2.787-2.6 3.95-1.069 1.152-2.248 2.197-3.52 3.12-0.73 0.63-1.65 1.3-2.61 2l-0.09 0.07c-1.139 0.782-2.219 1.648-3.23 2.59-0.395 0.319-0.704 0.732-0.9 1.2 0 0.11 0.09 0 0.19 0.17l0.34 0.53c1.13 1.77 3.31 5.15 5.8 8.74 2.191 3.254 4.589 6.364 7.18 9.31v-0.02zm5.45 13.9c-3.72-2.779-7.193-5.874-10.38-9.25-2.832-3.186-5.444-6.561-7.82-10.1-2.48-3.58-4.76-7.11-5.94-9l-0.29-0.43c-1.013-1.245-1.485-2.845-1.31-4.44 0.265-2.109 1.285-4.053 2.87-5.47 1.263-1.197 2.617-2.294 4.05-3.28 0.8-0.58 1.56-1.14 2.25-1.73l0.21-0.16c0.971-0.679 1.866-1.46 2.67-2.33 0.577-0.616 1.049-1.322 1.4-2.09 0.289-0.625 0.403-1.316 0.33-2-0.149-0.777-0.493-1.503-1-2.11-0.124-0.141-0.231-0.295-0.32-0.46l-13.32-22.69c-2.888-0.263-5.8-0.029-8.61 0.69-2.557 0.668-4.943 1.871-7 3.53-2.108 1.72-3.847 3.85-5.11 6.26-1.45 2.801-2.429 5.821-2.9 8.94-0.843 5.66-0.605 11.429 0.7 17 1.546 6.585 4.025 12.915 7.36 18.8 3.839 6.871 8.413 13.305 13.64 19.19 5.425 6.165 11.455 11.77 18 16.73 3 2.27 6.26 4.28 9.26 6.14l0.85 0.54c3.079 1.932 6.253 3.707 9.51 5.32 2.87 1.431 5.85 2.631 8.91 3.59 2.853 0.896 5.793 1.486 8.77 1.76 2.967 0.255 5.954 0.161 8.9-0.28 2.02-0.284 4.023-0.678 6-1.18 1.897-0.474 3.747-1.117 5.53-1.92h0.09c1.778-0.788 3.435-1.825 4.92-3.08 1.484-1.271 2.736-2.79 3.7-4.49 0.838-1.464 1.509-3.017 2-4.63 0.413-1.359 0.635-2.77 0.66-4.19 0.025-1.151-0.211-2.293-0.69-3.34-0.404-0.849-1.029-1.575-1.81-2.1-5.41-3.87-14.91-8.59-21-12.11l-0.29-0.15 0.12 0.06-0.12-0.06c-3.75-1.67-7.23 2.75-10.06 6.48l-0.17 0.24c-0.49 0.65-1 1.28-1.4 1.82s-1 1.2-1.4 1.6c-0.539 0.538-1.11 1.042-1.71 1.51-0.677 0.511-1.421 0.928-2.21 1.24-0.747 0.294-1.548 0.424-2.35 0.38-0.69-0.047-1.367-0.213-2-0.49l-0.32-0.14c-4.612-2.33-9.017-5.046-13.17-8.12z" fill="#fff" fill-rule="nonzero" stroke="#fff" stroke-width="1px"/>
</svg>
