<?xml version="1.0" encoding="UTF-8"?>
<!DOCTYPE svg  PUBLIC '-//W3C//DTD SVG 1.1//EN'  'http://www.w3.org/Graphics/SVG/1.1/DTD/svg11.dtd'>
<svg clip-rule="evenodd" fill-rule="evenodd" stroke-linejoin="round" stroke-miterlimit="2" version="1.1" viewBox="0 0 6550 6629" xml:space="preserve" xmlns="http://www.w3.org/2000/svg">
    <g transform="matrix(4.1667 0 0 4.1667 -1933.5 -1894.2)" fill-rule="nonzero">
        <path d="m509.82 1672.5v0.06c0.388 2.71 0.646 4.13 0.646 4.13s2.194-1.61 5.939-4.65c12.01-9.68 39.642-34.08 60.688-67.85 2.518-3.94 4.907-8.07 7.166-12.33 10.008-18.72 17.497-39.9 19.24-62.69 6.391-84.96-32.087-205.24-30.472-274.19 0.063-2.06 0.192-4.13 0.45-6.2 1.292-11.88 5.425-24.27 11.687-36.67 29.568-58.88 106.2-119.05 149.85-131.89 54.553-16.02 57.33-22.28-25.695-11.17-96.198 12.78-218.09 118.59-240.49 169.92-21.112 48.23 34.087 391.63 40.995 433.53z" fill="#263236"/>
        <path d="m577.1 1604.2c4.455-59.4-4.971-115.69-13.493-166.7-9.167-55-17.883-106.97-8.005-153.46 5.746-27.05 16.592-51.13 29.569-71.92-6.262 12.4-10.395 24.79-11.687 36.67-4.841 11.5-8.779 23.7-11.555 36.61-9.62 45.32-1.034 96.65 8.069 151.01 7.942 47.71 16.657 100.07 14.268 155.46-2.259 4.26-4.648 8.39-7.166 12.33z" fill="#37464c"/>
        <path d="m510.47 1676.7s-0.258-1.42-0.646-4.13v-0.06c6.52-46.74 1.486-116.41-3.486-184.26-7.038-96.58-14.332-196.52 9.621-241.91 45.637-86.83 111.6-142.68 196.14-166.19-3.816 3.25-7.539 6.62-11.17 10.1-76.571 24.97-136.81 78.38-179.29 159.06-23.047 43.77-15.816 142.74-8.844 238.49 5.099 70.18 10.006 137.58 3.614 184.25-3.745 3.04-5.939 4.65-5.939 4.65z" fill="#37464c"/>
        <path d="m1543.1 1979.7-12.28 38.28-8.85 27.44h99.43l-28.3-43.51-20.66-31.83s10.58-19.24 4.15-46.48c-6.37-27.25-37.5-128.29-27.63-248.5 27.83-22.47 13.68-60.95 26.42-129.9s48.93-224.41 29.52-335.07c-8.24-28.86-57.64-67.34-106.43-32.02-48.72 35.25-46.66 161.92-29.6 238.88 17.06 76.95 24 149.07 25.68 190.77 1.67 41.64 20.58 65.72 20.58 65.72l11.66 235.65s-19.76 22.47-16.14 40.1c3.69 17.62 32.45 30.47 32.45 30.47z" fill="#3f4748"/>
        <path d="m880.05 1916.8c-14.008 11.23-36.825 34.54 11.545 54.87-0.783 11.88-3.746 28.41-6.703 42.87-3.474 16.92-6.977 30.86-6.977 30.86h113.82l-31.484-38.48-36.727-44.87s-72.418-202.01-89.946-270.96c54.953-71.52 201.53-229.25 234.22-330.23 32.73-101.04-205.08-347.92-279.44-307.82-74.434 40.02-106.95 150.68-108.83 184.32-1.806 33.7 148.4 266.18 148.4 266.18s-61.216 137.84-67.138 166.7c-5.925 28.86 90.496 177.61 119.26 246.56z" fill="#3f4748"/>
        <path d="m877.91 2045.4h113.82l-31.484-38.48-75.361 7.62c-3.473 16.92-6.976 30.86-6.976 30.86z" fill="#263236"/>
        <path d="m1730.4 693.45 10.62 3.851c55.18-15.934 58.02-90.458 23.21-112.64-12.35 39.823-34.75 107.41-33.83 108.79z" fill="#3f4748"/>
        <path d="m1741 697.3c55.18-15.934 58.02-90.458 23.21-112.64 6.13 13.972 10.86 89.026-23.21 112.64z" fill="#162126"/>
        <path d="m868.59 1340.3c14.978 11.17 31.376 21.82 49.26 31.76 190.78 105.82 453.73 133.06 574.01 83.41 120.21-49.71 112.21-171.53 125.05-251.72 2.65-14.91 6.46-34.67 11.5-57.27 17.56-79.53 49.84-194.07 97.48-257.53 4.14-5.552 8.46-10.782 12.85-15.494 4.33-4.585 8.2-9.49 11.75-14.657 53.01-77.021 19.89-206.21-59.01-175.86-61.2 23.565-157.98 92.709-339.14 304.34-42.41 49.582-119.24 54.422-166.76 60.942-88.43 12.19-185.92 7.52-266.87 2.86-78.963-4.56-142.19-9.11-165.94 1.99-43.579 20.27-29.246 178.89 115.82 287.23z" fill="#4f585a"/>
        <path d="m1725.9 888.92c-22.14-19.82-37.12-65.012-41.44-103.81-0.8-7.155 0.32-10.185 2.79-10.185 10.98 0 48.6 59.819 63.25 83.848-3.55 5.167-7.42 10.072-11.75 14.657-4.39 4.712-8.71 9.942-12.85 15.494z" fill="#434c4e"/>
        <path d="m1338.6 1479.4c-51.47 0-108.36-5.7-166.36-17.11l1.92-48.41c16.99 4.06 35.22 7.32 54.85 9.61 9.29 1.09 18.47 1.6 27.56 1.6 90.88 0 170.91-51.01 220.62-88.48 77.54-58.36 129.62-121.62 151.19-190.19-5.04 22.6-8.85 42.36-11.5 57.27-2.77 17.29-4.57 36.52-6.89 56.54-8.46 72.84-23.87 156.19-118.16 195.18-4.55 1.88-9.31 3.65-14.26 5.31-37.12 12.44-85.08 18.68-138.97 18.68z" fill="#444c4d"/>
        <path d="m1138.8 1455.1c-34.04-7.95-68.19-17.86-101.59-29.74-27.37-9.73-54.267-20.79-80.163-33.16 7.236-10.91 13.493-21.41 18.54-31.35 8.063-15.87 10.111-35.34 7.518-56.74 35.975 35.52 83.315 75.83 157.82 100.38l-2.13 50.61z" fill="#444c4d"/>
        <path d="m1426.1 1979.7-16.78 38.28-12.08 27.44h99.43l-23.18-43.51-16.92-31.83s12.85-19.24 9.63-46.48c-3.17-27.25-22.41-128.29 1.61-248.5 30.47-22.47 20.85-60.95 41.71-129.9 20.85-68.95 75.34-224.41 68.95-335.07-4.85-28.86-49.72-67.34-102.66-32.02-52.87 35.25-65.72 161.92-57.71 238.88 8 76.95 6.45 149.07 3.23 190.77-3.23 41.64 12.84 65.72 12.84 65.72l-16.07 235.65s-22.41 22.47-20.86 40.1c1.62 17.62 28.86 30.47 28.86 30.47z" fill="#4f585a"/>
        <path d="m685.53 1916.8c-16.077 11.23-43.183 34.54 1.447 54.87-2.97 11.88-8.974 28.41-14.592 42.87-6.583 16.92-12.653 30.86-12.653 30.86h113.82l-24.405-38.48-28.47-44.87s-35.25-202.01-40.093-270.96c68.113-71.52 243.72-229.25 294.98-330.23 51.323-101.04-141.07-347.92-222.8-307.82-81.798 40.02-134.67 150.68-142.74 184.32-8.004 33.7 99.425 266.18 99.425 266.18s-86.578 137.84-97.811 166.7c-11.234 28.86 57.819 177.61 73.896 246.56z" fill="#4f585a"/>
        <path d="m1409.3 2018-12.08 27.44h99.43l-23.18-43.51-64.17 16.07z" fill="#263236"/>
        <path d="m1530.8 2018-8.85 27.44h99.43l-28.3-43.51-62.28 16.07z" fill="#263236"/>
        <path d="m659.73 2045.4h113.82l-24.405-38.48-76.763 7.62c-6.583 16.92-12.653 30.86-12.653 30.86z" fill="#263236"/>
        <path d="m1248.1 1031.3s15.5 8.58 37 17.04c2.64 1.1 5.36 2.13 8.13 3.1 20.79 7.62 45.58 14.27 67.4 13.49 0.58 0 1.1-0.06 1.68-0.06 4.84-0.26 9.88-0.84 15.04-1.74 47.65-8.46 109.95-48.17 165.67-176.13 37.18-85.606 77.79-150.68 126.21-184.64 23.31-16.397 48.49-25.565 75.99-26.276 10.01-0.387 20.34 0.453 30.99 2.453-0.64-1.548-1.36-3.034-2.06-4.518-1.1-2.196-2.33-4.326-3.62-6.391-1.87-2.907-3.94-5.683-6.26-8.265-2.39-2.776-5.04-5.423-7.94-7.811-51.07-43.128-166.96-23.05-244.17 110.72-90.26 156.37-264.06 269.03-264.06 269.03z" fill="#263236"/>
        <path d="m1725.7 679.74c-1.42-0.347-2.86-0.626-4.34-0.843 4.48-0.961 9.02-1.686 13.63-2.168-0.11 0.366-0.23 0.728-0.33 1.084-3.03 0.58-6.01 1.223-8.96 1.927z" fill="#fff"/>
        <path d="m1734.7 677.81c0.1-0.356 0.22-0.718 0.33-1.084 3.38-0.354 6.8-0.576 10.25-0.666-3.58 0.497-7.11 1.082-10.58 1.75z" fill="#4e595c"/>
        <path d="m1669.3 702.34c16.4-11.532 33.71-19.489 52.11-23.442 1.48 0.217 2.92 0.496 4.34 0.843-20.55 4.902-39.33 12.733-56.45 22.599z" fill="#5c686c"/>
        <path d="m1360.7 1064.9c65.92-34.15 113.18-87.476 151.65-170.56 31.45-67.984 103.56-223.83 258.25-226.74 1.29 2.065 2.52 4.195 3.62 6.391-10.01 0.064-19.63 0.773-28.93 2.065-3.45 0.09-6.87 0.312-10.25 0.666-4.61 0.482-9.15 1.207-13.63 2.168-18.4 3.953-35.71 11.91-52.11 23.442-83.22 48.099-128.21 145.14-151.13 194.72-36.35 78.635-80.58 131.12-140.75 166.05-5.16 0.9-10.2 1.48-15.04 1.74-0.58 0-1.1 0.06-1.68 0.06z" fill="#37464c"/>
        <path d="m1293.3 1051.4c-2.77-0.97-5.49-2-8.13-3.1 63.14-31.31 169.34-98.905 220.99-216.99 55.55-127.03 117.86-182.62 211.72-182.62 12.28 0 25.1 0.952 38.52 2.819 2.9 2.388 5.55 5.035 7.94 7.811-16.9-2.846-32.78-4.309-47.8-4.309-90.9 0-149.71 53.663-204.51 178.88-51 116.6-154.3 184.7-218.73 217.5z" fill="#37464c"/>
        <path d="m1822.1 693.97c33.14 91.382 213.9 201.84 213.9 201.84s-28.12 47.197-67.29 42.177c-39.16-5.021-33.13-45.189-33.13-45.189s-44.19-17.072-92.39-12.051c-48.2 5.022-78.33 9.038-110.46-14.059-32.14-23.097-95.49-148.18-41.18-183.77 29.13-19.079 101.43-5.021 130.55 11.047z" fill="#4f585a"/>
        <path d="m1797 752.21c0 5.547 4.49 10.043 10.04 10.043 5.54 0 10.04-4.496 10.04-10.043 0-5.544-4.5-10.042-10.04-10.042-5.55 0-10.04 4.498-10.04 10.042z" fill="#263236"/>
        <path d="m1989.9 873.31c0.61 10.899 13.93 24.823 13.93 24.823s0 4.238-11.51 1.817c-11.5-2.422-2.42-26.64-2.42-26.64z" fill="#263236"/>
        <path d="m1688.4 694.01 11.1 2.065c51.84-24.725 42.48-98.713 4.52-114.92-2.65 44.546-15.62 112.85-15.62 112.85z" fill="#4f585a"/>
        <path d="m1699.6 696.08c51.84-24.725 42.48-98.713 4.52-114.92 8.33 12.782 25.25 86.059-4.52 114.92z" fill="#162126"/>
        <path d="m1132.6 973.74s31.24 47.443 34.72 60.173c3.47 12.73-262.7 5.79-262.7 5.79l32.404-69.435s43.977 50.915 87.948 50.915c43.98 0 107.63-47.443 107.63-47.443z" fill="#955141"/>
        <path d="m1180 1267.2-8.11 203.67-33.56-5.78 8.11-193.26 33.56-4.63z" fill="#8c4b3a"/>
        <path d="m866.4 1032.3s0.388 65.59 5.747 128.02c4.13 47.58 11.168 93.42 23.177 106.91 27.825 31.25 348.37 11.56 357.6 8.14 5.62-2.07 1.1-91.16-3.29-161.86-2.97-46.93-5.94-85.8-5.94-85.8-6.46 0.84-12.91 1.62-19.37 2.26-2.13 0.26-4.32 0.52-6.45 0.71-133 14.01-267.03 7.62-323.58 3.75-2.324-0.13-4.453-0.26-6.521-0.39-13.687-1.03-21.37-1.74-21.37-1.74z" fill="#b56a57"/>
        <path d="m901.7 1165.6c-2.301-0.36-4.559-0.72-6.747-1.08-4.498-47.91-6.425-102.58-7.185-130.47 2.068 0.13 4.197 0.26 6.521 0.39 1.127 42.19 3.663 90.9 7.411 131.16zm322.23-38.19c-2.11-36.68-4.52-73.58-6.06-96.72 2.13-0.19 4.32-0.45 6.45-0.71 1.98 30.02 4.1 63.15 5.9 94.26-2.09 1.08-4.18 2.13-6.29 3.17z" fill="#9a4b3b"/>
        <path d="m1026.6 1032.6c41.83 0 85.1-23.27 119.84-65.554 5.66-6.887 4.66-17.057-2.23-22.715-6.88-5.658-17.05-4.662-22.71 2.225-34.55 42.053-75.95 60.824-113.59 51.504-31.613-7.833-55.155-35.281-62.967-73.431-1.79-8.737-10.302-14.354-19.052-12.573-8.733 1.79-14.364 10.318-12.573 19.053 10.378 50.643 42.835 87.381 86.832 98.281 8.69 2.15 17.54 3.21 26.45 3.21z" fill="#b56a57"/>
        <path d="m1044.1 1284.6c-22.75 0-44.845-0.41-64.798-1.39-42.87-2.12-75.835-6.9-83.943-16.01-12.009-13.49-19.047-59.33-23.177-106.91 6.65 1.35 14.291 2.78 22.808 4.19 4.289 45.67 10.915 85.2 21.092 89.49 12.268 5.16 83.608 8.97 155.47 8.97 70.04 0 140.54-3.61 157.27-13.1 3.22-1.81 5.03-4.01 5.35-6.46 1.68-11.46-0.58-61.89-3.91-119.18 6.53-3.36 13-6.93 19.41-10.72 2.93 47.16 5.91 102.49 5.91 134.73 0 16.1-0.75 26.44-2.62 27.13-2.71 1-32.29 3.41-73.44 5.52-10.48 0.54-21.72 1.06-33.46 1.53-32.01 1.28-67.71 2.21-101.96 2.21zm38.65-28.56c-76.09 0-155.1-4.19-164.15-8.01-6.956-2.93-12.669-37.41-16.864-82.47 27.88 4.31 63.861 8.11 104.13 8.11 66.76 0 145.29-10.45 218.1-46.3 3.01 52.25 5.41 104.07 3.81 115.1 0 0-0.26 0.78-2.64 2.01-16.6 8.6-78.47 11.56-142.39 11.56z" fill="#aa5e4c"/>
        <path d="m1071.5 1263c-71.86 0-143.2-3.81-155.47-8.97-10.177-4.29-16.803-43.82-21.092-89.49 2.188 0.36 4.446 0.72 6.747 1.08 4.195 45.06 9.908 79.54 16.864 82.47 9.053 3.82 88.059 8.01 164.15 8.01 63.92 0 125.79-2.96 142.39-11.56 2.38-1.23 2.64-2.01 2.64-2.01 1.6-11.03-0.8-62.85-3.81-115.1 2.11-1.04 4.2-2.09 6.29-3.17 3.33 57.29 5.59 107.72 3.91 119.18-0.32 2.45-2.13 4.65-5.35 6.46-16.73 9.49-87.23 13.1-157.27 13.1z" fill="#924233"/>
        <path d="m1032.1 618.94-6.75 50.927-27.025 0.518 10.915-86.264 12.99 2.078 9.87 32.741z" fill="#fbc3ab"/>
        <path d="m1069 515s4.68 34.299 6.24 40.016c1.55 5.716 19.74 25.982 20.26 28.062 0.52 2.078-8.31 7.795-8.31 7.795s-5.2 41.053-8.84 45.729c-3.63 4.678-47.81-7.275-56.64-21.826-8.83-14.55-12.99-94.579-12.99-94.579l60.28-5.197z" fill="#fbc3ab"/>
        <path d="m1008.7 613.74c-22.866-9.355-48.087-32.132-49.89-51.968-1.559-17.149 54.05-57.162 66.52-58.202s5.71 60.801-11.43 68.595c-1.56 10.395-5.2 41.575-5.2 41.575z" fill="#7f6465"/>
        <path d="m1030.4 519.25 10.9 111.67h-6.36l-16.34-102.59 11.8-9.08z" fill="#1d2a30"/>
        <path d="m1039.8 635.09-7.19 19.966s43.13 99.833 45.53 112.61c2.39 12.778-8.79 17.57-14.38 34.342-5.59 16.771 11.7 155.36 11.7 155.36l-96.361 17.698s-14.374-73.226-15.171-173.06c-0.8-99.834 28.751-145.36 28.751-145.36l-1.597-24.76 48.718 3.196z" fill="#572d3b"/>
        <path d="m1035.2 689.28 6.77 156.51 125.31 51.482-11.4 12.346s-146.04-16.862-155.93-34.164c-7.982-13.97-6.487-138.28-5.613-185.69 0.192-10.408 8.172-18.982 18.532-19.953 11.64-1.091 21.83 7.787 22.33 19.468z" fill="#e8dddf"/>
        <path d="m964.95 565.36c2.243 45.615-17.2 51.598-29.911 59.822-12.713 8.226 12.711 38.139 2.243 56.086-10.469 17.946-24.678 25.423-24.678 25.423s8.226-35.894-26.92-63.562c-35.145-27.668 58.328-82.256 78.518-81.507 6.731-2.245 0.748 3.738 0.748 3.738z" fill="#7f6465"/>
        <path d="m1583.3 1146.5c10.65 0 21.32-0.51 32.02-1.56 124.43-12.2 231.53-94.66 318.31-245.08l-5.59-3.228c-85.69 148.52-191.11 229.9-313.35 241.89-160.75 15.79-318.54-93.4-412.55-200.83l-4.85 4.251c88.82 101.51 234.14 204.56 386.01 204.56z" fill="#955141"/>
        <path d="m1122 1422.4 34.82-153.06-7.29-3.24-34.01 156.3h6.48z" fill="#9aa1b9"/>
        <path d="m1070.8 945.06c-11.09-9.7-66.44-12.429-91.466 2.773-9.79 5.947-7.318 20.484-6.929 26.33 1.386 20.787 200.2 183.82 200.2 183.82l-49.46 113.79 25.47 19.1s84.73-108.22 87.91-132.89-154.64-203.22-165.72-212.93z" fill="#e8dddf"/>
        <path d="m1046.2 1397.5s3.74 4.84 9.94 12.07l12.33-8.07s0 12.66 2.52 24.8c16.53 17.56 38.15 37.44 54.81 41.25-0.77-20.72-45.38-77.21-45.38-77.21l109.14-126.14-55.16-56.31-69.09 168.11-19.11 21.5z" fill="#1d2a30"/>
        <path d="m1124.8 1416.2c-3.04-3.1-7.89-3.49-11.39-0.92l-42.13 31.04 27.28 18.87 27.09-37.83c2.47-3.43 2.11-8.14-0.85-11.16z" fill="#9aa1b9"/>
        <path d="m1199.7 939.83c0 4.085 28.61 198.85-38.13 183.87s20.43-187.95 20.43-187.95l6.81 2.724s-72.19 153.91-27.24 172.97c44.95 19.07 34.26-171.42 34.26-171.42l3.87-0.182z" fill="#955141"/>
        <path d="m1142.3 876.22c1.52 2.273 28.06 18.197 28.06 18.197s47 25.02 47.76 34.876c0.76 9.857-6.06 31.087-9.85 32.604-3.79 1.518-32.61-17.439-34.88-24.263-2.28-6.824-2.28-21.987-2.28-21.987l-50.04-3.033 21.23-36.394z" fill="#f89950"/>
        <path d="m1017.6 571.65s-14.55-20.788-23.382-7.796c-8.835 12.992 19.592 34.458 24.422 22.865 2.6-6.235-1.04-15.069-1.04-15.069z" fill="#fbc3ab"/>
        <path d="m1104.9 509.2c0.26 3.047-1.85 5.778-4.88 6.236-20.39 3.102-94.86 16.145-149.63 48.249-3.533-3.091-4.857-7.507-4.857-7.507l1.41-1.276c4.621-4.181 6.747-10.465 5.508-16.573-4.053-19.98-8.235-65.821 34.146-80.177 37.584-12.728 60.604 11.569 71.344 28.062 5.64 8.66 14.77 14.375 25.03 15.643l16.86 2.083c2.72 0.336 4.83 2.529 5.07 5.26z" fill="#1d2a30"/>
        <path d="m1981.2 848.79-46.07 53.742-12.79-8.531 46.06-54.595 12.8 9.384z" fill="#b56a57"/>
        <path d="m1915.5 898.27c0 8.481 6.88 15.355 15.36 15.355s15.35-6.874 15.35-15.355c0-8.48-6.87-15.354-15.35-15.354s-15.36 6.874-15.36 15.354z" fill="#9aa1b9"/>
        <path d="m1951.3 869.26-251.65-118.57-2.56 9.384 244.83 118.57 9.38-9.384z" fill="#b56a57"/>
        <path d="m1678.3 665.38 63.97 212.41-10.23 6.824-66.54-215.82 12.8-3.412z" fill="#b56a57"/>
        <path d="m1703.9 755.81 103.22-74.215-15.36-6.824-92.13 75.921 4.27 5.118z" fill="#b56a57"/>
    </g>
</svg>
