<?xml version="1.0" encoding="UTF-8"?>
<!DOCTYPE svg  PUBLIC '-//W3C//DTD SVG 1.1//EN'  'http://www.w3.org/Graphics/SVG/1.1/DTD/svg11.dtd'>
<svg clip-rule="evenodd" fill-rule="evenodd" stroke-linejoin="round" stroke-miterlimit="2" version="1.1" viewBox="0 0 130 107" xml:space="preserve" xmlns="http://www.w3.org/2000/svg">
    <g transform="translate(-49.603 -67.827)">
        <path d="m81.229 128.77 14.237 39.406s1.78 3.687 3.686 3.687 30.255-29.492 30.255-29.492l31.525-60.89-79.195 37.117-0.508 10.172z" fill="#c9eac8" fill-rule="nonzero"/>
    </g>
    <g transform="translate(-49.603 -67.827)">
        <path d="m100.11 138.88-2.733 29.046s-1.144 8.9 7.754 0 17.415-15.763 17.415-15.763" fill="#a9d8ab" fill-rule="nonzero"/>
    </g>
    <g transform="translate(-49.603 -67.827)">
        <path d="m81.486 130.18-29.286-9.542s-3.5-1.42-2.373-4.64c0.232-0.664 0.7-1.229 2.1-2.2 6.489-4.523 120.11-45.36 120.11-45.36s3.208-1.081 5.1-0.362c0.952 0.295 1.673 1.081 1.885 2.055 0.204 0.846 0.29 1.716 0.254 2.585-9e-3 0.752-0.1 1.449-0.169 2.542-0.692 11.165-21.4 94.493-21.4 94.493s-1.239 4.876-5.678 5.043c-2.203 0.071-4.343-0.757-5.925-2.292-8.711-7.493-38.819-27.727-45.472-32.177-0.303-0.207-0.503-0.535-0.546-0.9-0.093-0.469 0.417-1.05 0.417-1.05s52.426-46.6 53.821-51.492c0.108-0.379-0.3-0.566-0.848-0.4-3.482 1.281-63.844 39.4-70.506 43.607-0.48 0.145-0.986 0.176-1.48 0.09z" fill="#fff" fill-rule="nonzero"/>
    </g>
</svg>
