<?xml version="1.0" encoding="UTF-8"?>
<!DOCTYPE svg  PUBLIC '-//W3C//DTD SVG 1.1//EN'  'http://www.w3.org/Graphics/SVG/1.1/DTD/svg11.dtd'>
<svg clip-rule="evenodd" fill-rule="evenodd" stroke-linejoin="round" stroke-miterlimit="2" version="1.1" viewBox="0 0 1016 580" xml:space="preserve" xmlns="http://www.w3.org/2000/svg">
    <g transform="matrix(1.5463 0 0 1.5463 -282.19 -511.49)">
        <path d="m503.95 704.03h39.269s11.859-1.307 17.922-7.831c5.573-5.996 5.395-17.249 5.395-17.249s-0.768-52.692 23.683-60.451c24.114-7.649 55.07 50.924 87.88 73.448 24.812 17.039 43.667 13.31 43.667 13.31l87.739-1.227s45.895-2.831 24.132-38.917c-1.781-2.947-12.678-26.693-65.238-75.48-55.019-51.063-47.644-42.801 18.626-131.13 40.359-53.791 56.49-86.628 51.449-100.69-4.802-13.399-34.489-9.86-34.489-9.86l-98.786 0.611s-7.329-0.997-12.756 2.251c-5.31 3.176-8.717 10.598-8.717 10.598s-15.642 41.622-36.486 77.025c-43.989 74.693-61.581 78.647-68.771 74.001-16.729-10.81-12.548-43.421-12.548-66.595 0-72.389 10.98-102.57-21.381-110.38-10.737-2.591-18.647-4.305-46.11-4.585-35.251-0.359-65.079 0.109-81.972 8.384-11.239 5.504-19.909 17.765-14.625 18.471 6.53 0.87 21.314 3.991 29.152 14.656 10.126 13.777 9.772 44.703 9.772 44.703s5.818 85.213-13.585 95.795c-13.314 7.259-31.581-7.561-70.799-75.327-20.091-34.712-35.265-73.086-35.265-73.086s-2.922-7.169-8.141-11.007c-6.33-4.65-15.174-6.124-15.174-6.124l-93.876 0.613s-14.09 0.393-19.267 6.522c-4.606 5.455-0.368 16.724-0.368 16.724s73.49 171.94 156.71 258.59c76.314 79.454 162.96 74.239 162.96 74.239" fill="#fff"/>
    </g>
</svg>
